<svg width="212" height="125" viewBox="0 0 212 125" fill="none" xmlns="http://www.w3.org/2000/svg">
<path d="M32.8107 90.6291L21.1834 83.4915C19.2199 82.2862 16.7802 82.2863 14.8166 83.4915L3.1894 90.6291C1.22207 91.8366 0 94.0886 0 96.5061V110.77C0 113.188 1.22207 115.44 3.18932 116.647L14.8166 123.785C16.7805 124.99 19.2201 124.99 21.1834 123.785L32.8106 116.647C34.7779 115.44 36 113.188 36 110.77V96.5061C36 94.0887 34.7779 91.8367 32.8107 90.6291ZM32.9099 110.77C32.9099 112.015 32.2804 113.175 31.267 113.797L19.6397 120.935C18.6282 121.556 17.3717 121.556 16.3602 120.935L4.73292 113.797C3.71959 113.175 3.09013 112.015 3.09013 110.77V96.5061C3.09013 95.2609 3.71959 94.1009 4.733 93.4789L16.3602 86.3414C17.3718 85.7204 18.6287 85.7206 19.6398 86.3414L31.2671 93.4789C32.2804 94.1009 32.9099 95.2608 32.9099 96.5061V110.77Z" fill="#FFA114"/>
<path d="M76.8107 90.6291L65.1834 83.4915C63.2199 82.2862 60.7802 82.2863 58.8166 83.4915L47.1894 90.6291C45.2221 91.8366 44 94.0886 44 96.5061V110.77C44 113.188 45.2221 115.44 47.1893 116.647L58.8166 123.785C60.7805 124.99 63.2201 124.99 65.1834 123.785L76.8106 116.647C78.7779 115.44 80 113.188 80 110.77V96.5061C80 94.0887 78.7779 91.8367 76.8107 90.6291ZM76.9099 110.77C76.9099 112.015 76.2804 113.175 75.267 113.797L63.6397 120.935C62.6282 121.556 61.3717 121.556 60.3602 120.935L48.7329 113.797C47.7196 113.175 47.0901 112.015 47.0901 110.77V96.5061C47.0901 95.2609 47.7196 94.1009 48.733 93.4789L60.3602 86.3414C61.3718 85.7204 62.6287 85.7206 63.6398 86.3414L75.2671 93.4789C76.2804 94.1009 76.9099 95.2608 76.9099 96.5061V110.77Z" fill="#FFA114"/>
<path d="M120.811 90.6291L109.183 83.4915C107.22 82.2862 104.78 82.2863 102.817 83.4915L91.1894 90.6291C89.2221 91.8366 88 94.0886 88 96.5061V110.77C88 113.188 89.2221 115.44 91.1893 116.647L102.817 123.785C104.78 124.99 107.22 124.99 109.183 123.785L120.811 116.647C122.778 115.44 124 113.188 124 110.77V96.5061C124 94.0887 122.778 91.8367 120.811 90.6291ZM120.91 110.77C120.91 112.015 120.28 113.175 119.267 113.797L107.64 120.935C106.628 121.556 105.372 121.556 104.36 120.935L92.7329 113.797C91.7196 113.175 91.0901 112.015 91.0901 110.77V96.5061C91.0901 95.2609 91.7196 94.1009 92.733 93.4789L104.36 86.3414C105.372 85.7204 106.629 85.7206 107.64 86.3414L119.267 93.4789C120.28 94.1009 120.91 95.2608 120.91 96.5061V110.77Z" fill="#FFA114"/>
<path d="M164.811 90.6291L153.183 83.4915C151.22 82.2862 148.78 82.2863 146.817 83.4915L135.189 90.6291C133.222 91.8366 132 94.0886 132 96.5061V110.77C132 113.188 133.222 115.44 135.189 116.647L146.817 123.785C148.78 124.99 151.22 124.99 153.183 123.785L164.811 116.647C166.778 115.44 168 113.188 168 110.77V96.5061C168 94.0887 166.778 91.8367 164.811 90.6291ZM164.91 110.77C164.91 112.015 164.28 113.175 163.267 113.797L151.64 120.935C150.628 121.556 149.372 121.556 148.36 120.935L136.733 113.797C135.72 113.175 135.09 112.015 135.09 110.77V96.5061C135.09 95.2609 135.72 94.1009 136.733 93.4789L148.36 86.3414C149.372 85.7204 150.629 85.7206 151.64 86.3414L163.267 93.4789C164.28 94.1009 164.91 95.2608 164.91 96.5061V110.77Z" fill="#FFA114"/>
<path d="M208.811 90.6291L197.183 83.4915C195.22 82.2862 192.78 82.2863 190.817 83.4915L179.189 90.6291C177.222 91.8366 176 94.0886 176 96.5061V110.77C176 113.188 177.222 115.44 179.189 116.647L190.817 123.785C192.78 124.99 195.22 124.99 197.183 123.785L208.811 116.647C210.778 115.44 212 113.188 212 110.77V96.5061C212 94.0887 210.778 91.8367 208.811 90.6291ZM208.91 110.77C208.91 112.015 208.28 113.175 207.267 113.797L195.64 120.935C194.628 121.556 193.372 121.556 192.36 120.935L180.733 113.797C179.72 113.175 179.09 112.015 179.09 110.77V96.5061C179.09 95.2609 179.72 94.1009 180.733 93.4789L192.36 86.3414C193.372 85.7204 194.629 85.7206 195.64 86.3414L207.267 93.4789C208.28 94.1009 208.91 95.2608 208.91 96.5061V110.77Z" fill="#FFA114" fill-opacity="0.3"/>
<path d="M53.7969 12.7852L47.5566 33H40.9297L50.334 7.40625H54.5352L53.7969 12.7852ZM58.9648 33L52.707 12.7852L51.8984 7.40625H56.1523L65.6094 33H58.9648ZM58.7188 23.4551V28.2188H45.5879V23.4551H58.7188ZM73.1855 18.6914V33H67.2617V13.9805H72.7988L73.1855 18.6914ZM78.8105 13.8398L78.7051 19.3418C78.4707 19.3184 78.1543 19.2891 77.7559 19.2539C77.3574 19.2188 77.0234 19.2012 76.7539 19.2012C76.0625 19.2012 75.4648 19.2832 74.9609 19.4473C74.4688 19.5996 74.0586 19.834 73.7305 20.1504C73.4141 20.4551 73.1797 20.8418 73.0273 21.3105C72.8867 21.7793 72.8223 22.3242 72.834 22.9453L71.7617 22.2422C71.7617 20.9648 71.8848 19.8047 72.1309 18.7617C72.3887 17.707 72.752 16.7988 73.2207 16.0371C73.6895 15.2637 74.2578 14.6719 74.9258 14.2617C75.5938 13.8398 76.3438 13.6289 77.1758 13.6289C77.4688 13.6289 77.7559 13.6465 78.0371 13.6816C78.3301 13.7168 78.5879 13.7695 78.8105 13.8398ZM91.4316 28.6406V6H97.3906V33H92.0469L91.4316 28.6406ZM79.7598 23.7188V23.3496C79.7598 21.9082 79.918 20.5957 80.2344 19.4121C80.5508 18.2168 81.0195 17.1914 81.6406 16.3359C82.2617 15.4688 83.0352 14.8008 83.9609 14.332C84.8867 13.8633 85.9531 13.6289 87.1602 13.6289C88.2383 13.6289 89.1816 13.8809 89.9902 14.3848C90.7988 14.877 91.4902 15.5684 92.0645 16.459C92.6387 17.3496 93.1074 18.3926 93.4707 19.5879C93.834 20.7715 94.1094 22.0488 94.2969 23.4199V23.8594C94.1094 25.1484 93.834 26.3672 93.4707 27.5156C93.1074 28.6523 92.6387 29.6602 92.0645 30.5391C91.4902 31.418 90.793 32.1094 89.9727 32.6133C89.1641 33.1055 88.2148 33.3516 87.125 33.3516C85.918 33.3516 84.8516 33.1113 83.9258 32.6309C83.0117 32.1504 82.2441 31.4766 81.623 30.6094C81.0137 29.7422 80.5508 28.7227 80.2344 27.5508C79.918 26.3789 79.7598 25.1016 79.7598 23.7188ZM85.6836 23.3496V23.7188C85.6836 24.4336 85.7305 25.0957 85.8242 25.7051C85.918 26.3145 86.0762 26.8535 86.2988 27.3223C86.5332 27.7793 86.8379 28.1367 87.2129 28.3945C87.5996 28.6523 88.0742 28.7812 88.6367 28.7812C89.3984 28.7812 90.0254 28.5996 90.5176 28.2363C91.0215 27.873 91.3906 27.3574 91.625 26.6895C91.8711 26.0215 91.9766 25.2363 91.9414 24.334V22.9453C91.9648 22.1719 91.9121 21.4922 91.7832 20.9062C91.6543 20.3086 91.4492 19.8105 91.168 19.4121C90.8984 19.0137 90.5527 18.7148 90.1309 18.5156C89.7207 18.3047 89.2344 18.1992 88.6719 18.1992C88.1211 18.1992 87.6523 18.3281 87.2656 18.5859C86.8906 18.8438 86.5859 19.207 86.3516 19.6758C86.1172 20.1328 85.9473 20.6777 85.8418 21.3105C85.7363 21.9316 85.6836 22.6113 85.6836 23.3496ZM111.857 28.377V13.9805H117.799V33H112.244L111.857 28.377ZM112.42 24.5098L113.967 24.4746C113.967 25.752 113.814 26.9355 113.51 28.0254C113.205 29.1035 112.754 30.041 112.156 30.8379C111.57 31.6348 110.844 32.2559 109.977 32.7012C109.121 33.1348 108.131 33.3516 107.006 33.3516C106.068 33.3516 105.207 33.2227 104.422 32.9648C103.648 32.6953 102.98 32.2793 102.418 31.7168C101.855 31.1426 101.416 30.4102 101.1 29.5195C100.795 28.6172 100.643 27.5391 100.643 26.2852V13.9805H106.566V26.3203C106.566 26.7422 106.619 27.1055 106.725 27.4102C106.83 27.7148 106.982 27.9727 107.182 28.1836C107.381 28.3828 107.627 28.5352 107.92 28.6406C108.225 28.7344 108.57 28.7812 108.957 28.7812C109.848 28.7812 110.545 28.5938 111.049 28.2188C111.553 27.8438 111.904 27.334 112.104 26.6895C112.314 26.0449 112.42 25.3184 112.42 24.5098ZM127.326 13.9805V33H121.385V13.9805H127.326ZM121.033 9.07617C121.033 8.23242 121.338 7.54102 121.947 7.00195C122.557 6.46289 123.348 6.19336 124.32 6.19336C125.293 6.19336 126.084 6.46289 126.693 7.00195C127.303 7.54102 127.607 8.23242 127.607 9.07617C127.607 9.91992 127.303 10.6113 126.693 11.1504C126.084 11.6895 125.293 11.959 124.32 11.959C123.348 11.959 122.557 11.6895 121.947 11.1504C121.338 10.6113 121.033 9.91992 121.033 9.07617ZM136.801 18.041V33H130.877V13.9805H136.432L136.801 18.041ZM136.098 22.8398L134.709 22.875C134.709 21.4219 134.885 20.127 135.236 18.9902C135.588 17.8418 136.086 16.8691 136.73 16.0723C137.375 15.2754 138.143 14.6719 139.033 14.2617C139.936 13.8398 140.938 13.6289 142.039 13.6289C142.918 13.6289 143.721 13.7578 144.447 14.0156C145.186 14.2734 145.818 14.6895 146.346 15.2637C146.885 15.8379 147.295 16.5996 147.576 17.5488C147.869 18.4863 148.016 19.6465 148.016 21.0293V33H142.057V21.0117C142.057 20.25 141.951 19.6699 141.74 19.2715C141.529 18.8613 141.225 18.5801 140.826 18.4277C140.428 18.2754 139.941 18.1992 139.367 18.1992C138.758 18.1992 138.242 18.3164 137.82 18.5508C137.398 18.7852 137.059 19.1133 136.801 19.5352C136.555 19.9453 136.373 20.4316 136.256 20.9941C136.15 21.5566 136.098 22.1719 136.098 22.8398ZM150.564 23.6836V23.3145C150.564 21.9199 150.764 20.6367 151.162 19.4648C151.561 18.2812 152.146 17.2559 152.92 16.3887C153.693 15.5215 154.648 14.8477 155.785 14.3672C156.922 13.875 158.234 13.6289 159.723 13.6289C161.223 13.6289 162.541 13.875 163.678 14.3672C164.826 14.8477 165.787 15.5215 166.561 16.3887C167.334 17.2559 167.92 18.2812 168.318 19.4648C168.717 20.6367 168.916 21.9199 168.916 23.3145V23.6836C168.916 25.0664 168.717 26.3496 168.318 27.5332C167.92 28.7051 167.334 29.7305 166.561 30.6094C165.787 31.4766 164.832 32.1504 163.695 32.6309C162.559 33.1113 161.246 33.3516 159.758 33.3516C158.27 33.3516 156.951 33.1113 155.803 32.6309C154.654 32.1504 153.693 31.4766 152.92 30.6094C152.146 29.7305 151.561 28.7051 151.162 27.5332C150.764 26.3496 150.564 25.0664 150.564 23.6836ZM156.488 23.3145V23.6836C156.488 24.3984 156.541 25.0664 156.646 25.6875C156.752 26.3086 156.928 26.8535 157.174 27.3223C157.42 27.7793 157.754 28.1367 158.176 28.3945C158.598 28.6523 159.125 28.7812 159.758 28.7812C160.379 28.7812 160.895 28.6523 161.305 28.3945C161.727 28.1367 162.061 27.7793 162.307 27.3223C162.553 26.8535 162.729 26.3086 162.834 25.6875C162.939 25.0664 162.992 24.3984 162.992 23.6836V23.3145C162.992 22.623 162.939 21.9727 162.834 21.3633C162.729 20.7422 162.553 20.1973 162.307 19.7285C162.061 19.248 161.727 18.873 161.305 18.6035C160.883 18.334 160.355 18.1992 159.723 18.1992C159.102 18.1992 158.58 18.334 158.158 18.6035C157.748 18.873 157.42 19.248 157.174 19.7285C156.928 20.1973 156.752 20.7422 156.646 21.3633C156.541 21.9727 156.488 22.623 156.488 23.3145Z" fill="#1E1E1E"/>
</svg>
