<svg width="212" height="125" viewBox="0 0 212 125" fill="none" xmlns="http://www.w3.org/2000/svg">
<path d="M32.8107 90.629L21.1834 83.4915C19.2199 82.2862 16.7802 82.2863 14.8166 83.4915L3.1894 90.629C1.22207 91.8366 0 94.0886 0 96.5061V110.77C0 113.188 1.22207 115.44 3.18932 116.647L14.8166 123.785C16.7805 124.99 19.2201 124.99 21.1834 123.785L32.8106 116.647C34.7779 115.44 36 113.188 36 110.77V96.5061C36 94.0887 34.7779 91.8367 32.8107 90.629ZM32.9099 110.77C32.9099 112.015 32.2804 113.175 31.267 113.797L19.6397 120.935C18.6282 121.556 17.3717 121.556 16.3602 120.935L4.73292 113.797C3.71959 113.175 3.09013 112.015 3.09013 110.77V96.5061C3.09013 95.2609 3.71959 94.1009 4.733 93.4789L16.3602 86.3414C17.3718 85.7204 18.6287 85.7206 19.6398 86.3414L31.2671 93.4788C32.2804 94.1009 32.9099 95.2608 32.9099 96.5061V110.77Z" fill="#FFA114"/>
<path d="M76.8107 90.629L65.1834 83.4915C63.2199 82.2862 60.7802 82.2863 58.8166 83.4915L47.1894 90.629C45.2221 91.8366 44 94.0886 44 96.5061V110.77C44 113.188 45.2221 115.44 47.1893 116.647L58.8166 123.785C60.7805 124.99 63.2201 124.99 65.1834 123.785L76.8106 116.647C78.7779 115.44 80 113.188 80 110.77V96.5061C80 94.0887 78.7779 91.8367 76.8107 90.629ZM76.9099 110.77C76.9099 112.015 76.2804 113.175 75.267 113.797L63.6397 120.935C62.6282 121.556 61.3717 121.556 60.3602 120.935L48.7329 113.797C47.7196 113.175 47.0901 112.015 47.0901 110.77V96.5061C47.0901 95.2609 47.7196 94.1009 48.733 93.4789L60.3602 86.3414C61.3718 85.7204 62.6287 85.7206 63.6398 86.3414L75.2671 93.4788C76.2804 94.1009 76.9099 95.2608 76.9099 96.5061V110.77Z" fill="#FFA114"/>
<path d="M120.811 90.629L109.183 83.4915C107.22 82.2862 104.78 82.2863 102.817 83.4915L91.1894 90.629C89.2221 91.8366 88 94.0886 88 96.5061V110.77C88 113.188 89.2221 115.44 91.1893 116.647L102.817 123.785C104.78 124.99 107.22 124.99 109.183 123.785L120.811 116.647C122.778 115.44 124 113.188 124 110.77V96.5061C124 94.0887 122.778 91.8367 120.811 90.629ZM120.91 110.77C120.91 112.015 120.28 113.175 119.267 113.797L107.64 120.935C106.628 121.556 105.372 121.556 104.36 120.935L92.7329 113.797C91.7196 113.175 91.0901 112.015 91.0901 110.77V96.5061C91.0901 95.2609 91.7196 94.1009 92.733 93.4789L104.36 86.3414C105.372 85.7204 106.629 85.7206 107.64 86.3414L119.267 93.4788C120.28 94.1009 120.91 95.2608 120.91 96.5061V110.77Z" fill="#FFA114"/>
<path d="M164.811 90.629L153.183 83.4915C151.22 82.2862 148.78 82.2863 146.817 83.4915L135.189 90.629C133.222 91.8366 132 94.0886 132 96.5061V110.77C132 113.188 133.222 115.44 135.189 116.647L146.817 123.785C148.78 124.99 151.22 124.99 153.183 123.785L164.811 116.647C166.778 115.44 168 113.188 168 110.77V96.5061C168 94.0887 166.778 91.8367 164.811 90.629ZM164.91 110.77C164.91 112.015 164.28 113.175 163.267 113.797L151.64 120.935C150.628 121.556 149.372 121.556 148.36 120.935L136.733 113.797C135.72 113.175 135.09 112.015 135.09 110.77V96.5061C135.09 95.2609 135.72 94.1009 136.733 93.4789L148.36 86.3414C149.372 85.7204 150.629 85.7206 151.64 86.3414L163.267 93.4788C164.28 94.1009 164.91 95.2608 164.91 96.5061V110.77Z" fill="#FFA114"/>
<path d="M208.811 90.629L197.183 83.4915C195.22 82.2862 192.78 82.2863 190.817 83.4915L179.189 90.629C177.222 91.8366 176 94.0886 176 96.5061V110.77C176 113.188 177.222 115.44 179.189 116.647L190.817 123.785C192.78 124.99 195.22 124.99 197.183 123.785L208.811 116.647C210.778 115.44 212 113.188 212 110.77V96.5061C212 94.0887 210.778 91.8367 208.811 90.629ZM208.91 110.77C208.91 112.015 208.28 113.175 207.267 113.797L195.64 120.935C194.628 121.556 193.372 121.556 192.36 120.935L180.733 113.797C179.72 113.175 179.09 112.015 179.09 110.77V96.5061C179.09 95.2609 179.72 94.1009 180.733 93.4789L192.36 86.3414C193.372 85.7204 194.629 85.7206 195.64 86.3414L207.267 93.4788C208.28 94.1009 208.91 95.2608 208.91 96.5061V110.77Z" fill="#FFA114" fill-opacity="0.3"/>
<path d="M90.5059 24.334H96.6582C96.5762 26.1152 96.0957 27.6855 95.2168 29.0449C94.3379 30.4043 93.1191 31.4648 91.5605 32.2266C90.0137 32.9766 88.1855 33.3516 86.0762 33.3516C84.3652 33.3516 82.8359 33.0645 81.4883 32.4902C80.1523 31.916 79.0156 31.0898 78.0781 30.0117C77.1523 28.9336 76.4434 27.627 75.9512 26.0918C75.4707 24.5566 75.2305 22.8281 75.2305 20.9062V19.5176C75.2305 17.5957 75.4824 15.8672 75.9863 14.332C76.502 12.7852 77.2285 11.4727 78.166 10.3945C79.1152 9.30469 80.252 8.47266 81.5762 7.89844C82.9004 7.32422 84.3711 7.03711 85.9883 7.03711C88.2148 7.03711 90.0957 7.43555 91.6309 8.23242C93.166 9.0293 94.3555 10.125 95.1992 11.5195C96.043 12.9023 96.541 14.4785 96.6934 16.248H90.541C90.5176 15.2871 90.3535 14.4844 90.0488 13.8398C89.7441 13.1836 89.2637 12.6914 88.6074 12.3633C87.9512 12.0352 87.0781 11.8711 85.9883 11.8711C85.2266 11.8711 84.5645 12.0117 84.002 12.293C83.4395 12.5742 82.9707 13.0195 82.5957 13.6289C82.2207 14.2383 81.9395 15.0293 81.752 16.002C81.5762 16.9629 81.4883 18.123 81.4883 19.4824V20.9062C81.4883 22.2656 81.5703 23.4258 81.7344 24.3867C81.8984 25.3477 82.1621 26.1328 82.5254 26.7422C82.8887 27.3516 83.3574 27.8027 83.9316 28.0957C84.5176 28.377 85.2324 28.5176 86.0762 28.5176C87.0137 28.5176 87.8047 28.3711 88.4492 28.0781C89.0938 27.7734 89.5918 27.3164 89.9434 26.707C90.2949 26.0859 90.4824 25.2949 90.5059 24.334ZM115.959 18.4805V23.5605H98.416V18.4805H115.959ZM109.982 11.8008V30.4336H104.445V11.8008H109.982ZM135.189 18.4805V23.5605H117.646V18.4805H135.189ZM129.213 11.8008V30.4336H123.676V11.8008H129.213Z" fill="#1E1E1E"/>
</svg>
