<svg width="212" height="123" viewBox="0 0 212 123" fill="none" xmlns="http://www.w3.org/2000/svg">
<path d="M32.8107 88.6291L21.1834 81.4915C19.2199 80.2862 16.7802 80.2863 14.8166 81.4915L3.1894 88.6291C1.22207 89.8366 0 92.0886 0 94.5061V108.77C0 111.188 1.22207 113.44 3.18932 114.647L14.8166 121.785C16.7805 122.99 19.2201 122.99 21.1834 121.785L32.8106 114.647C34.7779 113.44 36 111.188 36 108.77V94.5061C36 92.0887 34.7779 89.8367 32.8107 88.6291ZM32.9099 108.77C32.9099 110.015 32.2804 111.175 31.267 111.797L19.6397 118.935C18.6282 119.556 17.3717 119.556 16.3602 118.935L4.73292 111.797C3.71959 111.175 3.09013 110.015 3.09013 108.77V94.5061C3.09013 93.2609 3.71959 92.1009 4.733 91.4789L16.3602 84.3414C17.3718 83.7204 18.6287 83.7206 19.6398 84.3414L31.2671 91.4789C32.2804 92.1009 32.9099 93.2608 32.9099 94.5061V108.77Z" fill="#FFA114"/>
<path d="M76.8107 88.6291L65.1834 81.4915C63.2199 80.2862 60.7802 80.2863 58.8166 81.4915L47.1894 88.6291C45.2221 89.8366 44 92.0886 44 94.5061V108.77C44 111.188 45.2221 113.44 47.1893 114.647L58.8166 121.785C60.7805 122.99 63.2201 122.99 65.1834 121.785L76.8106 114.647C78.7779 113.44 80 111.188 80 108.77V94.5061C80 92.0887 78.7779 89.8367 76.8107 88.6291ZM76.9099 108.77C76.9099 110.015 76.2804 111.175 75.267 111.797L63.6397 118.935C62.6282 119.556 61.3717 119.556 60.3602 118.935L48.7329 111.797C47.7196 111.175 47.0901 110.015 47.0901 108.77V94.5061C47.0901 93.2609 47.7196 92.1009 48.733 91.4789L60.3602 84.3414C61.3718 83.7204 62.6287 83.7206 63.6398 84.3414L75.2671 91.4789C76.2804 92.1009 76.9099 93.2608 76.9099 94.5061V108.77Z" fill="#FFA114"/>
<path d="M120.811 88.6291L109.183 81.4915C107.22 80.2862 104.78 80.2863 102.817 81.4915L91.1894 88.6291C89.2221 89.8366 88 92.0886 88 94.5061V108.77C88 111.188 89.2221 113.44 91.1893 114.647L102.817 121.785C104.78 122.99 107.22 122.99 109.183 121.785L120.811 114.647C122.778 113.44 124 111.188 124 108.77V94.5061C124 92.0887 122.778 89.8367 120.811 88.6291ZM120.91 108.77C120.91 110.015 120.28 111.175 119.267 111.797L107.64 118.935C106.628 119.556 105.372 119.556 104.36 118.935L92.7329 111.797C91.7196 111.175 91.0901 110.015 91.0901 108.77V94.5061C91.0901 93.2609 91.7196 92.1009 92.733 91.4789L104.36 84.3414C105.372 83.7204 106.629 83.7206 107.64 84.3414L119.267 91.4789C120.28 92.1009 120.91 93.2608 120.91 94.5061V108.77Z" fill="#FFA114"/>
<path d="M164.811 88.6291L153.183 81.4915C151.22 80.2862 148.78 80.2863 146.817 81.4915L135.189 88.6291C133.222 89.8366 132 92.0886 132 94.5061V108.77C132 111.188 133.222 113.44 135.189 114.647L146.817 121.785C148.78 122.99 151.22 122.99 153.183 121.785L164.811 114.647C166.778 113.44 168 111.188 168 108.77V94.5061C168 92.0887 166.778 89.8367 164.811 88.6291ZM164.91 108.77C164.91 110.015 164.28 111.175 163.267 111.797L151.64 118.935C150.628 119.556 149.372 119.556 148.36 118.935L136.733 111.797C135.72 111.175 135.09 110.015 135.09 108.77V94.5061C135.09 93.2609 135.72 92.1009 136.733 91.4789L148.36 84.3414C149.372 83.7204 150.629 83.7206 151.64 84.3414L163.267 91.4789C164.28 92.1009 164.91 93.2608 164.91 94.5061V108.77Z" fill="#FFA114" fill-opacity="0.3"/>
<path d="M208.811 88.6291L197.183 81.4915C195.22 80.2862 192.78 80.2863 190.817 81.4915L179.189 88.6291C177.222 89.8366 176 92.0886 176 94.5061V108.77C176 111.188 177.222 113.44 179.189 114.647L190.817 121.785C192.78 122.99 195.22 122.99 197.183 121.785L208.811 114.647C210.778 113.44 212 111.188 212 108.77V94.5061C212 92.0887 210.778 89.8367 208.811 88.6291ZM208.91 108.77C208.91 110.015 208.28 111.175 207.267 111.797L195.64 118.935C194.628 119.556 193.372 119.556 192.36 118.935L180.733 111.797C179.72 111.175 179.09 110.015 179.09 108.77V94.5061C179.09 93.2609 179.72 92.1009 180.733 91.4789L192.36 84.3414C193.372 83.7204 194.629 83.7206 195.64 84.3414L207.267 91.4789C208.28 92.1009 208.91 93.2608 208.91 94.5061V108.77Z" fill="#FFA114" fill-opacity="0.3"/>
<path d="M110.506 24.334H116.658C116.576 26.1152 116.096 27.6855 115.217 29.0449C114.338 30.4043 113.119 31.4648 111.561 32.2266C110.014 32.9766 108.186 33.3516 106.076 33.3516C104.365 33.3516 102.836 33.0645 101.488 32.4902C100.152 31.916 99.0156 31.0898 98.0781 30.0117C97.1523 28.9336 96.4434 27.627 95.9512 26.0918C95.4707 24.5566 95.2305 22.8281 95.2305 20.9062V19.5176C95.2305 17.5957 95.4824 15.8672 95.9863 14.332C96.502 12.7852 97.2285 11.4727 98.166 10.3945C99.1152 9.30469 100.252 8.47266 101.576 7.89844C102.9 7.32422 104.371 7.03711 105.988 7.03711C108.215 7.03711 110.096 7.43555 111.631 8.23242C113.166 9.0293 114.355 10.125 115.199 11.5195C116.043 12.9023 116.541 14.4785 116.693 16.248H110.541C110.518 15.2871 110.354 14.4844 110.049 13.8398C109.744 13.1836 109.264 12.6914 108.607 12.3633C107.951 12.0352 107.078 11.8711 105.988 11.8711C105.227 11.8711 104.564 12.0117 104.002 12.293C103.439 12.5742 102.971 13.0195 102.596 13.6289C102.221 14.2383 101.939 15.0293 101.752 16.002C101.576 16.9629 101.488 18.123 101.488 19.4824V20.9062C101.488 22.2656 101.57 23.4258 101.734 24.3867C101.898 25.3477 102.162 26.1328 102.525 26.7422C102.889 27.3516 103.357 27.8027 103.932 28.0957C104.518 28.377 105.232 28.5176 106.076 28.5176C107.014 28.5176 107.805 28.3711 108.449 28.0781C109.094 27.7734 109.592 27.3164 109.943 26.707C110.295 26.0859 110.482 25.2949 110.506 24.334Z" fill="#1E1E1E"/>
</svg>
