<svg width="212" height="123" viewBox="0 0 212 123" fill="none" xmlns="http://www.w3.org/2000/svg">
<path d="M32.8107 88.6291L21.1834 81.4915C19.2199 80.2862 16.7802 80.2863 14.8166 81.4915L3.1894 88.6291C1.22207 89.8366 0 92.0886 0 94.5061V108.77C0 111.188 1.22207 113.44 3.18932 114.647L14.8166 121.785C16.7805 122.99 19.2201 122.99 21.1834 121.785L32.8106 114.647C34.7779 113.44 36 111.188 36 108.77V94.5061C36 92.0887 34.7779 89.8367 32.8107 88.6291ZM32.9099 108.77C32.9099 110.015 32.2804 111.175 31.267 111.797L19.6397 118.935C18.6282 119.556 17.3717 119.556 16.3602 118.935L4.73292 111.797C3.71959 111.175 3.09013 110.015 3.09013 108.77V94.5061C3.09013 93.2609 3.71959 92.1009 4.733 91.4789L16.3602 84.3414C17.3718 83.7204 18.6287 83.7206 19.6398 84.3414L31.2671 91.4789C32.2804 92.1009 32.9099 93.2608 32.9099 94.5061V108.77Z" fill="#FFA114"/>
<path d="M76.8107 88.6291L65.1834 81.4915C63.2199 80.2862 60.7802 80.2863 58.8166 81.4915L47.1894 88.6291C45.2221 89.8366 44 92.0886 44 94.5061V108.77C44 111.188 45.2221 113.44 47.1893 114.647L58.8166 121.785C60.7805 122.99 63.2201 122.99 65.1834 121.785L76.8106 114.647C78.7779 113.44 80 111.188 80 108.77V94.5061C80 92.0887 78.7779 89.8367 76.8107 88.6291ZM76.9099 108.77C76.9099 110.015 76.2804 111.175 75.267 111.797L63.6397 118.935C62.6282 119.556 61.3717 119.556 60.3602 118.935L48.7329 111.797C47.7196 111.175 47.0901 110.015 47.0901 108.77V94.5061C47.0901 93.2609 47.7196 92.1009 48.733 91.4789L60.3602 84.3414C61.3718 83.7204 62.6287 83.7206 63.6398 84.3414L75.2671 91.4789C76.2804 92.1009 76.9099 93.2608 76.9099 94.5061V108.77Z" fill="#FFA114"/>
<path d="M120.811 88.6291L109.183 81.4915C107.22 80.2862 104.78 80.2863 102.817 81.4915L91.1894 88.6291C89.2221 89.8366 88 92.0886 88 94.5061V108.77C88 111.188 89.2221 113.44 91.1893 114.647L102.817 121.785C104.78 122.99 107.22 122.99 109.183 121.785L120.811 114.647C122.778 113.44 124 111.188 124 108.77V94.5061C124 92.0887 122.778 89.8367 120.811 88.6291ZM120.91 108.77C120.91 110.015 120.28 111.175 119.267 111.797L107.64 118.935C106.628 119.556 105.372 119.556 104.36 118.935L92.7329 111.797C91.7196 111.175 91.0901 110.015 91.0901 108.77V94.5061C91.0901 93.2609 91.7196 92.1009 92.733 91.4789L104.36 84.3414C105.372 83.7204 106.629 83.7206 107.64 84.3414L119.267 91.4789C120.28 92.1009 120.91 93.2608 120.91 94.5061V108.77Z" fill="#FFA114"/>
<path d="M164.811 88.6291L153.183 81.4915C151.22 80.2862 148.78 80.2863 146.817 81.4915L135.189 88.6291C133.222 89.8366 132 92.0886 132 94.5061V108.77C132 111.188 133.222 113.44 135.189 114.647L146.817 121.785C148.78 122.99 151.22 122.99 153.183 121.785L164.811 114.647C166.778 113.44 168 111.188 168 108.77V94.5061C168 92.0887 166.778 89.8367 164.811 88.6291ZM164.91 108.77C164.91 110.015 164.28 111.175 163.267 111.797L151.64 118.935C150.628 119.556 149.372 119.556 148.36 118.935L136.733 111.797C135.72 111.175 135.09 110.015 135.09 108.77V94.5061C135.09 93.2609 135.72 92.1009 136.733 91.4789L148.36 84.3414C149.372 83.7204 150.629 83.7206 151.64 84.3414L163.267 91.4789C164.28 92.1009 164.91 93.2608 164.91 94.5061V108.77Z" fill="#FFA114" fill-opacity="0.3"/>
<path d="M208.811 88.6291L197.183 81.4915C195.22 80.2862 192.78 80.2863 190.817 81.4915L179.189 88.6291C177.222 89.8366 176 92.0886 176 94.5061V108.77C176 111.188 177.222 113.44 179.189 114.647L190.817 121.785C192.78 122.99 195.22 122.99 197.183 121.785L208.811 114.647C210.778 113.44 212 111.188 212 108.77V94.5061C212 92.0887 210.778 89.8367 208.811 88.6291ZM208.91 108.77C208.91 110.015 208.28 111.175 207.267 111.797L195.64 118.935C194.628 119.556 193.372 119.556 192.36 118.935L180.733 111.797C179.72 111.175 179.09 110.015 179.09 108.77V94.5061C179.09 93.2609 179.72 92.1009 180.733 91.4789L192.36 84.3414C193.372 83.7204 194.629 83.7206 195.64 84.3414L207.267 91.4789C208.28 92.1009 208.91 93.2608 208.91 94.5061V108.77Z" fill="#FFA114" fill-opacity="0.3"/>
<path d="M31.1953 17.5664V22.3125H18.0645V17.5664H31.1953ZM20.1211 7.40625V33H13.9512V7.40625H20.1211ZM35.3438 7.40625V33H29.1914V7.40625H35.3438ZM51.1289 7.40625V33H44.959V7.40625H51.1289ZM58.8281 7.40625V12.1699H37.4355V7.40625H58.8281ZM64.5059 7.40625H69.5332L75.2461 25.2129L80.959 7.40625H85.9863L77.2852 33H73.207L64.5059 7.40625ZM61.4473 7.40625H66.6504L67.6172 27.0234V33H61.4473V7.40625ZM83.8418 7.40625H89.0625V33H82.875V27.0234L83.8418 7.40625ZM109.928 28.2539V33H96.9902V28.2539H109.928ZM99.1875 7.40625V33H93.0176V7.40625H99.1875ZM132.006 7.40625L123.252 35.1973H119.033L127.787 7.40625H132.006ZM157.67 24.334H163.822C163.74 26.1152 163.26 27.6855 162.381 29.0449C161.502 30.4043 160.283 31.4648 158.725 32.2266C157.178 32.9766 155.35 33.3516 153.24 33.3516C151.529 33.3516 150 33.0645 148.652 32.4902C147.316 31.916 146.18 31.0898 145.242 30.0117C144.316 28.9336 143.607 27.627 143.115 26.0918C142.635 24.5566 142.395 22.8281 142.395 20.9062V19.5176C142.395 17.5957 142.646 15.8672 143.15 14.332C143.666 12.7852 144.393 11.4727 145.33 10.3945C146.279 9.30469 147.416 8.47266 148.74 7.89844C150.064 7.32422 151.535 7.03711 153.152 7.03711C155.379 7.03711 157.26 7.43555 158.795 8.23242C160.33 9.0293 161.52 10.125 162.363 11.5195C163.207 12.9023 163.705 14.4785 163.857 16.248H157.705C157.682 15.2871 157.518 14.4844 157.213 13.8398C156.908 13.1836 156.428 12.6914 155.771 12.3633C155.115 12.0352 154.242 11.8711 153.152 11.8711C152.391 11.8711 151.729 12.0117 151.166 12.293C150.604 12.5742 150.135 13.0195 149.76 13.6289C149.385 14.2383 149.104 15.0293 148.916 16.002C148.74 16.9629 148.652 18.123 148.652 19.4824V20.9062C148.652 22.2656 148.734 23.4258 148.898 24.3867C149.062 25.3477 149.326 26.1328 149.689 26.7422C150.053 27.3516 150.521 27.8027 151.096 28.0957C151.682 28.377 152.396 28.5176 153.24 28.5176C154.178 28.5176 154.969 28.3711 155.613 28.0781C156.258 27.7734 156.756 27.3164 157.107 26.707C157.459 26.0859 157.646 25.2949 157.67 24.334ZM179.924 26.1973C179.924 25.7988 179.865 25.4414 179.748 25.125C179.631 24.7969 179.414 24.4922 179.098 24.2109C178.781 23.9297 178.324 23.6484 177.727 23.3672C177.141 23.0742 176.367 22.7695 175.406 22.4531C174.281 22.0781 173.197 21.6562 172.154 21.1875C171.111 20.707 170.18 20.1504 169.359 19.5176C168.539 18.873 167.889 18.123 167.408 17.2676C166.928 16.4004 166.688 15.3926 166.688 14.2441C166.688 13.1426 166.934 12.1523 167.426 11.2734C167.918 10.3828 168.604 9.62695 169.482 9.00586C170.373 8.37305 171.416 7.89258 172.611 7.56445C173.807 7.22461 175.113 7.05469 176.531 7.05469C178.406 7.05469 180.059 7.38281 181.488 8.03906C182.93 8.68359 184.055 9.60352 184.863 10.7988C185.684 11.9824 186.094 13.3828 186.094 15H179.959C179.959 14.3555 179.824 13.7871 179.555 13.2949C179.297 12.8027 178.904 12.416 178.377 12.1348C177.85 11.8535 177.188 11.7129 176.391 11.7129C175.617 11.7129 174.967 11.8301 174.439 12.0645C173.912 12.2988 173.514 12.6152 173.244 13.0137C172.975 13.4004 172.84 13.8281 172.84 14.2969C172.84 14.6836 172.945 15.0352 173.156 15.3516C173.379 15.6562 173.689 15.9434 174.088 16.2129C174.498 16.4824 174.99 16.7402 175.564 16.9863C176.15 17.2324 176.807 17.4727 177.533 17.707C178.893 18.1406 180.1 18.627 181.154 19.166C182.221 19.6934 183.117 20.2969 183.844 20.9766C184.582 21.6445 185.139 22.4062 185.514 23.2617C185.9 24.1172 186.094 25.084 186.094 26.1621C186.094 27.3105 185.871 28.3301 185.426 29.2207C184.98 30.1113 184.342 30.8672 183.51 31.4883C182.678 32.0977 181.682 32.5605 180.521 32.877C179.361 33.1934 178.066 33.3516 176.637 33.3516C175.324 33.3516 174.029 33.1875 172.752 32.8594C171.486 32.5195 170.338 32.0039 169.307 31.3125C168.275 30.6094 167.449 29.7129 166.828 28.623C166.219 27.5215 165.914 26.2148 165.914 24.7031H172.102C172.102 25.4531 172.201 26.0859 172.4 26.6016C172.6 27.1172 172.893 27.5332 173.279 27.8496C173.666 28.1543 174.141 28.377 174.703 28.5176C175.266 28.6465 175.91 28.7109 176.637 28.7109C177.422 28.7109 178.055 28.5996 178.535 28.377C179.016 28.1426 179.367 27.8379 179.59 27.4629C179.812 27.0762 179.924 26.6543 179.924 26.1973ZM202.459 26.1973C202.459 25.7988 202.4 25.4414 202.283 25.125C202.166 24.7969 201.949 24.4922 201.633 24.2109C201.316 23.9297 200.859 23.6484 200.262 23.3672C199.676 23.0742 198.902 22.7695 197.941 22.4531C196.816 22.0781 195.732 21.6562 194.689 21.1875C193.646 20.707 192.715 20.1504 191.895 19.5176C191.074 18.873 190.424 18.123 189.943 17.2676C189.463 16.4004 189.223 15.3926 189.223 14.2441C189.223 13.1426 189.469 12.1523 189.961 11.2734C190.453 10.3828 191.139 9.62695 192.018 9.00586C192.908 8.37305 193.951 7.89258 195.146 7.56445C196.342 7.22461 197.648 7.05469 199.066 7.05469C200.941 7.05469 202.594 7.38281 204.023 8.03906C205.465 8.68359 206.59 9.60352 207.398 10.7988C208.219 11.9824 208.629 13.3828 208.629 15H202.494C202.494 14.3555 202.359 13.7871 202.09 13.2949C201.832 12.8027 201.439 12.416 200.912 12.1348C200.385 11.8535 199.723 11.7129 198.926 11.7129C198.152 11.7129 197.502 11.8301 196.975 12.0645C196.447 12.2988 196.049 12.6152 195.779 13.0137C195.51 13.4004 195.375 13.8281 195.375 14.2969C195.375 14.6836 195.48 15.0352 195.691 15.3516C195.914 15.6562 196.225 15.9434 196.623 16.2129C197.033 16.4824 197.525 16.7402 198.1 16.9863C198.686 17.2324 199.342 17.4727 200.068 17.707C201.428 18.1406 202.635 18.627 203.689 19.166C204.756 19.6934 205.652 20.2969 206.379 20.9766C207.117 21.6445 207.674 22.4062 208.049 23.2617C208.436 24.1172 208.629 25.084 208.629 26.1621C208.629 27.3105 208.406 28.3301 207.961 29.2207C207.516 30.1113 206.877 30.8672 206.045 31.4883C205.213 32.0977 204.217 32.5605 203.057 32.877C201.896 33.1934 200.602 33.3516 199.172 33.3516C197.859 33.3516 196.564 33.1875 195.287 32.8594C194.021 32.5195 192.873 32.0039 191.842 31.3125C190.811 30.6094 189.984 29.7129 189.363 28.623C188.754 27.5215 188.449 26.2148 188.449 24.7031H194.637C194.637 25.4531 194.736 26.0859 194.936 26.6016C195.135 27.1172 195.428 27.5332 195.814 27.8496C196.201 28.1543 196.676 28.377 197.238 28.5176C197.801 28.6465 198.445 28.7109 199.172 28.7109C199.957 28.7109 200.59 28.5996 201.07 28.377C201.551 28.1426 201.902 27.8379 202.125 27.4629C202.348 27.0762 202.459 26.6543 202.459 26.1973Z" fill="#1E1E1E"/>
</svg>
