<svg width="212" height="125" viewBox="0 0 212 125" fill="none" xmlns="http://www.w3.org/2000/svg">
<path d="M32.8107 90.629L21.1834 83.4915C19.2199 82.2862 16.7802 82.2862 14.8166 83.4915L3.1894 90.629C1.22207 91.8366 0 94.0886 0 96.5061V110.77C0 113.188 1.22207 115.44 3.18932 116.647L14.8166 123.785C16.7805 124.99 19.2201 124.99 21.1834 123.785L32.8106 116.647C34.7779 115.44 36 113.188 36 110.77V96.5061C36 94.0886 34.7779 91.8366 32.8107 90.629ZM32.9099 110.77C32.9099 112.015 32.2804 113.175 31.267 113.797L19.6397 120.935C18.6282 121.556 17.3717 121.556 16.3602 120.935L4.73292 113.797C3.71959 113.175 3.09013 112.015 3.09013 110.77V96.5061C3.09013 95.2609 3.71959 94.1009 4.733 93.4789L16.3602 86.3414C17.3718 85.7204 18.6287 85.7206 19.6398 86.3414L31.2671 93.4788C32.2804 94.1009 32.9099 95.2608 32.9099 96.5061V110.77Z" fill="#FFA114"/>
<path d="M76.8107 90.629L65.1834 83.4915C63.2199 82.2862 60.7802 82.2862 58.8166 83.4915L47.1894 90.629C45.2221 91.8366 44 94.0886 44 96.5061V110.77C44 113.188 45.2221 115.44 47.1893 116.647L58.8166 123.785C60.7805 124.99 63.2201 124.99 65.1834 123.785L76.8106 116.647C78.7779 115.44 80 113.188 80 110.77V96.5061C80 94.0886 78.7779 91.8366 76.8107 90.629ZM76.9099 110.77C76.9099 112.015 76.2804 113.175 75.267 113.797L63.6397 120.935C62.6282 121.556 61.3717 121.556 60.3602 120.935L48.7329 113.797C47.7196 113.175 47.0901 112.015 47.0901 110.77V96.5061C47.0901 95.2609 47.7196 94.1009 48.733 93.4789L60.3602 86.3414C61.3718 85.7204 62.6287 85.7206 63.6398 86.3414L75.2671 93.4788C76.2804 94.1009 76.9099 95.2608 76.9099 96.5061V110.77Z" fill="#FFA114"/>
<path d="M120.811 90.629L109.183 83.4915C107.22 82.2862 104.78 82.2862 102.817 83.4915L91.1894 90.629C89.2221 91.8366 88 94.0886 88 96.5061V110.77C88 113.188 89.2221 115.44 91.1893 116.647L102.817 123.785C104.78 124.99 107.22 124.99 109.183 123.785L120.811 116.647C122.778 115.44 124 113.188 124 110.77V96.5061C124 94.0886 122.778 91.8366 120.811 90.629ZM120.91 110.77C120.91 112.015 120.28 113.175 119.267 113.797L107.64 120.935C106.628 121.556 105.372 121.556 104.36 120.935L92.7329 113.797C91.7196 113.175 91.0901 112.015 91.0901 110.77V96.5061C91.0901 95.2609 91.7196 94.1009 92.733 93.4789L104.36 86.3414C105.372 85.7204 106.629 85.7206 107.64 86.3414L119.267 93.4788C120.28 94.1009 120.91 95.2608 120.91 96.5061V110.77Z" fill="#FFA114"/>
<path d="M164.811 90.629L153.183 83.4915C151.22 82.2862 148.78 82.2862 146.817 83.4915L135.189 90.629C133.222 91.8366 132 94.0886 132 96.5061V110.77C132 113.188 133.222 115.44 135.189 116.647L146.817 123.785C148.78 124.99 151.22 124.99 153.183 123.785L164.811 116.647C166.778 115.44 168 113.188 168 110.77V96.5061C168 94.0886 166.778 91.8366 164.811 90.629ZM164.91 110.77C164.91 112.015 164.28 113.175 163.267 113.797L151.64 120.935C150.628 121.556 149.372 121.556 148.36 120.935L136.733 113.797C135.72 113.175 135.09 112.015 135.09 110.77V96.5061C135.09 95.2609 135.72 94.1009 136.733 93.4789L148.36 86.3414C149.372 85.7204 150.629 85.7206 151.64 86.3414L163.267 93.4788C164.28 94.1009 164.91 95.2608 164.91 96.5061V110.77Z" fill="#FFA114" fill-opacity="0.3"/>
<path d="M208.811 90.629L197.183 83.4915C195.22 82.2862 192.78 82.2862 190.817 83.4915L179.189 90.629C177.222 91.8366 176 94.0886 176 96.5061V110.77C176 113.188 177.222 115.44 179.189 116.647L190.817 123.785C192.78 124.99 195.22 124.99 197.183 123.785L208.811 116.647C210.778 115.44 212 113.188 212 110.77V96.5061C212 94.0886 210.778 91.8366 208.811 90.629ZM208.91 110.77C208.91 112.015 208.28 113.175 207.267 113.797L195.64 120.935C194.628 121.556 193.372 121.556 192.36 120.935L180.733 113.797C179.72 113.175 179.09 112.015 179.09 110.77V96.5061C179.09 95.2609 179.72 94.1009 180.733 93.4789L192.36 86.3414C193.372 85.7204 194.629 85.7206 195.64 86.3414L207.267 93.4788C208.28 94.1009 208.91 95.2608 208.91 96.5061V110.77Z" fill="#FFA114" fill-opacity="0.3"/>
<path d="M47.5645 28.2539V33H33.9238V28.2539H47.5645ZM36.1211 7.40625V33H29.9512V7.40625H36.1211ZM45.8066 17.5664V22.1543H33.9238V17.5664H45.8066ZM47.6172 7.40625V12.1699H33.9238V7.40625H47.6172ZM59.7812 27.6562C59.7812 27.3281 59.6699 27.0469 59.4473 26.8125C59.2363 26.5664 58.8613 26.3438 58.3223 26.1445C57.7832 25.9336 57.0273 25.7227 56.0547 25.5117C55.1289 25.3125 54.2559 25.0488 53.4355 24.7207C52.627 24.3926 51.918 23.9941 51.3086 23.5254C50.6992 23.0566 50.2188 22.5 49.8672 21.8555C49.5273 21.2109 49.3574 20.4727 49.3574 19.6406C49.3574 18.832 49.5273 18.0703 49.8672 17.3555C50.2188 16.6289 50.7285 15.9902 51.3965 15.4395C52.0762 14.877 52.9023 14.4375 53.875 14.1211C54.8477 13.793 55.9551 13.6289 57.1973 13.6289C58.9082 13.6289 60.3848 13.8926 61.627 14.4199C62.8691 14.9355 63.8242 15.6621 64.4922 16.5996C65.1719 17.5254 65.5117 18.5977 65.5117 19.8164H59.5879C59.5879 19.3359 59.5059 18.9258 59.3418 18.5859C59.1895 18.2461 58.9375 17.9883 58.5859 17.8125C58.2344 17.625 57.7656 17.5312 57.1797 17.5312C56.7695 17.5312 56.3945 17.6074 56.0547 17.7598C55.7266 17.9121 55.4629 18.123 55.2637 18.3926C55.0645 18.6621 54.9648 18.9785 54.9648 19.3418C54.9648 19.5996 55.0234 19.834 55.1406 20.0449C55.2695 20.2441 55.4629 20.4316 55.7207 20.6074C55.9785 20.7715 56.3066 20.9238 56.7051 21.0645C57.1035 21.1934 57.584 21.3105 58.1465 21.416C59.4238 21.6504 60.6191 21.9844 61.7324 22.418C62.8457 22.8516 63.748 23.4668 64.4395 24.2637C65.1426 25.0605 65.4941 26.1328 65.4941 27.4805C65.4941 28.3242 65.3008 29.1035 64.9141 29.8184C64.5273 30.5215 63.9707 31.1426 63.2441 31.6816C62.5176 32.209 61.6445 32.6191 60.625 32.9121C59.6055 33.2051 58.457 33.3516 57.1797 33.3516C55.3633 33.3516 53.8281 33.0293 52.5742 32.3848C51.3203 31.7285 50.3711 30.9082 49.7266 29.9238C49.0938 28.9277 48.7773 27.9199 48.7773 26.9004H54.2969C54.3203 27.4863 54.4609 27.9668 54.7188 28.3418C54.9883 28.7168 55.3457 28.9922 55.791 29.168C56.2363 29.3438 56.752 29.4316 57.3379 29.4316C57.877 29.4316 58.3223 29.3555 58.6738 29.2031C59.0371 29.0508 59.3125 28.8457 59.5 28.5879C59.6875 28.3184 59.7812 28.0078 59.7812 27.6562ZM74.248 17.6367V40.3125H68.3242V13.9805H73.8438L74.248 17.6367ZM85.9199 23.2617V23.6309C85.9199 25.0137 85.7617 26.2969 85.4453 27.4805C85.1289 28.6641 84.6602 29.6953 84.0391 30.5742C83.418 31.4531 82.6445 32.1387 81.7188 32.6309C80.8047 33.1113 79.7441 33.3516 78.5371 33.3516C77.4004 33.3516 76.4219 33.0996 75.6016 32.5957C74.7812 32.0918 74.0957 31.3945 73.5449 30.5039C72.9941 29.6133 72.5488 28.5938 72.209 27.4453C71.8691 26.2969 71.5996 25.084 71.4004 23.8066V23.332C71.5996 21.9609 71.8691 20.6895 72.209 19.5176C72.5488 18.334 72.9941 17.3027 73.5449 16.4238C74.0957 15.5449 74.7754 14.8594 75.584 14.3672C76.4043 13.875 77.3828 13.6289 78.5195 13.6289C79.7266 13.6289 80.7871 13.8574 81.7012 14.3145C82.627 14.7715 83.4004 15.4277 84.0215 16.2832C84.6543 17.127 85.1289 18.1406 85.4453 19.3242C85.7617 20.5078 85.9199 21.8203 85.9199 23.2617ZM79.9961 23.6309V23.2617C79.9961 22.5234 79.9434 21.8496 79.8379 21.2402C79.7324 20.6191 79.5625 20.0801 79.3281 19.623C79.1055 19.166 78.8066 18.8145 78.4316 18.5684C78.0566 18.3223 77.5938 18.1992 77.043 18.1992C76.4102 18.1992 75.877 18.2988 75.4434 18.498C75.0215 18.6855 74.6816 18.9785 74.4238 19.377C74.1777 19.7637 74.002 20.25 73.8965 20.8359C73.8027 21.4102 73.7617 22.084 73.7734 22.8574V24.2988C73.75 25.1895 73.8379 25.9746 74.0371 26.6543C74.2363 27.3223 74.582 27.8438 75.0742 28.2188C75.5664 28.5938 76.2344 28.7812 77.0781 28.7812C77.6406 28.7812 78.1094 28.6523 78.4844 28.3945C78.8594 28.125 79.1582 27.7559 79.3809 27.2871C79.6035 26.8066 79.7617 26.2559 79.8555 25.6348C79.9492 25.0137 79.9961 24.3457 79.9961 23.6309ZM94.5332 18.6914V33H88.6094V13.9805H94.1465L94.5332 18.6914ZM100.158 13.8398L100.053 19.3418C99.8184 19.3184 99.502 19.2891 99.1035 19.2539C98.7051 19.2188 98.3711 19.2012 98.1016 19.2012C97.4102 19.2012 96.8125 19.2832 96.3086 19.4473C95.8164 19.5996 95.4062 19.834 95.0781 20.1504C94.7617 20.4551 94.5273 20.8418 94.375 21.3105C94.2344 21.7793 94.1699 22.3242 94.1816 22.9453L93.1094 22.2422C93.1094 20.9648 93.2324 19.8047 93.4785 18.7617C93.7363 17.707 94.0996 16.7988 94.5684 16.0371C95.0371 15.2637 95.6055 14.6719 96.2734 14.2617C96.9414 13.8398 97.6914 13.6289 98.5234 13.6289C98.8164 13.6289 99.1035 13.6465 99.3848 13.6816C99.6777 13.7168 99.9355 13.7695 100.158 13.8398ZM111.057 33.3516C109.51 33.3516 108.127 33.1113 106.908 32.6309C105.689 32.1387 104.658 31.4648 103.814 30.6094C102.982 29.7539 102.344 28.7695 101.898 27.6562C101.465 26.543 101.248 25.3652 101.248 24.123V23.4551C101.248 22.0605 101.441 20.7715 101.828 19.5879C102.215 18.3926 102.789 17.3496 103.551 16.459C104.312 15.5684 105.268 14.877 106.416 14.3848C107.564 13.8809 108.9 13.6289 110.424 13.6289C111.771 13.6289 112.979 13.8457 114.045 14.2793C115.111 14.7129 116.014 15.334 116.752 16.1426C117.502 16.9512 118.07 17.9297 118.457 19.0781C118.855 20.2266 119.055 21.5156 119.055 22.9453V25.3535H103.516V21.6445H113.271V21.1875C113.283 20.5547 113.172 20.0156 112.938 19.5703C112.715 19.125 112.387 18.7852 111.953 18.5508C111.52 18.3164 110.992 18.1992 110.371 18.1992C109.727 18.1992 109.193 18.3398 108.771 18.6211C108.361 18.9023 108.039 19.2891 107.805 19.7812C107.582 20.2617 107.424 20.8184 107.33 21.4512C107.236 22.084 107.189 22.752 107.189 23.4551V24.123C107.189 24.8262 107.283 25.4648 107.471 26.0391C107.67 26.6133 107.951 27.1055 108.314 27.5156C108.689 27.9141 109.135 28.2246 109.65 28.4473C110.178 28.6699 110.775 28.7812 111.443 28.7812C112.252 28.7812 113.049 28.6289 113.834 28.3242C114.619 28.0195 115.293 27.5156 115.855 26.8125L118.545 30.0117C118.158 30.5625 117.607 31.0957 116.893 31.6113C116.189 32.127 115.346 32.5488 114.361 32.877C113.377 33.1934 112.275 33.3516 111.057 33.3516ZM131.43 27.6562C131.43 27.3281 131.318 27.0469 131.096 26.8125C130.885 26.5664 130.51 26.3438 129.971 26.1445C129.432 25.9336 128.676 25.7227 127.703 25.5117C126.777 25.3125 125.904 25.0488 125.084 24.7207C124.275 24.3926 123.566 23.9941 122.957 23.5254C122.348 23.0566 121.867 22.5 121.516 21.8555C121.176 21.2109 121.006 20.4727 121.006 19.6406C121.006 18.832 121.176 18.0703 121.516 17.3555C121.867 16.6289 122.377 15.9902 123.045 15.4395C123.725 14.877 124.551 14.4375 125.523 14.1211C126.496 13.793 127.604 13.6289 128.846 13.6289C130.557 13.6289 132.033 13.8926 133.275 14.4199C134.518 14.9355 135.473 15.6621 136.141 16.5996C136.82 17.5254 137.16 18.5977 137.16 19.8164H131.236C131.236 19.3359 131.154 18.9258 130.99 18.5859C130.838 18.2461 130.586 17.9883 130.234 17.8125C129.883 17.625 129.414 17.5312 128.828 17.5312C128.418 17.5312 128.043 17.6074 127.703 17.7598C127.375 17.9121 127.111 18.123 126.912 18.3926C126.713 18.6621 126.613 18.9785 126.613 19.3418C126.613 19.5996 126.672 19.834 126.789 20.0449C126.918 20.2441 127.111 20.4316 127.369 20.6074C127.627 20.7715 127.955 20.9238 128.354 21.0645C128.752 21.1934 129.232 21.3105 129.795 21.416C131.072 21.6504 132.268 21.9844 133.381 22.418C134.494 22.8516 135.396 23.4668 136.088 24.2637C136.791 25.0605 137.143 26.1328 137.143 27.4805C137.143 28.3242 136.949 29.1035 136.562 29.8184C136.176 30.5215 135.619 31.1426 134.893 31.6816C134.166 32.209 133.293 32.6191 132.273 32.9121C131.254 33.2051 130.105 33.3516 128.828 33.3516C127.012 33.3516 125.477 33.0293 124.223 32.3848C122.969 31.7285 122.02 30.9082 121.375 29.9238C120.742 28.9277 120.426 27.9199 120.426 26.9004H125.945C125.969 27.4863 126.109 27.9668 126.367 28.3418C126.637 28.7168 126.994 28.9922 127.439 29.168C127.885 29.3438 128.4 29.4316 128.986 29.4316C129.525 29.4316 129.971 29.3555 130.322 29.2031C130.686 29.0508 130.961 28.8457 131.148 28.5879C131.336 28.3184 131.43 28.0078 131.43 27.6562ZM149.887 27.6562C149.887 27.3281 149.775 27.0469 149.553 26.8125C149.342 26.5664 148.967 26.3438 148.428 26.1445C147.889 25.9336 147.133 25.7227 146.16 25.5117C145.234 25.3125 144.361 25.0488 143.541 24.7207C142.732 24.3926 142.023 23.9941 141.414 23.5254C140.805 23.0566 140.324 22.5 139.973 21.8555C139.633 21.2109 139.463 20.4727 139.463 19.6406C139.463 18.832 139.633 18.0703 139.973 17.3555C140.324 16.6289 140.834 15.9902 141.502 15.4395C142.182 14.877 143.008 14.4375 143.98 14.1211C144.953 13.793 146.061 13.6289 147.303 13.6289C149.014 13.6289 150.49 13.8926 151.732 14.4199C152.975 14.9355 153.93 15.6621 154.598 16.5996C155.277 17.5254 155.617 18.5977 155.617 19.8164H149.693C149.693 19.3359 149.611 18.9258 149.447 18.5859C149.295 18.2461 149.043 17.9883 148.691 17.8125C148.34 17.625 147.871 17.5312 147.285 17.5312C146.875 17.5312 146.5 17.6074 146.16 17.7598C145.832 17.9121 145.568 18.123 145.369 18.3926C145.17 18.6621 145.07 18.9785 145.07 19.3418C145.07 19.5996 145.129 19.834 145.246 20.0449C145.375 20.2441 145.568 20.4316 145.826 20.6074C146.084 20.7715 146.412 20.9238 146.811 21.0645C147.209 21.1934 147.689 21.3105 148.252 21.416C149.529 21.6504 150.725 21.9844 151.838 22.418C152.951 22.8516 153.854 23.4668 154.545 24.2637C155.248 25.0605 155.6 26.1328 155.6 27.4805C155.6 28.3242 155.406 29.1035 155.02 29.8184C154.633 30.5215 154.076 31.1426 153.35 31.6816C152.623 32.209 151.75 32.6191 150.73 32.9121C149.711 33.2051 148.562 33.3516 147.285 33.3516C145.469 33.3516 143.934 33.0293 142.68 32.3848C141.426 31.7285 140.477 30.9082 139.832 29.9238C139.199 28.9277 138.883 27.9199 138.883 26.9004H144.402C144.426 27.4863 144.566 27.9668 144.824 28.3418C145.094 28.7168 145.451 28.9922 145.896 29.168C146.342 29.3438 146.857 29.4316 147.443 29.4316C147.982 29.4316 148.428 29.3555 148.779 29.2031C149.143 29.0508 149.418 28.8457 149.605 28.5879C149.793 28.3184 149.887 28.0078 149.887 27.6562ZM164.635 13.9805V33H158.693V13.9805H164.635ZM158.342 9.07617C158.342 8.23242 158.646 7.54102 159.256 7.00195C159.865 6.46289 160.656 6.19336 161.629 6.19336C162.602 6.19336 163.393 6.46289 164.002 7.00195C164.611 7.54102 164.916 8.23242 164.916 9.07617C164.916 9.91992 164.611 10.6113 164.002 11.1504C163.393 11.6895 162.602 11.959 161.629 11.959C160.656 11.959 159.865 11.6895 159.256 11.1504C158.646 10.6113 158.342 9.91992 158.342 9.07617ZM175.551 33H169.592V12.4336C169.592 10.957 169.891 9.71484 170.488 8.70703C171.086 7.69922 171.93 6.9375 173.02 6.42188C174.109 5.89453 175.398 5.63086 176.887 5.63086C177.402 5.63086 177.889 5.66602 178.346 5.73633C178.803 5.80664 179.248 5.89453 179.682 6L179.699 10.3594C179.488 10.3008 179.271 10.2598 179.049 10.2363C178.826 10.2129 178.551 10.2012 178.223 10.2012C177.648 10.2012 177.162 10.2891 176.764 10.4648C176.365 10.6289 176.061 10.8809 175.85 11.2207C175.65 11.5488 175.551 11.9531 175.551 12.4336V33ZM179.242 13.9805V18.0938H166.85V13.9805H179.242Z" fill="#1E1E1E"/>
</svg>
