<svg width="212" height="125" viewBox="0 0 212 125" fill="none" xmlns="http://www.w3.org/2000/svg">
<path d="M32.8107 90.6291L21.1834 83.4915C19.2199 82.2862 16.7802 82.2863 14.8166 83.4915L3.1894 90.6291C1.22207 91.8366 0 94.0886 0 96.5061V110.77C0 113.188 1.22207 115.44 3.18932 116.647L14.8166 123.785C16.7805 124.99 19.2201 124.99 21.1834 123.785L32.8106 116.647C34.7779 115.44 36 113.188 36 110.77V96.5061C36 94.0887 34.7779 91.8367 32.8107 90.6291ZM32.9099 110.77C32.9099 112.015 32.2804 113.175 31.267 113.797L19.6397 120.935C18.6282 121.556 17.3717 121.556 16.3602 120.935L4.73292 113.797C3.71959 113.175 3.09013 112.015 3.09013 110.77V96.5061C3.09013 95.2609 3.71959 94.1009 4.733 93.4789L16.3602 86.3414C17.3718 85.7204 18.6287 85.7206 19.6398 86.3414L31.2671 93.4789C32.2804 94.1009 32.9099 95.2608 32.9099 96.5061V110.77Z" fill="#FFA114"/>
<path d="M76.8107 90.6291L65.1834 83.4915C63.2199 82.2862 60.7802 82.2863 58.8166 83.4915L47.1894 90.6291C45.2221 91.8366 44 94.0886 44 96.5061V110.77C44 113.188 45.2221 115.44 47.1893 116.647L58.8166 123.785C60.7805 124.99 63.2201 124.99 65.1834 123.785L76.8106 116.647C78.7779 115.44 80 113.188 80 110.77V96.5061C80 94.0887 78.7779 91.8367 76.8107 90.6291ZM76.9099 110.77C76.9099 112.015 76.2804 113.175 75.267 113.797L63.6397 120.935C62.6282 121.556 61.3717 121.556 60.3602 120.935L48.7329 113.797C47.7196 113.175 47.0901 112.015 47.0901 110.77V96.5061C47.0901 95.2609 47.7196 94.1009 48.733 93.4789L60.3602 86.3414C61.3718 85.7204 62.6287 85.7206 63.6398 86.3414L75.2671 93.4789C76.2804 94.1009 76.9099 95.2608 76.9099 96.5061V110.77Z" fill="#FFA114"/>
<path d="M120.811 90.6291L109.183 83.4915C107.22 82.2862 104.78 82.2863 102.817 83.4915L91.1894 90.6291C89.2221 91.8366 88 94.0886 88 96.5061V110.77C88 113.188 89.2221 115.44 91.1893 116.647L102.817 123.785C104.78 124.99 107.22 124.99 109.183 123.785L120.811 116.647C122.778 115.44 124 113.188 124 110.77V96.5061C124 94.0887 122.778 91.8367 120.811 90.6291ZM120.91 110.77C120.91 112.015 120.28 113.175 119.267 113.797L107.64 120.935C106.628 121.556 105.372 121.556 104.36 120.935L92.7329 113.797C91.7196 113.175 91.0901 112.015 91.0901 110.77V96.5061C91.0901 95.2609 91.7196 94.1009 92.733 93.4789L104.36 86.3414C105.372 85.7204 106.629 85.7206 107.64 86.3414L119.267 93.4789C120.28 94.1009 120.91 95.2608 120.91 96.5061V110.77Z" fill="#FFA114"/>
<path d="M164.811 90.6291L153.183 83.4915C151.22 82.2862 148.78 82.2863 146.817 83.4915L135.189 90.6291C133.222 91.8366 132 94.0886 132 96.5061V110.77C132 113.188 133.222 115.44 135.189 116.647L146.817 123.785C148.78 124.99 151.22 124.99 153.183 123.785L164.811 116.647C166.778 115.44 168 113.188 168 110.77V96.5061C168 94.0887 166.778 91.8367 164.811 90.6291ZM164.91 110.77C164.91 112.015 164.28 113.175 163.267 113.797L151.64 120.935C150.628 121.556 149.372 121.556 148.36 120.935L136.733 113.797C135.72 113.175 135.09 112.015 135.09 110.77V96.5061C135.09 95.2609 135.72 94.1009 136.733 93.4789L148.36 86.3414C149.372 85.7204 150.629 85.7206 151.64 86.3414L163.267 93.4789C164.28 94.1009 164.91 95.2608 164.91 96.5061V110.77Z" fill="#FFA114" fill-opacity="0.3"/>
<path d="M208.811 90.6291L197.183 83.4915C195.22 82.2862 192.78 82.2863 190.817 83.4915L179.189 90.6291C177.222 91.8366 176 94.0886 176 96.5061V110.77C176 113.188 177.222 115.44 179.189 116.647L190.817 123.785C192.78 124.99 195.22 124.99 197.183 123.785L208.811 116.647C210.778 115.44 212 113.188 212 110.77V96.5061C212 94.0887 210.778 91.8367 208.811 90.6291ZM208.91 110.77C208.91 112.015 208.28 113.175 207.267 113.797L195.64 120.935C194.628 121.556 193.372 121.556 192.36 120.935L180.733 113.797C179.72 113.175 179.09 112.015 179.09 110.77V96.5061C179.09 95.2609 179.72 94.1009 180.733 93.4789L192.36 86.3414C193.372 85.7204 194.629 85.7206 195.64 86.3414L207.267 93.4789C208.28 94.1009 208.91 95.2608 208.91 96.5061V110.77Z" fill="#FFA114" fill-opacity="0.3"/>
<path d="M23.1211 7.40625V33H16.9512V7.40625H23.1211ZM33.0703 18.0586V22.8047H21.3633V18.0586H33.0703ZM34.0723 7.40625V12.1699H21.3633V7.40625H34.0723ZM47.0801 28.377V13.9805H53.0215V33H47.4668L47.0801 28.377ZM47.6426 24.5098L49.1895 24.4746C49.1895 25.752 49.0371 26.9355 48.7324 28.0254C48.4277 29.1035 47.9766 30.041 47.3789 30.8379C46.793 31.6348 46.0664 32.2559 45.1992 32.7012C44.3438 33.1348 43.3535 33.3516 42.2285 33.3516C41.291 33.3516 40.4297 33.2227 39.6445 32.9648C38.8711 32.6953 38.2031 32.2793 37.6406 31.7168C37.0781 31.1426 36.6387 30.4102 36.3223 29.5195C36.0176 28.6172 35.8652 27.5391 35.8652 26.2852V13.9805H41.7891V26.3203C41.7891 26.7422 41.8418 27.1055 41.9473 27.4102C42.0527 27.7148 42.2051 27.9727 42.4043 28.1836C42.6035 28.3828 42.8496 28.5352 43.1426 28.6406C43.4473 28.7344 43.793 28.7812 44.1797 28.7812C45.0703 28.7812 45.7676 28.5938 46.2715 28.2188C46.7754 27.8438 47.127 27.334 47.3262 26.6895C47.5371 26.0449 47.6426 25.3184 47.6426 24.5098ZM66.2578 27.6562C66.2578 27.3281 66.1465 27.0469 65.9238 26.8125C65.7129 26.5664 65.3379 26.3438 64.7988 26.1445C64.2598 25.9336 63.5039 25.7227 62.5312 25.5117C61.6055 25.3125 60.7324 25.0488 59.9121 24.7207C59.1035 24.3926 58.3945 23.9941 57.7852 23.5254C57.1758 23.0566 56.6953 22.5 56.3438 21.8555C56.0039 21.2109 55.834 20.4727 55.834 19.6406C55.834 18.832 56.0039 18.0703 56.3438 17.3555C56.6953 16.6289 57.2051 15.9902 57.873 15.4395C58.5527 14.877 59.3789 14.4375 60.3516 14.1211C61.3242 13.793 62.4316 13.6289 63.6738 13.6289C65.3848 13.6289 66.8613 13.8926 68.1035 14.4199C69.3457 14.9355 70.3008 15.6621 70.9688 16.5996C71.6484 17.5254 71.9883 18.5977 71.9883 19.8164H66.0645C66.0645 19.3359 65.9824 18.9258 65.8184 18.5859C65.666 18.2461 65.4141 17.9883 65.0625 17.8125C64.7109 17.625 64.2422 17.5312 63.6562 17.5312C63.2461 17.5312 62.8711 17.6074 62.5312 17.7598C62.2031 17.9121 61.9395 18.123 61.7402 18.3926C61.541 18.6621 61.4414 18.9785 61.4414 19.3418C61.4414 19.5996 61.5 19.834 61.6172 20.0449C61.7461 20.2441 61.9395 20.4316 62.1973 20.6074C62.4551 20.7715 62.7832 20.9238 63.1816 21.0645C63.5801 21.1934 64.0605 21.3105 64.623 21.416C65.9004 21.6504 67.0957 21.9844 68.209 22.418C69.3223 22.8516 70.2246 23.4668 70.916 24.2637C71.6191 25.0605 71.9707 26.1328 71.9707 27.4805C71.9707 28.3242 71.7773 29.1035 71.3906 29.8184C71.0039 30.5215 70.4473 31.1426 69.7207 31.6816C68.9941 32.209 68.1211 32.6191 67.1016 32.9121C66.082 33.2051 64.9336 33.3516 63.6562 33.3516C61.8398 33.3516 60.3047 33.0293 59.0508 32.3848C57.7969 31.7285 56.8477 30.9082 56.2031 29.9238C55.5703 28.9277 55.2539 27.9199 55.2539 26.9004H60.7734C60.7969 27.4863 60.9375 27.9668 61.1953 28.3418C61.4648 28.7168 61.8223 28.9922 62.2676 29.168C62.7129 29.3438 63.2285 29.4316 63.8145 29.4316C64.3535 29.4316 64.7988 29.3555 65.1504 29.2031C65.5137 29.0508 65.7891 28.8457 65.9766 28.5879C66.1641 28.3184 66.2578 28.0078 66.2578 27.6562ZM81.0059 13.9805V33H75.0645V13.9805H81.0059ZM74.7129 9.07617C74.7129 8.23242 75.0176 7.54102 75.627 7.00195C76.2363 6.46289 77.0273 6.19336 78 6.19336C78.9727 6.19336 79.7637 6.46289 80.373 7.00195C80.9824 7.54102 81.2871 8.23242 81.2871 9.07617C81.2871 9.91992 80.9824 10.6113 80.373 11.1504C79.7637 11.6895 78.9727 11.959 78 11.959C77.0273 11.959 76.2363 11.6895 75.627 11.1504C75.0176 10.6113 74.7129 9.91992 74.7129 9.07617ZM83.9238 23.6836V23.3145C83.9238 21.9199 84.123 20.6367 84.5215 19.4648C84.9199 18.2812 85.5059 17.2559 86.2793 16.3887C87.0527 15.5215 88.0078 14.8477 89.1445 14.3672C90.2812 13.875 91.5938 13.6289 93.082 13.6289C94.582 13.6289 95.9004 13.875 97.0371 14.3672C98.1855 14.8477 99.1465 15.5215 99.9199 16.3887C100.693 17.2559 101.279 18.2812 101.678 19.4648C102.076 20.6367 102.275 21.9199 102.275 23.3145V23.6836C102.275 25.0664 102.076 26.3496 101.678 27.5332C101.279 28.7051 100.693 29.7305 99.9199 30.6094C99.1465 31.4766 98.1914 32.1504 97.0547 32.6309C95.918 33.1113 94.6055 33.3516 93.1172 33.3516C91.6289 33.3516 90.3105 33.1113 89.1621 32.6309C88.0137 32.1504 87.0527 31.4766 86.2793 30.6094C85.5059 29.7305 84.9199 28.7051 84.5215 27.5332C84.123 26.3496 83.9238 25.0664 83.9238 23.6836ZM89.8477 23.3145V23.6836C89.8477 24.3984 89.9004 25.0664 90.0059 25.6875C90.1113 26.3086 90.2871 26.8535 90.5332 27.3223C90.7793 27.7793 91.1133 28.1367 91.5352 28.3945C91.957 28.6523 92.4844 28.7812 93.1172 28.7812C93.7383 28.7812 94.2539 28.6523 94.6641 28.3945C95.0859 28.1367 95.4199 27.7793 95.666 27.3223C95.9121 26.8535 96.0879 26.3086 96.1934 25.6875C96.2988 25.0664 96.3516 24.3984 96.3516 23.6836V23.3145C96.3516 22.623 96.2988 21.9727 96.1934 21.3633C96.0879 20.7422 95.9121 20.1973 95.666 19.7285C95.4199 19.248 95.0859 18.873 94.6641 18.6035C94.2422 18.334 93.7148 18.1992 93.082 18.1992C92.4609 18.1992 91.9395 18.334 91.5176 18.6035C91.1074 18.873 90.7793 19.248 90.5332 19.7285C90.2871 20.1973 90.1113 20.7422 90.0059 21.3633C89.9004 21.9727 89.8477 22.623 89.8477 23.3145ZM110.73 18.041V33H104.807V13.9805H110.361L110.73 18.041ZM110.027 22.8398L108.639 22.875C108.639 21.4219 108.814 20.127 109.166 18.9902C109.518 17.8418 110.016 16.8691 110.66 16.0723C111.305 15.2754 112.072 14.6719 112.963 14.2617C113.865 13.8398 114.867 13.6289 115.969 13.6289C116.848 13.6289 117.65 13.7578 118.377 14.0156C119.115 14.2734 119.748 14.6895 120.275 15.2637C120.814 15.8379 121.225 16.5996 121.506 17.5488C121.799 18.4863 121.945 19.6465 121.945 21.0293V33H115.986V21.0117C115.986 20.25 115.881 19.6699 115.67 19.2715C115.459 18.8613 115.154 18.5801 114.756 18.4277C114.357 18.2754 113.871 18.1992 113.297 18.1992C112.688 18.1992 112.172 18.3164 111.75 18.5508C111.328 18.7852 110.988 19.1133 110.73 19.5352C110.484 19.9453 110.303 20.4316 110.186 20.9941C110.08 21.5566 110.027 22.1719 110.027 22.8398ZM139.506 17.7246H142.389C143.127 17.7246 143.73 17.5957 144.199 17.3379C144.68 17.0684 145.037 16.6934 145.271 16.2129C145.506 15.7207 145.623 15.1406 145.623 14.4727C145.623 13.957 145.512 13.4824 145.289 13.0488C145.078 12.6152 144.75 12.2695 144.305 12.0117C143.859 11.7422 143.291 11.6074 142.6 11.6074C142.131 11.6074 141.674 11.707 141.229 11.9062C140.783 12.0938 140.414 12.3633 140.121 12.7148C139.84 13.0664 139.699 13.4941 139.699 13.998H133.758C133.758 12.5449 134.156 11.3027 134.953 10.2715C135.762 9.22852 136.822 8.43164 138.135 7.88086C139.459 7.31836 140.883 7.03711 142.406 7.03711C144.223 7.03711 145.816 7.31836 147.188 7.88086C148.559 8.43164 149.625 9.25195 150.387 10.3418C151.16 11.4199 151.547 12.7559 151.547 14.3496C151.547 15.2285 151.342 16.0547 150.932 16.8281C150.521 17.6016 149.947 18.2812 149.209 18.8672C148.471 19.4531 147.604 19.916 146.607 20.2559C145.623 20.584 144.545 20.748 143.373 20.748H139.506V17.7246ZM139.506 22.1367V19.1836H143.373C144.65 19.1836 145.816 19.3301 146.871 19.623C147.926 19.9043 148.834 20.3262 149.596 20.8887C150.357 21.4512 150.943 22.1484 151.354 22.9805C151.764 23.8008 151.969 24.7441 151.969 25.8105C151.969 27.0059 151.729 28.0723 151.248 29.0098C150.768 29.9473 150.094 30.7383 149.227 31.3828C148.359 32.0273 147.346 32.5195 146.186 32.8594C145.025 33.1875 143.766 33.3516 142.406 33.3516C141.34 33.3516 140.273 33.2109 139.207 32.9297C138.141 32.6367 137.168 32.1914 136.289 31.5938C135.41 30.9844 134.701 30.2109 134.162 29.2734C133.635 28.3242 133.371 27.1934 133.371 25.8809H139.312C139.312 26.4199 139.459 26.9121 139.752 27.3574C140.057 27.791 140.461 28.1367 140.965 28.3945C141.469 28.6523 142.014 28.7812 142.6 28.7812C143.326 28.7812 143.941 28.6465 144.445 28.377C144.961 28.0957 145.354 27.7207 145.623 27.252C145.893 26.7832 146.027 26.2617 146.027 25.6875C146.027 24.8203 145.881 24.1289 145.588 23.6133C145.307 23.0977 144.891 22.7227 144.34 22.4883C143.801 22.2539 143.15 22.1367 142.389 22.1367H139.506ZM168.334 7.03711H169.283V11.6953H168.967C167.83 11.6953 166.764 11.8535 165.768 12.1699C164.783 12.4863 163.916 12.9668 163.166 13.6113C162.428 14.2441 161.848 15.0469 161.426 16.0195C161.016 16.9922 160.811 18.1348 160.811 19.4473V23.9297C160.811 24.75 160.881 25.4648 161.021 26.0742C161.162 26.6836 161.373 27.1875 161.654 27.5859C161.936 27.9844 162.281 28.2832 162.691 28.4824C163.113 28.6816 163.6 28.7812 164.15 28.7812C164.607 28.7812 165.029 28.6758 165.416 28.4648C165.803 28.2539 166.137 27.9551 166.418 27.5684C166.711 27.1816 166.934 26.7305 167.086 26.2148C167.238 25.6992 167.314 25.1367 167.314 24.5273C167.314 23.8711 167.232 23.2793 167.068 22.752C166.904 22.2246 166.67 21.7793 166.365 21.416C166.072 21.041 165.715 20.7598 165.293 20.5723C164.883 20.373 164.432 20.2734 163.939 20.2734C163.189 20.2734 162.551 20.4434 162.023 20.7832C161.508 21.1113 161.115 21.5332 160.846 22.0488C160.588 22.5645 160.459 23.0859 160.459 23.6133L159.035 22.1719C159.012 21.4688 159.146 20.7422 159.439 19.9922C159.732 19.2422 160.172 18.5449 160.758 17.9004C161.344 17.2559 162.076 16.7344 162.955 16.3359C163.834 15.9375 164.854 15.7383 166.014 15.7383C167.186 15.7383 168.217 15.9609 169.107 16.4062C170.01 16.8516 170.766 17.4727 171.375 18.2695C171.996 19.0664 172.465 19.998 172.781 21.0645C173.098 22.1309 173.256 23.2852 173.256 24.5273C173.256 25.7812 173.033 26.9473 172.588 28.0254C172.154 29.0918 171.539 30.0234 170.742 30.8203C169.945 31.6172 169.002 32.2383 167.912 32.6836C166.822 33.1289 165.621 33.3516 164.309 33.3516C162.961 33.3516 161.713 33.123 160.564 32.666C159.428 32.1973 158.432 31.5234 157.576 30.6445C156.732 29.7539 156.07 28.6699 155.59 27.3926C155.121 26.1152 154.887 24.668 154.887 23.0508V20.8887C154.887 18.6973 155.244 16.7461 155.959 15.0352C156.686 13.3242 157.67 11.877 158.912 10.6934C160.166 9.49805 161.602 8.58984 163.219 7.96875C164.836 7.34766 166.541 7.03711 168.334 7.03711ZM193.646 17.8652V22.541C193.646 24.3809 193.43 25.9805 192.996 27.3398C192.574 28.6992 191.965 29.8242 191.168 30.7148C190.383 31.6055 189.445 32.2676 188.355 32.7012C187.266 33.1348 186.064 33.3516 184.752 33.3516C183.697 33.3516 182.713 33.2168 181.799 32.9473C180.885 32.666 180.059 32.2441 179.32 31.6816C178.594 31.1074 177.967 30.3926 177.439 29.5371C176.912 28.6816 176.508 27.6738 176.227 26.5137C175.945 25.3418 175.805 24.0176 175.805 22.541V17.8652C175.805 16.0137 176.016 14.4141 176.438 13.0664C176.871 11.707 177.486 10.582 178.283 9.69141C179.08 8.80078 180.023 8.13867 181.113 7.70508C182.203 7.27148 183.404 7.05469 184.717 7.05469C185.771 7.05469 186.75 7.19531 187.652 7.47656C188.566 7.74609 189.393 8.16797 190.131 8.74219C190.869 9.30469 191.496 10.0137 192.012 10.8691C192.539 11.7246 192.943 12.7383 193.225 13.9102C193.506 15.0703 193.646 16.3887 193.646 17.8652ZM187.723 23.2617V17.1094C187.723 16.2891 187.676 15.5742 187.582 14.9648C187.5 14.3555 187.371 13.8398 187.195 13.418C187.031 12.9961 186.826 12.6563 186.58 12.3984C186.334 12.1289 186.053 11.9355 185.736 11.8184C185.432 11.6895 185.092 11.625 184.717 11.625C184.248 11.625 183.826 11.7246 183.451 11.9238C183.088 12.1113 182.777 12.416 182.52 12.8379C182.262 13.2598 182.062 13.8223 181.922 14.5254C181.793 15.2285 181.729 16.0898 181.729 17.1094V23.2617C181.729 24.0938 181.77 24.8203 181.852 25.4414C181.945 26.0508 182.074 26.5723 182.238 27.0059C182.414 27.4277 182.625 27.7734 182.871 28.043C183.117 28.3008 183.398 28.4883 183.715 28.6055C184.031 28.7227 184.377 28.7812 184.752 28.7812C185.209 28.7812 185.619 28.6875 185.982 28.5C186.346 28.3125 186.656 28.0078 186.914 27.5859C187.184 27.1523 187.383 26.584 187.512 25.8809C187.652 25.166 187.723 24.293 187.723 23.2617Z" fill="#1E1E1E"/>
</svg>
