<svg width="212" height="125" viewBox="0 0 212 125" fill="none" xmlns="http://www.w3.org/2000/svg">
<path d="M32.8107 90.629L21.1834 83.4915C19.2199 82.2862 16.7802 82.2863 14.8166 83.4915L3.1894 90.629C1.22207 91.8366 0 94.0886 0 96.5061V110.77C0 113.188 1.22207 115.44 3.18932 116.647L14.8166 123.785C16.7805 124.99 19.2201 124.99 21.1834 123.785L32.8106 116.647C34.7779 115.44 36 113.188 36 110.77V96.5061C36 94.0887 34.7779 91.8367 32.8107 90.629ZM32.9099 110.77C32.9099 112.015 32.2804 113.175 31.267 113.797L19.6397 120.935C18.6282 121.556 17.3717 121.556 16.3602 120.935L4.73292 113.797C3.71959 113.175 3.09013 112.015 3.09013 110.77V96.5061C3.09013 95.2609 3.71959 94.1009 4.733 93.4789L16.3602 86.3414C17.3718 85.7204 18.6287 85.7206 19.6398 86.3414L31.2671 93.4788C32.2804 94.1009 32.9099 95.2608 32.9099 96.5061V110.77Z" fill="#FFA114"/>
<path d="M76.8107 90.629L65.1834 83.4915C63.2199 82.2862 60.7802 82.2863 58.8166 83.4915L47.1894 90.629C45.2221 91.8366 44 94.0886 44 96.5061V110.77C44 113.188 45.2221 115.44 47.1893 116.647L58.8166 123.785C60.7805 124.99 63.2201 124.99 65.1834 123.785L76.8106 116.647C78.7779 115.44 80 113.188 80 110.77V96.5061C80 94.0887 78.7779 91.8367 76.8107 90.629ZM76.9099 110.77C76.9099 112.015 76.2804 113.175 75.267 113.797L63.6397 120.935C62.6282 121.556 61.3717 121.556 60.3602 120.935L48.7329 113.797C47.7196 113.175 47.0901 112.015 47.0901 110.77V96.5061C47.0901 95.2609 47.7196 94.1009 48.733 93.4789L60.3602 86.3414C61.3718 85.7204 62.6287 85.7206 63.6398 86.3414L75.2671 93.4788C76.2804 94.1009 76.9099 95.2608 76.9099 96.5061V110.77Z" fill="#FFA114"/>
<path d="M120.811 90.629L109.183 83.4915C107.22 82.2862 104.78 82.2863 102.817 83.4915L91.1894 90.629C89.2221 91.8366 88 94.0886 88 96.5061V110.77C88 113.188 89.2221 115.44 91.1893 116.647L102.817 123.785C104.78 124.99 107.22 124.99 109.183 123.785L120.811 116.647C122.778 115.44 124 113.188 124 110.77V96.5061C124 94.0887 122.778 91.8367 120.811 90.629ZM120.91 110.77C120.91 112.015 120.28 113.175 119.267 113.797L107.64 120.935C106.628 121.556 105.372 121.556 104.36 120.935L92.7329 113.797C91.7196 113.175 91.0901 112.015 91.0901 110.77V96.5061C91.0901 95.2609 91.7196 94.1009 92.733 93.4789L104.36 86.3414C105.372 85.7204 106.629 85.7206 107.64 86.3414L119.267 93.4788C120.28 94.1009 120.91 95.2608 120.91 96.5061V110.77Z" fill="#FFA114"/>
<path d="M164.811 90.629L153.183 83.4915C151.22 82.2862 148.78 82.2863 146.817 83.4915L135.189 90.629C133.222 91.8366 132 94.0886 132 96.5061V110.77C132 113.188 133.222 115.44 135.189 116.647L146.817 123.785C148.78 124.99 151.22 124.99 153.183 123.785L164.811 116.647C166.778 115.44 168 113.188 168 110.77V96.5061C168 94.0887 166.778 91.8367 164.811 90.629ZM164.91 110.77C164.91 112.015 164.28 113.175 163.267 113.797L151.64 120.935C150.628 121.556 149.372 121.556 148.36 120.935L136.733 113.797C135.72 113.175 135.09 112.015 135.09 110.77V96.5061C135.09 95.2609 135.72 94.1009 136.733 93.4789L148.36 86.3414C149.372 85.7204 150.629 85.7206 151.64 86.3414L163.267 93.4788C164.28 94.1009 164.91 95.2608 164.91 96.5061V110.77Z" fill="#FFA114"/>
<path d="M208.811 90.629L197.183 83.4915C195.22 82.2862 192.78 82.2863 190.817 83.4915L179.189 90.629C177.222 91.8366 176 94.0886 176 96.5061V110.77C176 113.188 177.222 115.44 179.189 116.647L190.817 123.785C192.78 124.99 195.22 124.99 197.183 123.785L208.811 116.647C210.778 115.44 212 113.188 212 110.77V96.5061C212 94.0887 210.778 91.8367 208.811 90.629ZM208.91 110.77C208.91 112.015 208.28 113.175 207.267 113.797L195.64 120.935C194.628 121.556 193.372 121.556 192.36 120.935L180.733 113.797C179.72 113.175 179.09 112.015 179.09 110.77V96.5061C179.09 95.2609 179.72 94.1009 180.733 93.4789L192.36 86.3414C193.372 85.7204 194.629 85.7206 195.64 86.3414L207.267 93.4788C208.28 94.1009 208.91 95.2608 208.91 96.5061V110.77Z" fill="#FFA114" fill-opacity="0.3"/>
<path d="M67.8867 19.3242V29.8359C67.4531 30.3164 66.7852 30.832 65.8828 31.3828C64.9922 31.9219 63.8672 32.3848 62.5078 32.7715C61.1484 33.1582 59.5488 33.3516 57.709 33.3516C56.0098 33.3516 54.4688 33.082 53.0859 32.543C51.7031 31.9922 50.5137 31.1895 49.5176 30.1348C48.5332 29.0684 47.7715 27.7676 47.2324 26.2324C46.7051 24.6855 46.4414 22.916 46.4414 20.9238V19.5C46.4414 17.5078 46.7109 15.7383 47.25 14.1914C47.7891 12.6445 48.5449 11.3438 49.5176 10.2891C50.502 9.22266 51.6562 8.41406 52.9805 7.86328C54.3164 7.3125 55.7812 7.03711 57.375 7.03711C59.7305 7.03711 61.6465 7.41211 63.123 8.16211C64.5996 8.90039 65.7188 9.92578 66.4805 11.2383C67.2422 12.5391 67.7051 14.0449 67.8691 15.7559H61.9453C61.8281 14.9121 61.6055 14.1973 61.2773 13.6113C60.9609 13.0137 60.5039 12.5625 59.9062 12.2578C59.3086 11.9414 58.5352 11.7832 57.5859 11.7832C56.8477 11.7832 56.1738 11.9414 55.5645 12.2578C54.9668 12.5742 54.457 13.0547 54.0352 13.6992C53.6133 14.332 53.2852 15.1289 53.0508 16.0898C52.8281 17.0508 52.7168 18.1758 52.7168 19.4648V20.9238C52.7168 22.2012 52.8223 23.3203 53.0332 24.2812C53.2559 25.2422 53.584 26.0449 54.0176 26.6895C54.4629 27.3223 55.0254 27.8027 55.7051 28.1309C56.3965 28.4473 57.2109 28.6055 58.1484 28.6055C58.8047 28.6055 59.3672 28.5527 59.8359 28.4473C60.3047 28.3301 60.6914 28.1895 60.9961 28.0254C61.3125 27.8496 61.5527 27.6855 61.7168 27.5332V23.5605H57.4277V19.3242H67.8867ZM77.4668 13.9805V33H71.5254V13.9805H77.4668ZM71.1738 9.07617C71.1738 8.23242 71.4785 7.54102 72.0879 7.00195C72.6973 6.46289 73.4883 6.19336 74.4609 6.19336C75.4336 6.19336 76.2246 6.46289 76.834 7.00195C77.4434 7.54102 77.748 8.23242 77.748 9.07617C77.748 9.91992 77.4434 10.6113 76.834 11.1504C76.2246 11.6895 75.4336 11.959 74.4609 11.959C73.4883 11.959 72.6973 11.6895 72.0879 11.1504C71.4785 10.6113 71.1738 9.91992 71.1738 9.07617ZM91.1426 13.9805V18.0938H79.6816V13.9805H91.1426ZM82.0898 9.25195H88.0137V26.7949C88.0137 27.2988 88.0723 27.6914 88.1895 27.9727C88.3066 28.2422 88.5059 28.4355 88.7871 28.5527C89.0801 28.6582 89.4668 28.7109 89.9473 28.7109C90.2871 28.7109 90.5684 28.7051 90.791 28.6934C91.0137 28.6699 91.2246 28.6406 91.4238 28.6055V32.8418C90.9199 33.0059 90.3926 33.1289 89.8418 33.2109C89.291 33.3047 88.7051 33.3516 88.084 33.3516C86.8184 33.3516 85.7344 33.1523 84.832 32.7539C83.9414 32.3555 83.2617 31.7285 82.793 30.873C82.3242 30.0176 82.0898 28.9043 82.0898 27.5332V9.25195ZM99.2988 6V33H93.375V6H99.2988ZM98.5957 22.8398L97.207 22.875C97.207 21.5391 97.3711 20.3086 97.6992 19.1836C98.0273 18.0586 98.4961 17.0801 99.1055 16.248C99.7148 15.416 100.447 14.7715 101.303 14.3145C102.158 13.8574 103.107 13.6289 104.15 13.6289C105.088 13.6289 105.943 13.7637 106.717 14.0332C107.502 14.3027 108.176 14.7363 108.738 15.334C109.312 15.9316 109.752 16.7109 110.057 17.6719C110.373 18.6328 110.531 19.8047 110.531 21.1875V33H104.572V21.1523C104.572 20.3789 104.461 19.7812 104.238 19.3594C104.027 18.9258 103.723 18.627 103.324 18.4629C102.926 18.2871 102.439 18.1992 101.865 18.1992C101.174 18.1992 100.611 18.3164 100.178 18.5508C99.7441 18.7852 99.4102 19.1133 99.1758 19.5352C98.9531 19.9453 98.8008 20.4316 98.7188 20.9941C98.6367 21.5566 98.5957 22.1719 98.5957 22.8398ZM124.928 28.377V13.9805H130.869V33H125.314L124.928 28.377ZM125.49 24.5098L127.037 24.4746C127.037 25.752 126.885 26.9355 126.58 28.0254C126.275 29.1035 125.824 30.041 125.227 30.8379C124.641 31.6348 123.914 32.2559 123.047 32.7012C122.191 33.1348 121.201 33.3516 120.076 33.3516C119.139 33.3516 118.277 33.2227 117.492 32.9648C116.719 32.6953 116.051 32.2793 115.488 31.7168C114.926 31.1426 114.486 30.4102 114.17 29.5195C113.865 28.6172 113.713 27.5391 113.713 26.2852V13.9805H119.637V26.3203C119.637 26.7422 119.689 27.1055 119.795 27.4102C119.9 27.7148 120.053 27.9727 120.252 28.1836C120.451 28.3828 120.697 28.5352 120.99 28.6406C121.295 28.7344 121.641 28.7812 122.027 28.7812C122.918 28.7812 123.615 28.5938 124.119 28.2188C124.623 27.8438 124.975 27.334 125.174 26.6895C125.385 26.0449 125.49 25.3184 125.49 24.5098ZM134.191 6H140.115V28.3242L139.5 33H134.191V6ZM151.787 23.2793V23.6484C151.787 25.0898 151.641 26.4023 151.348 27.5859C151.055 28.7695 150.604 29.7949 149.994 30.6621C149.385 31.5176 148.617 32.1797 147.691 32.6484C146.766 33.1172 145.67 33.3516 144.404 33.3516C143.256 33.3516 142.271 33.1055 141.451 32.6133C140.631 32.1094 139.945 31.418 139.395 30.5391C138.844 29.6484 138.398 28.623 138.059 27.4629C137.719 26.291 137.449 25.0371 137.25 23.7012V23.2617C137.449 21.9375 137.719 20.6953 138.059 19.5352C138.398 18.3633 138.844 17.3379 139.395 16.459C139.945 15.5684 140.625 14.877 141.434 14.3848C142.254 13.8809 143.232 13.6289 144.369 13.6289C145.646 13.6289 146.748 13.8691 147.674 14.3496C148.611 14.8301 149.385 15.5039 149.994 16.3711C150.604 17.2383 151.055 18.2578 151.348 19.4297C151.641 20.6016 151.787 21.8848 151.787 23.2793ZM145.863 23.6484V23.2793C145.863 22.5879 145.822 21.9375 145.74 21.3281C145.658 20.7188 145.512 20.1797 145.301 19.7109C145.09 19.2422 144.791 18.873 144.404 18.6035C144.018 18.334 143.514 18.1992 142.893 18.1992C142.26 18.1992 141.727 18.3047 141.293 18.5156C140.871 18.7266 140.531 19.0312 140.273 19.4297C140.027 19.8164 139.852 20.2969 139.746 20.8711C139.641 21.4336 139.594 22.0723 139.605 22.7871V24.1758C139.582 25.1484 139.67 25.9805 139.869 26.6719C140.068 27.3633 140.414 27.8906 140.906 28.2539C141.398 28.6172 142.072 28.7988 142.928 28.7988C143.561 28.7988 144.07 28.6758 144.457 28.4297C144.855 28.1836 145.154 27.832 145.354 27.375C145.553 26.918 145.688 26.373 145.758 25.7402C145.828 25.1074 145.863 24.4102 145.863 23.6484Z" fill="#1E1E1E"/>
</svg>
