<svg width="279" height="125" viewBox="0 0 279 125" fill="none" xmlns="http://www.w3.org/2000/svg">
<path d="M71.8107 90.6291L60.1834 83.4915C58.2199 82.2862 55.7802 82.2863 53.8166 83.4915L42.1894 90.6291C40.2221 91.8366 39 94.0886 39 96.5061V110.77C39 113.188 40.2221 115.44 42.1893 116.647L53.8166 123.785C55.7805 124.99 58.2201 124.99 60.1834 123.785L71.8106 116.647C73.7779 115.44 75 113.188 75 110.77V96.5061C75 94.0887 73.7779 91.8367 71.8107 90.6291ZM71.9099 110.77C71.9099 112.015 71.2804 113.175 70.267 113.797L58.6397 120.935C57.6282 121.556 56.3717 121.556 55.3602 120.935L43.7329 113.797C42.7196 113.175 42.0901 112.015 42.0901 110.77V96.5061C42.0901 95.2609 42.7196 94.1009 43.733 93.4789L55.3602 86.3414C56.3718 85.7204 57.6287 85.7206 58.6398 86.3414L70.2671 93.4789C71.2804 94.1009 71.9099 95.2608 71.9099 96.5061V110.77Z" fill="#FFA114"/>
<path d="M115.811 90.6291L104.183 83.4915C102.22 82.2862 99.7802 82.2863 97.8166 83.4915L86.1894 90.6291C84.2221 91.8366 83 94.0886 83 96.5061V110.77C83 113.188 84.2221 115.44 86.1893 116.647L97.8166 123.785C99.7805 124.99 102.22 124.99 104.183 123.785L115.811 116.647C117.778 115.44 119 113.188 119 110.77V96.5061C119 94.0887 117.778 91.8367 115.811 90.6291ZM115.91 110.77C115.91 112.015 115.28 113.175 114.267 113.797L102.64 120.935C101.628 121.556 100.372 121.556 99.3602 120.935L87.7329 113.797C86.7196 113.175 86.0901 112.015 86.0901 110.77V96.5061C86.0901 95.2609 86.7196 94.1009 87.733 93.4789L99.3602 86.3414C100.372 85.7204 101.629 85.7206 102.64 86.3414L114.267 93.4789C115.28 94.1009 115.91 95.2608 115.91 96.5061V110.77Z" fill="#FFA114"/>
<path d="M159.811 90.6291L148.183 83.4915C146.22 82.2862 143.78 82.2863 141.817 83.4915L130.189 90.6291C128.222 91.8366 127 94.0886 127 96.5061V110.77C127 113.188 128.222 115.44 130.189 116.647L141.817 123.785C143.78 124.99 146.22 124.99 148.183 123.785L159.811 116.647C161.778 115.44 163 113.188 163 110.77V96.5061C163 94.0887 161.778 91.8367 159.811 90.6291ZM159.91 110.77C159.91 112.015 159.28 113.175 158.267 113.797L146.64 120.935C145.628 121.556 144.372 121.556 143.36 120.935L131.733 113.797C130.72 113.175 130.09 112.015 130.09 110.77V96.5061C130.09 95.2609 130.72 94.1009 131.733 93.4789L143.36 86.3414C144.372 85.7204 145.629 85.7206 146.64 86.3414L158.267 93.4789C159.28 94.1009 159.91 95.2608 159.91 96.5061V110.77Z" fill="#FFA114" fill-opacity="0.3"/>
<path d="M203.811 90.6291L192.183 83.4915C190.22 82.2862 187.78 82.2863 185.817 83.4915L174.189 90.6291C172.222 91.8366 171 94.0886 171 96.5061V110.77C171 113.188 172.222 115.44 174.189 116.647L185.817 123.785C187.78 124.99 190.22 124.99 192.183 123.785L203.811 116.647C205.778 115.44 207 113.188 207 110.77V96.5061C207 94.0887 205.778 91.8367 203.811 90.6291ZM203.91 110.77C203.91 112.015 203.28 113.175 202.267 113.797L190.64 120.935C189.628 121.556 188.372 121.556 187.36 120.935L175.733 113.797C174.72 113.175 174.09 112.015 174.09 110.77V96.5061C174.09 95.2609 174.72 94.1009 175.733 93.4789L187.36 86.3414C188.372 85.7204 189.629 85.7206 190.64 86.3414L202.267 93.4789C203.28 94.1009 203.91 95.2608 203.91 96.5061V110.77Z" fill="#FFA114" fill-opacity="0.3"/>
<path d="M247.811 90.6291L236.183 83.4915C234.22 82.2862 231.78 82.2863 229.817 83.4915L218.189 90.6291C216.222 91.8366 215 94.0886 215 96.5061V110.77C215 113.188 216.222 115.44 218.189 116.647L229.817 123.785C231.78 124.99 234.22 124.99 236.183 123.785L247.811 116.647C249.778 115.44 251 113.188 251 110.77V96.5061C251 94.0887 249.778 91.8367 247.811 90.6291ZM247.91 110.77C247.91 112.015 247.28 113.175 246.267 113.797L234.64 120.935C233.628 121.556 232.372 121.556 231.36 120.935L219.733 113.797C218.72 113.175 218.09 112.015 218.09 110.77V96.5061C218.09 95.2609 218.72 94.1009 219.733 93.4789L231.36 86.3414C232.372 85.7204 233.629 85.7206 234.64 86.3414L246.267 93.4789C247.28 94.1009 247.91 95.2608 247.91 96.5061V110.77Z" fill="#FFA114" fill-opacity="0.3"/>
<path d="M22.8867 19.3242V29.8359C22.4531 30.3164 21.7852 30.832 20.8828 31.3828C19.9922 31.9219 18.8672 32.3848 17.5078 32.7715C16.1484 33.1582 14.5488 33.3516 12.709 33.3516C11.0098 33.3516 9.46875 33.082 8.08594 32.543C6.70312 31.9922 5.51367 31.1895 4.51758 30.1348C3.5332 29.0684 2.77148 27.7676 2.23242 26.2324C1.70508 24.6855 1.44141 22.916 1.44141 20.9238V19.5C1.44141 17.5078 1.71094 15.7383 2.25 14.1914C2.78906 12.6445 3.54492 11.3438 4.51758 10.2891C5.50195 9.22266 6.65625 8.41406 7.98047 7.86328C9.31641 7.3125 10.7812 7.03711 12.375 7.03711C14.7305 7.03711 16.6465 7.41211 18.123 8.16211C19.5996 8.90039 20.7188 9.92578 21.4805 11.2383C22.2422 12.5391 22.7051 14.0449 22.8691 15.7559H16.9453C16.8281 14.9121 16.6055 14.1973 16.2773 13.6113C15.9609 13.0137 15.5039 12.5625 14.9062 12.2578C14.3086 11.9414 13.5352 11.7832 12.5859 11.7832C11.8477 11.7832 11.1738 11.9414 10.5645 12.2578C9.9668 12.5742 9.45703 13.0547 9.03516 13.6992C8.61328 14.332 8.28516 15.1289 8.05078 16.0898C7.82812 17.0508 7.7168 18.1758 7.7168 19.4648V20.9238C7.7168 22.2012 7.82227 23.3203 8.0332 24.2812C8.25586 25.2422 8.58398 26.0449 9.01758 26.6895C9.46289 27.3223 10.0254 27.8027 10.7051 28.1309C11.3965 28.4473 12.2109 28.6055 13.1484 28.6055C13.8047 28.6055 14.3672 28.5527 14.8359 28.4473C15.3047 28.3301 15.6914 28.1895 15.9961 28.0254C16.3125 27.8496 16.5527 27.6855 16.7168 27.5332V23.5605H12.4277V19.3242H22.8867ZM35.4199 33.3516C33.873 33.3516 32.4902 33.1113 31.2715 32.6309C30.0527 32.1387 29.0215 31.4648 28.1777 30.6094C27.3457 29.7539 26.707 28.7695 26.2617 27.6562C25.8281 26.543 25.6113 25.3652 25.6113 24.123V23.4551C25.6113 22.0605 25.8047 20.7715 26.1914 19.5879C26.5781 18.3926 27.1523 17.3496 27.9141 16.459C28.6758 15.5684 29.6309 14.877 30.7793 14.3848C31.9277 13.8809 33.2637 13.6289 34.7871 13.6289C36.1348 13.6289 37.3418 13.8457 38.4082 14.2793C39.4746 14.7129 40.377 15.334 41.1152 16.1426C41.8652 16.9512 42.4336 17.9297 42.8203 19.0781C43.2188 20.2266 43.418 21.5156 43.418 22.9453V25.3535H27.8789V21.6445H37.6348V21.1875C37.6465 20.5547 37.5352 20.0156 37.3008 19.5703C37.0781 19.125 36.75 18.7852 36.3164 18.5508C35.8828 18.3164 35.3555 18.1992 34.7344 18.1992C34.0898 18.1992 33.5566 18.3398 33.1348 18.6211C32.7246 18.9023 32.4023 19.2891 32.168 19.7812C31.9453 20.2617 31.7871 20.8184 31.6934 21.4512C31.5996 22.084 31.5527 22.752 31.5527 23.4551V24.123C31.5527 24.8262 31.6465 25.4648 31.834 26.0391C32.0332 26.6133 32.3145 27.1055 32.6777 27.5156C33.0527 27.9141 33.498 28.2246 34.0137 28.4473C34.541 28.6699 35.1387 28.7812 35.8066 28.7812C36.6152 28.7812 37.4121 28.6289 38.1973 28.3242C38.9824 28.0195 39.6562 27.5156 40.2188 26.8125L42.9082 30.0117C42.5215 30.5625 41.9707 31.0957 41.2559 31.6113C40.5527 32.127 39.709 32.5488 38.7246 32.877C37.7402 33.1934 36.6387 33.3516 35.4199 33.3516ZM55.793 27.6562C55.793 27.3281 55.6816 27.0469 55.459 26.8125C55.248 26.5664 54.873 26.3438 54.334 26.1445C53.7949 25.9336 53.0391 25.7227 52.0664 25.5117C51.1406 25.3125 50.2676 25.0488 49.4473 24.7207C48.6387 24.3926 47.9297 23.9941 47.3203 23.5254C46.7109 23.0566 46.2305 22.5 45.8789 21.8555C45.5391 21.2109 45.3691 20.4727 45.3691 19.6406C45.3691 18.832 45.5391 18.0703 45.8789 17.3555C46.2305 16.6289 46.7402 15.9902 47.4082 15.4395C48.0879 14.877 48.9141 14.4375 49.8867 14.1211C50.8594 13.793 51.9668 13.6289 53.209 13.6289C54.9199 13.6289 56.3965 13.8926 57.6387 14.4199C58.8809 14.9355 59.8359 15.6621 60.5039 16.5996C61.1836 17.5254 61.5234 18.5977 61.5234 19.8164H55.5996C55.5996 19.3359 55.5176 18.9258 55.3535 18.5859C55.2012 18.2461 54.9492 17.9883 54.5977 17.8125C54.2461 17.625 53.7773 17.5312 53.1914 17.5312C52.7812 17.5312 52.4062 17.6074 52.0664 17.7598C51.7383 17.9121 51.4746 18.123 51.2754 18.3926C51.0762 18.6621 50.9766 18.9785 50.9766 19.3418C50.9766 19.5996 51.0352 19.834 51.1523 20.0449C51.2812 20.2441 51.4746 20.4316 51.7324 20.6074C51.9902 20.7715 52.3184 20.9238 52.7168 21.0645C53.1152 21.1934 53.5957 21.3105 54.1582 21.416C55.4355 21.6504 56.6309 21.9844 57.7441 22.418C58.8574 22.8516 59.7598 23.4668 60.4512 24.2637C61.1543 25.0605 61.5059 26.1328 61.5059 27.4805C61.5059 28.3242 61.3125 29.1035 60.9258 29.8184C60.5391 30.5215 59.9824 31.1426 59.2559 31.6816C58.5293 32.209 57.6562 32.6191 56.6367 32.9121C55.6172 33.2051 54.4688 33.3516 53.1914 33.3516C51.375 33.3516 49.8398 33.0293 48.5859 32.3848C47.332 31.7285 46.3828 30.9082 45.7383 29.9238C45.1055 28.9277 44.7891 27.9199 44.7891 26.9004H50.3086C50.332 27.4863 50.4727 27.9668 50.7305 28.3418C51 28.7168 51.3574 28.9922 51.8027 29.168C52.248 29.3438 52.7637 29.4316 53.3496 29.4316C53.8887 29.4316 54.334 29.3555 54.6855 29.2031C55.0488 29.0508 55.3242 28.8457 55.5117 28.5879C55.6992 28.3184 55.793 28.0078 55.793 27.6562ZM74.3027 13.9805V18.0938H62.8418V13.9805H74.3027ZM65.25 9.25195H71.1738V26.7949C71.1738 27.2988 71.2324 27.6914 71.3496 27.9727C71.4668 28.2422 71.666 28.4355 71.9473 28.5527C72.2402 28.6582 72.627 28.7109 73.1074 28.7109C73.4473 28.7109 73.7285 28.7051 73.9512 28.6934C74.1738 28.6699 74.3848 28.6406 74.584 28.6055V32.8418C74.0801 33.0059 73.5527 33.1289 73.002 33.2109C72.4512 33.3047 71.8652 33.3516 71.2441 33.3516C69.9785 33.3516 68.8945 33.1523 67.9922 32.7539C67.1016 32.3555 66.4219 31.7285 65.9531 30.873C65.4844 30.0176 65.25 28.9043 65.25 27.5332V9.25195ZM82.916 13.9805V33H76.9746V13.9805H82.916ZM76.623 9.07617C76.623 8.23242 76.9277 7.54102 77.5371 7.00195C78.1465 6.46289 78.9375 6.19336 79.9102 6.19336C80.8828 6.19336 81.6738 6.46289 82.2832 7.00195C82.8926 7.54102 83.1973 8.23242 83.1973 9.07617C83.1973 9.91992 82.8926 10.6113 82.2832 11.1504C81.6738 11.6895 80.8828 11.959 79.9102 11.959C78.9375 11.959 78.1465 11.6895 77.5371 11.1504C76.9277 10.6113 76.623 9.91992 76.623 9.07617ZM85.834 23.6836V23.3145C85.834 21.9199 86.0332 20.6367 86.4316 19.4648C86.8301 18.2812 87.416 17.2559 88.1895 16.3887C88.9629 15.5215 89.918 14.8477 91.0547 14.3672C92.1914 13.875 93.5039 13.6289 94.9922 13.6289C96.4922 13.6289 97.8105 13.875 98.9473 14.3672C100.096 14.8477 101.057 15.5215 101.83 16.3887C102.604 17.2559 103.189 18.2812 103.588 19.4648C103.986 20.6367 104.186 21.9199 104.186 23.3145V23.6836C104.186 25.0664 103.986 26.3496 103.588 27.5332C103.189 28.7051 102.604 29.7305 101.83 30.6094C101.057 31.4766 100.102 32.1504 98.9648 32.6309C97.8281 33.1113 96.5156 33.3516 95.0273 33.3516C93.5391 33.3516 92.2207 33.1113 91.0723 32.6309C89.9238 32.1504 88.9629 31.4766 88.1895 30.6094C87.416 29.7305 86.8301 28.7051 86.4316 27.5332C86.0332 26.3496 85.834 25.0664 85.834 23.6836ZM91.7578 23.3145V23.6836C91.7578 24.3984 91.8105 25.0664 91.916 25.6875C92.0215 26.3086 92.1973 26.8535 92.4434 27.3223C92.6895 27.7793 93.0234 28.1367 93.4453 28.3945C93.8672 28.6523 94.3945 28.7812 95.0273 28.7812C95.6484 28.7812 96.1641 28.6523 96.5742 28.3945C96.9961 28.1367 97.3301 27.7793 97.5762 27.3223C97.8223 26.8535 97.998 26.3086 98.1035 25.6875C98.209 25.0664 98.2617 24.3984 98.2617 23.6836V23.3145C98.2617 22.623 98.209 21.9727 98.1035 21.3633C97.998 20.7422 97.8223 20.1973 97.5762 19.7285C97.3301 19.248 96.9961 18.873 96.5742 18.6035C96.1523 18.334 95.625 18.1992 94.9922 18.1992C94.3711 18.1992 93.8496 18.334 93.4277 18.6035C93.0176 18.873 92.6895 19.248 92.4434 19.7285C92.1973 20.1973 92.0215 20.7422 91.916 21.3633C91.8105 21.9727 91.7578 22.623 91.7578 23.3145ZM112.641 18.041V33H106.717V13.9805H112.271L112.641 18.041ZM111.938 22.8398L110.549 22.875C110.549 21.4219 110.725 20.127 111.076 18.9902C111.428 17.8418 111.926 16.8691 112.57 16.0723C113.215 15.2754 113.982 14.6719 114.873 14.2617C115.775 13.8398 116.777 13.6289 117.879 13.6289C118.758 13.6289 119.561 13.7578 120.287 14.0156C121.025 14.2734 121.658 14.6895 122.186 15.2637C122.725 15.8379 123.135 16.5996 123.416 17.5488C123.709 18.4863 123.855 19.6465 123.855 21.0293V33H117.896V21.0117C117.896 20.25 117.791 19.6699 117.58 19.2715C117.369 18.8613 117.064 18.5801 116.666 18.4277C116.268 18.2754 115.781 18.1992 115.207 18.1992C114.598 18.1992 114.082 18.3164 113.66 18.5508C113.238 18.7852 112.898 19.1133 112.641 19.5352C112.395 19.9453 112.213 20.4316 112.096 20.9941C111.99 21.5566 111.938 22.1719 111.938 22.8398ZM147.041 28.6406V6H153V33H147.656L147.041 28.6406ZM135.369 23.7188V23.3496C135.369 21.9082 135.527 20.5957 135.844 19.4121C136.16 18.2168 136.629 17.1914 137.25 16.3359C137.871 15.4688 138.645 14.8008 139.57 14.332C140.496 13.8633 141.562 13.6289 142.77 13.6289C143.848 13.6289 144.791 13.8809 145.6 14.3848C146.408 14.877 147.1 15.5684 147.674 16.459C148.248 17.3496 148.717 18.3926 149.08 19.5879C149.443 20.7715 149.719 22.0488 149.906 23.4199V23.8594C149.719 25.1484 149.443 26.3672 149.08 27.5156C148.717 28.6523 148.248 29.6602 147.674 30.5391C147.1 31.418 146.402 32.1094 145.582 32.6133C144.773 33.1055 143.824 33.3516 142.734 33.3516C141.527 33.3516 140.461 33.1113 139.535 32.6309C138.621 32.1504 137.854 31.4766 137.232 30.6094C136.623 29.7422 136.16 28.7227 135.844 27.5508C135.527 26.3789 135.369 25.1016 135.369 23.7188ZM141.293 23.3496V23.7188C141.293 24.4336 141.34 25.0957 141.434 25.7051C141.527 26.3145 141.686 26.8535 141.908 27.3223C142.143 27.7793 142.447 28.1367 142.822 28.3945C143.209 28.6523 143.684 28.7812 144.246 28.7812C145.008 28.7812 145.635 28.5996 146.127 28.2363C146.631 27.873 147 27.3574 147.234 26.6895C147.48 26.0215 147.586 25.2363 147.551 24.334V22.9453C147.574 22.1719 147.521 21.4922 147.393 20.9062C147.264 20.3086 147.059 19.8105 146.777 19.4121C146.508 19.0137 146.162 18.7148 145.74 18.5156C145.33 18.3047 144.844 18.1992 144.281 18.1992C143.73 18.1992 143.262 18.3281 142.875 18.5859C142.5 18.8438 142.195 19.207 141.961 19.6758C141.727 20.1328 141.557 20.6777 141.451 21.3105C141.346 21.9316 141.293 22.6113 141.293 23.3496ZM165.568 33.3516C164.021 33.3516 162.639 33.1113 161.42 32.6309C160.201 32.1387 159.17 31.4648 158.326 30.6094C157.494 29.7539 156.855 28.7695 156.41 27.6562C155.977 26.543 155.76 25.3652 155.76 24.123V23.4551C155.76 22.0605 155.953 20.7715 156.34 19.5879C156.727 18.3926 157.301 17.3496 158.062 16.459C158.824 15.5684 159.779 14.877 160.928 14.3848C162.076 13.8809 163.412 13.6289 164.936 13.6289C166.283 13.6289 167.49 13.8457 168.557 14.2793C169.623 14.7129 170.525 15.334 171.264 16.1426C172.014 16.9512 172.582 17.9297 172.969 19.0781C173.367 20.2266 173.566 21.5156 173.566 22.9453V25.3535H158.027V21.6445H167.783V21.1875C167.795 20.5547 167.684 20.0156 167.449 19.5703C167.227 19.125 166.898 18.7852 166.465 18.5508C166.031 18.3164 165.504 18.1992 164.883 18.1992C164.238 18.1992 163.705 18.3398 163.283 18.6211C162.873 18.9023 162.551 19.2891 162.316 19.7812C162.094 20.2617 161.936 20.8184 161.842 21.4512C161.748 22.084 161.701 22.752 161.701 23.4551V24.123C161.701 24.8262 161.795 25.4648 161.982 26.0391C162.182 26.6133 162.463 27.1055 162.826 27.5156C163.201 27.9141 163.646 28.2246 164.162 28.4473C164.689 28.6699 165.287 28.7812 165.955 28.7812C166.764 28.7812 167.561 28.6289 168.346 28.3242C169.131 28.0195 169.805 27.5156 170.367 26.8125L173.057 30.0117C172.67 30.5625 172.119 31.0957 171.404 31.6113C170.701 32.127 169.857 32.5488 168.873 32.877C167.889 33.1934 166.787 33.3516 165.568 33.3516ZM190.916 17.6367V40.3125H184.992V13.9805H190.512L190.916 17.6367ZM202.588 23.2617V23.6309C202.588 25.0137 202.43 26.2969 202.113 27.4805C201.797 28.6641 201.328 29.6953 200.707 30.5742C200.086 31.4531 199.312 32.1387 198.387 32.6309C197.473 33.1113 196.412 33.3516 195.205 33.3516C194.068 33.3516 193.09 33.0996 192.27 32.5957C191.449 32.0918 190.764 31.3945 190.213 30.5039C189.662 29.6133 189.217 28.5938 188.877 27.4453C188.537 26.2969 188.268 25.084 188.068 23.8066V23.332C188.268 21.9609 188.537 20.6895 188.877 19.5176C189.217 18.334 189.662 17.3027 190.213 16.4238C190.764 15.5449 191.443 14.8594 192.252 14.3672C193.072 13.875 194.051 13.6289 195.188 13.6289C196.395 13.6289 197.455 13.8574 198.369 14.3145C199.295 14.7715 200.068 15.4277 200.689 16.2832C201.322 17.127 201.797 18.1406 202.113 19.3242C202.43 20.5078 202.588 21.8203 202.588 23.2617ZM196.664 23.6309V23.2617C196.664 22.5234 196.611 21.8496 196.506 21.2402C196.4 20.6191 196.23 20.0801 195.996 19.623C195.773 19.166 195.475 18.8145 195.1 18.5684C194.725 18.3223 194.262 18.1992 193.711 18.1992C193.078 18.1992 192.545 18.2988 192.111 18.498C191.689 18.6855 191.35 18.9785 191.092 19.377C190.846 19.7637 190.67 20.25 190.564 20.8359C190.471 21.4102 190.43 22.084 190.441 22.8574V24.2988C190.418 25.1895 190.506 25.9746 190.705 26.6543C190.904 27.3223 191.25 27.8438 191.742 28.2188C192.234 28.5938 192.902 28.7812 193.746 28.7812C194.309 28.7812 194.777 28.6523 195.152 28.3945C195.527 28.125 195.826 27.7559 196.049 27.2871C196.271 26.8066 196.43 26.2559 196.523 25.6348C196.617 25.0137 196.664 24.3457 196.664 23.6309ZM211.201 18.6914V33H205.277V13.9805H210.814L211.201 18.6914ZM216.826 13.8398L216.721 19.3418C216.486 19.3184 216.17 19.2891 215.771 19.2539C215.373 19.2188 215.039 19.2012 214.77 19.2012C214.078 19.2012 213.48 19.2832 212.977 19.4473C212.484 19.5996 212.074 19.834 211.746 20.1504C211.43 20.4551 211.195 20.8418 211.043 21.3105C210.902 21.7793 210.838 22.3242 210.85 22.9453L209.777 22.2422C209.777 20.9648 209.9 19.8047 210.146 18.7617C210.404 17.707 210.768 16.7988 211.236 16.0371C211.705 15.2637 212.273 14.6719 212.941 14.2617C213.609 13.8398 214.359 13.6289 215.191 13.6289C215.484 13.6289 215.771 13.6465 216.053 13.6816C216.346 13.7168 216.604 13.7695 216.826 13.8398ZM217.494 23.6836V23.3145C217.494 21.9199 217.693 20.6367 218.092 19.4648C218.49 18.2812 219.076 17.2559 219.85 16.3887C220.623 15.5215 221.578 14.8477 222.715 14.3672C223.852 13.875 225.164 13.6289 226.652 13.6289C228.152 13.6289 229.471 13.875 230.607 14.3672C231.756 14.8477 232.717 15.5215 233.49 16.3887C234.264 17.2559 234.85 18.2812 235.248 19.4648C235.646 20.6367 235.846 21.9199 235.846 23.3145V23.6836C235.846 25.0664 235.646 26.3496 235.248 27.5332C234.85 28.7051 234.264 29.7305 233.49 30.6094C232.717 31.4766 231.762 32.1504 230.625 32.6309C229.488 33.1113 228.176 33.3516 226.688 33.3516C225.199 33.3516 223.881 33.1113 222.732 32.6309C221.584 32.1504 220.623 31.4766 219.85 30.6094C219.076 29.7305 218.49 28.7051 218.092 27.5332C217.693 26.3496 217.494 25.0664 217.494 23.6836ZM223.418 23.3145V23.6836C223.418 24.3984 223.471 25.0664 223.576 25.6875C223.682 26.3086 223.857 26.8535 224.104 27.3223C224.35 27.7793 224.684 28.1367 225.105 28.3945C225.527 28.6523 226.055 28.7812 226.688 28.7812C227.309 28.7812 227.824 28.6523 228.234 28.3945C228.656 28.1367 228.99 27.7793 229.236 27.3223C229.482 26.8535 229.658 26.3086 229.764 25.6875C229.869 25.0664 229.922 24.3984 229.922 23.6836V23.3145C229.922 22.623 229.869 21.9727 229.764 21.3633C229.658 20.7422 229.482 20.1973 229.236 19.7285C228.99 19.248 228.656 18.873 228.234 18.6035C227.812 18.334 227.285 18.1992 226.652 18.1992C226.031 18.1992 225.51 18.334 225.088 18.6035C224.678 18.873 224.35 19.248 224.104 19.7285C223.857 20.1973 223.682 20.7422 223.576 21.3633C223.471 21.9727 223.418 22.623 223.418 23.3145ZM238.922 13.9805H244.863V33.6152C244.863 35.1387 244.57 36.4219 243.984 37.4648C243.398 38.5195 242.561 39.3164 241.471 39.8555C240.381 40.4062 239.08 40.6816 237.568 40.6816C237.064 40.6816 236.602 40.6582 236.18 40.6113C235.746 40.5762 235.271 40.5 234.756 40.3828V35.9004C235.061 35.9473 235.342 35.9824 235.6 36.0059C235.857 36.041 236.139 36.0586 236.443 36.0586C236.982 36.0586 237.434 35.9707 237.797 35.7949C238.16 35.6191 238.436 35.3496 238.623 34.9863C238.822 34.623 238.922 34.166 238.922 33.6152V13.9805ZM238.482 9.07617C238.482 8.23242 238.787 7.54102 239.396 7.00195C240.006 6.46289 240.797 6.19336 241.77 6.19336C242.742 6.19336 243.533 6.46289 244.143 7.00195C244.752 7.54102 245.057 8.23242 245.057 9.07617C245.057 9.91992 244.752 10.6113 244.143 11.1504C243.533 11.6895 242.742 11.959 241.77 11.959C240.797 11.959 240.006 11.6895 239.396 11.1504C238.787 10.6113 238.482 9.91992 238.482 9.07617ZM257.432 33.3516C255.885 33.3516 254.502 33.1113 253.283 32.6309C252.064 32.1387 251.033 31.4648 250.189 30.6094C249.357 29.7539 248.719 28.7695 248.273 27.6562C247.84 26.543 247.623 25.3652 247.623 24.123V23.4551C247.623 22.0605 247.816 20.7715 248.203 19.5879C248.59 18.3926 249.164 17.3496 249.926 16.459C250.688 15.5684 251.643 14.877 252.791 14.3848C253.939 13.8809 255.275 13.6289 256.799 13.6289C258.146 13.6289 259.354 13.8457 260.42 14.2793C261.486 14.7129 262.389 15.334 263.127 16.1426C263.877 16.9512 264.445 17.9297 264.832 19.0781C265.23 20.2266 265.43 21.5156 265.43 22.9453V25.3535H249.891V21.6445H259.646V21.1875C259.658 20.5547 259.547 20.0156 259.312 19.5703C259.09 19.125 258.762 18.7852 258.328 18.5508C257.895 18.3164 257.367 18.1992 256.746 18.1992C256.102 18.1992 255.568 18.3398 255.146 18.6211C254.736 18.9023 254.414 19.2891 254.18 19.7812C253.957 20.2617 253.799 20.8184 253.705 21.4512C253.611 22.084 253.564 22.752 253.564 23.4551V24.123C253.564 24.8262 253.658 25.4648 253.846 26.0391C254.045 26.6133 254.326 27.1055 254.689 27.5156C255.064 27.9141 255.51 28.2246 256.025 28.4473C256.553 28.6699 257.15 28.7812 257.818 28.7812C258.627 28.7812 259.424 28.6289 260.209 28.3242C260.994 28.0195 261.668 27.5156 262.23 26.8125L264.92 30.0117C264.533 30.5625 263.982 31.0957 263.268 31.6113C262.564 32.127 261.721 32.5488 260.736 32.877C259.752 33.1934 258.65 33.3516 257.432 33.3516ZM277.857 13.9805V18.0938H266.396V13.9805H277.857ZM268.805 9.25195H274.729V26.7949C274.729 27.2988 274.787 27.6914 274.904 27.9727C275.021 28.2422 275.221 28.4355 275.502 28.5527C275.795 28.6582 276.182 28.7109 276.662 28.7109C277.002 28.7109 277.283 28.7051 277.506 28.6934C277.729 28.6699 277.939 28.6406 278.139 28.6055V32.8418C277.635 33.0059 277.107 33.1289 276.557 33.2109C276.006 33.3047 275.42 33.3516 274.799 33.3516C273.533 33.3516 272.449 33.1523 271.547 32.7539C270.656 32.3555 269.977 31.7285 269.508 30.873C269.039 30.0176 268.805 28.9043 268.805 27.5332V9.25195Z" fill="#1E1E1E"/>
</svg>
