<svg width="236" height="125" viewBox="0 0 236 125" fill="none" xmlns="http://www.w3.org/2000/svg">
<path d="M44.8107 90.6291L33.1834 83.4915C31.2199 82.2862 28.7802 82.2863 26.8166 83.4915L15.1894 90.6291C13.2221 91.8366 12 94.0886 12 96.5061V110.77C12 113.188 13.2221 115.44 15.1893 116.647L26.8166 123.785C28.7805 124.99 31.2201 124.99 33.1834 123.785L44.8106 116.647C46.7779 115.44 48 113.188 48 110.77V96.5061C48 94.0887 46.7779 91.8367 44.8107 90.6291ZM44.9099 110.77C44.9099 112.015 44.2804 113.175 43.267 113.797L31.6397 120.935C30.6282 121.556 29.3717 121.556 28.3602 120.935L16.7329 113.797C15.7196 113.175 15.0901 112.015 15.0901 110.77V96.5061C15.0901 95.2609 15.7196 94.1009 16.733 93.4789L28.3602 86.3414C29.3718 85.7204 30.6287 85.7206 31.6398 86.3414L43.2671 93.4789C44.2804 94.1009 44.9099 95.2608 44.9099 96.5061V110.77Z" fill="#FFA114"/>
<path d="M88.8107 90.6291L77.1834 83.4915C75.2199 82.2862 72.7802 82.2863 70.8166 83.4915L59.1894 90.6291C57.2221 91.8366 56 94.0886 56 96.5061V110.77C56 113.188 57.2221 115.44 59.1893 116.647L70.8166 123.785C72.7805 124.99 75.2201 124.99 77.1834 123.785L88.8106 116.647C90.7779 115.44 92 113.188 92 110.77V96.5061C92 94.0887 90.7779 91.8367 88.8107 90.6291ZM88.9099 110.77C88.9099 112.015 88.2804 113.175 87.267 113.797L75.6397 120.935C74.6282 121.556 73.3717 121.556 72.3602 120.935L60.7329 113.797C59.7196 113.175 59.0901 112.015 59.0901 110.77V96.5061C59.0901 95.2609 59.7196 94.1009 60.733 93.4789L72.3602 86.3414C73.3718 85.7204 74.6287 85.7206 75.6398 86.3414L87.2671 93.4789C88.2804 94.1009 88.9099 95.2608 88.9099 96.5061V110.77Z" fill="#FFA114"/>
<path d="M132.811 90.6291L121.183 83.4915C119.22 82.2862 116.78 82.2863 114.817 83.4915L103.189 90.6291C101.222 91.8366 100 94.0886 100 96.5061V110.77C100 113.188 101.222 115.44 103.189 116.647L114.817 123.785C116.78 124.99 119.22 124.99 121.183 123.785L132.811 116.647C134.778 115.44 136 113.188 136 110.77V96.5061C136 94.0887 134.778 91.8367 132.811 90.6291ZM132.91 110.77C132.91 112.015 132.28 113.175 131.267 113.797L119.64 120.935C118.628 121.556 117.372 121.556 116.36 120.935L104.733 113.797C103.72 113.175 103.09 112.015 103.09 110.77V96.5061C103.09 95.2609 103.72 94.1009 104.733 93.4789L116.36 86.3414C117.372 85.7204 118.629 85.7206 119.64 86.3414L131.267 93.4789C132.28 94.1009 132.91 95.2608 132.91 96.5061V110.77Z" fill="#FFA114"/>
<path d="M176.811 90.6291L165.183 83.4915C163.22 82.2862 160.78 82.2863 158.817 83.4915L147.189 90.6291C145.222 91.8366 144 94.0886 144 96.5061V110.77C144 113.188 145.222 115.44 147.189 116.647L158.817 123.785C160.78 124.99 163.22 124.99 165.183 123.785L176.811 116.647C178.778 115.44 180 113.188 180 110.77V96.5061C180 94.0887 178.778 91.8367 176.811 90.6291ZM176.91 110.77C176.91 112.015 176.28 113.175 175.267 113.797L163.64 120.935C162.628 121.556 161.372 121.556 160.36 120.935L148.733 113.797C147.72 113.175 147.09 112.015 147.09 110.77V96.5061C147.09 95.2609 147.72 94.1009 148.733 93.4789L160.36 86.3414C161.372 85.7204 162.629 85.7206 163.64 86.3414L175.267 93.4789C176.28 94.1009 176.91 95.2608 176.91 96.5061V110.77Z" fill="#FFA114"/>
<path d="M220.811 90.6291L209.183 83.4915C207.22 82.2862 204.78 82.2863 202.817 83.4915L191.189 90.6291C189.222 91.8366 188 94.0886 188 96.5061V110.77C188 113.188 189.222 115.44 191.189 116.647L202.817 123.785C204.78 124.99 207.22 124.99 209.183 123.785L220.811 116.647C222.778 115.44 224 113.188 224 110.77V96.5061C224 94.0887 222.778 91.8367 220.811 90.6291ZM220.91 110.77C220.91 112.015 220.28 113.175 219.267 113.797L207.64 120.935C206.628 121.556 205.372 121.556 204.36 120.935L192.733 113.797C191.72 113.175 191.09 112.015 191.09 110.77V96.5061C191.09 95.2609 191.72 94.1009 192.733 93.4789L204.36 86.3414C205.372 85.7204 206.629 85.7206 207.64 86.3414L219.267 93.4789C220.28 94.1009 220.91 95.2608 220.91 96.5061V110.77Z" fill="#FFA114" fill-opacity="0.3"/>
<path d="M8.50781 7.40625V33H2.35547V7.40625H8.50781ZM18.5449 18.0059V33H12.6211V13.9805H18.1758L18.5449 18.0059ZM17.8242 22.8398L16.4707 22.875C16.4707 21.5391 16.6289 20.3086 16.9453 19.1836C17.2617 18.0586 17.7305 17.0801 18.3516 16.248C18.9727 15.416 19.7344 14.7715 20.6367 14.3145C21.5508 13.8574 22.6055 13.6289 23.8008 13.6289C24.6328 13.6289 25.3887 13.7578 26.0684 14.0156C26.748 14.2617 27.334 14.6543 27.8262 15.1934C28.3184 15.7207 28.6934 16.4121 28.9512 17.2676C29.2207 18.1113 29.3555 19.125 29.3555 20.3086V33H23.4316V21.0645C23.4316 20.2559 23.3379 19.6465 23.1504 19.2363C22.9746 18.8262 22.7168 18.5508 22.377 18.4102C22.0371 18.2695 21.6211 18.1992 21.1289 18.1992C20.6133 18.1992 20.1504 18.3164 19.7402 18.5508C19.3301 18.7852 18.9785 19.1133 18.6855 19.5352C18.4043 19.9453 18.1875 20.4316 18.0352 20.9941C17.8945 21.5566 17.8242 22.1719 17.8242 22.8398ZM28.6875 22.8398L27.0352 22.875C27.0352 21.5391 27.1816 20.3086 27.4746 19.1836C27.7793 18.0586 28.2305 17.0801 28.8281 16.248C29.4375 15.416 30.1934 14.7715 31.0957 14.3145C31.998 13.8574 33.0469 13.6289 34.2422 13.6289C35.1094 13.6289 35.9062 13.7578 36.6328 14.0156C37.3594 14.2734 37.9863 14.6895 38.5137 15.2637C39.041 15.8379 39.4512 16.5996 39.7441 17.5488C40.0371 18.4863 40.1836 19.6465 40.1836 21.0293V33H34.2422V21.0293C34.2422 20.2441 34.1484 19.6523 33.9609 19.2539C33.7852 18.8438 33.5273 18.5684 33.1875 18.4277C32.8477 18.2754 32.4434 18.1992 31.9746 18.1992C31.4121 18.1992 30.9258 18.3164 30.5156 18.5508C30.1055 18.7852 29.7598 19.1133 29.4785 19.5352C29.209 19.9453 29.0098 20.4316 28.8809 20.9941C28.752 21.5566 28.6875 22.1719 28.6875 22.8398ZM49.5527 17.6367V40.3125H43.6289V13.9805H49.1484L49.5527 17.6367ZM61.2246 23.2617V23.6309C61.2246 25.0137 61.0664 26.2969 60.75 27.4805C60.4336 28.6641 59.9648 29.6953 59.3438 30.5742C58.7227 31.4531 57.9492 32.1387 57.0234 32.6309C56.1094 33.1113 55.0488 33.3516 53.8418 33.3516C52.7051 33.3516 51.7266 33.0996 50.9062 32.5957C50.0859 32.0918 49.4004 31.3945 48.8496 30.5039C48.2988 29.6133 47.8535 28.5938 47.5137 27.4453C47.1738 26.2969 46.9043 25.084 46.7051 23.8066V23.332C46.9043 21.9609 47.1738 20.6895 47.5137 19.5176C47.8535 18.334 48.2988 17.3027 48.8496 16.4238C49.4004 15.5449 50.0801 14.8594 50.8887 14.3672C51.709 13.875 52.6875 13.6289 53.8242 13.6289C55.0312 13.6289 56.0918 13.8574 57.0059 14.3145C57.9316 14.7715 58.7051 15.4277 59.3262 16.2832C59.959 17.127 60.4336 18.1406 60.75 19.3242C61.0664 20.5078 61.2246 21.8203 61.2246 23.2617ZM55.3008 23.6309V23.2617C55.3008 22.5234 55.248 21.8496 55.1426 21.2402C55.0371 20.6191 54.8672 20.0801 54.6328 19.623C54.4102 19.166 54.1113 18.8145 53.7363 18.5684C53.3613 18.3223 52.8984 18.1992 52.3477 18.1992C51.7148 18.1992 51.1816 18.2988 50.748 18.498C50.3262 18.6855 49.9863 18.9785 49.7285 19.377C49.4824 19.7637 49.3066 20.25 49.2012 20.8359C49.1074 21.4102 49.0664 22.084 49.0781 22.8574V24.2988C49.0547 25.1895 49.1426 25.9746 49.3418 26.6543C49.541 27.3223 49.8867 27.8438 50.3789 28.2188C50.8711 28.5938 51.5391 28.7812 52.3828 28.7812C52.9453 28.7812 53.4141 28.6523 53.7891 28.3945C54.1641 28.125 54.4629 27.7559 54.6855 27.2871C54.9082 26.8066 55.0664 26.2559 55.1602 25.6348C55.2539 25.0137 55.3008 24.3457 55.3008 23.6309ZM69.8379 18.6914V33H63.9141V13.9805H69.4512L69.8379 18.6914ZM75.4629 13.8398L75.3574 19.3418C75.123 19.3184 74.8066 19.2891 74.4082 19.2539C74.0098 19.2188 73.6758 19.2012 73.4062 19.2012C72.7148 19.2012 72.1172 19.2832 71.6133 19.4473C71.1211 19.5996 70.7109 19.834 70.3828 20.1504C70.0664 20.4551 69.832 20.8418 69.6797 21.3105C69.5391 21.7793 69.4746 22.3242 69.4863 22.9453L68.4141 22.2422C68.4141 20.9648 68.5371 19.8047 68.7832 18.7617C69.041 17.707 69.4043 16.7988 69.873 16.0371C70.3418 15.2637 70.9102 14.6719 71.5781 14.2617C72.2461 13.8398 72.9961 13.6289 73.8281 13.6289C74.1211 13.6289 74.4082 13.6465 74.6895 13.6816C74.9824 13.7168 75.2402 13.7695 75.4629 13.8398ZM86.3613 33.3516C84.8145 33.3516 83.4316 33.1113 82.2129 32.6309C80.9941 32.1387 79.9629 31.4648 79.1191 30.6094C78.2871 29.7539 77.6484 28.7695 77.2031 27.6562C76.7695 26.543 76.5527 25.3652 76.5527 24.123V23.4551C76.5527 22.0605 76.7461 20.7715 77.1328 19.5879C77.5195 18.3926 78.0938 17.3496 78.8555 16.459C79.6172 15.5684 80.5723 14.877 81.7207 14.3848C82.8691 13.8809 84.2051 13.6289 85.7285 13.6289C87.0762 13.6289 88.2832 13.8457 89.3496 14.2793C90.416 14.7129 91.3184 15.334 92.0566 16.1426C92.8066 16.9512 93.375 17.9297 93.7617 19.0781C94.1602 20.2266 94.3594 21.5156 94.3594 22.9453V25.3535H78.8203V21.6445H88.5762V21.1875C88.5879 20.5547 88.4766 20.0156 88.2422 19.5703C88.0195 19.125 87.6914 18.7852 87.2578 18.5508C86.8242 18.3164 86.2969 18.1992 85.6758 18.1992C85.0312 18.1992 84.498 18.3398 84.0762 18.6211C83.666 18.9023 83.3438 19.2891 83.1094 19.7812C82.8867 20.2617 82.7285 20.8184 82.6348 21.4512C82.541 22.084 82.4941 22.752 82.4941 23.4551V24.123C82.4941 24.8262 82.5879 25.4648 82.7754 26.0391C82.9746 26.6133 83.2559 27.1055 83.6191 27.5156C83.9941 27.9141 84.4395 28.2246 84.9551 28.4473C85.4824 28.6699 86.0801 28.7812 86.748 28.7812C87.5566 28.7812 88.3535 28.6289 89.1387 28.3242C89.9238 28.0195 90.5977 27.5156 91.1602 26.8125L93.8496 30.0117C93.4629 30.5625 92.9121 31.0957 92.1973 31.6113C91.4941 32.127 90.6504 32.5488 89.666 32.877C88.6816 33.1934 87.5801 33.3516 86.3613 33.3516ZM106.734 27.6562C106.734 27.3281 106.623 27.0469 106.4 26.8125C106.189 26.5664 105.814 26.3438 105.275 26.1445C104.736 25.9336 103.98 25.7227 103.008 25.5117C102.082 25.3125 101.209 25.0488 100.389 24.7207C99.5801 24.3926 98.8711 23.9941 98.2617 23.5254C97.6523 23.0566 97.1719 22.5 96.8203 21.8555C96.4805 21.2109 96.3105 20.4727 96.3105 19.6406C96.3105 18.832 96.4805 18.0703 96.8203 17.3555C97.1719 16.6289 97.6816 15.9902 98.3496 15.4395C99.0293 14.877 99.8555 14.4375 100.828 14.1211C101.801 13.793 102.908 13.6289 104.15 13.6289C105.861 13.6289 107.338 13.8926 108.58 14.4199C109.822 14.9355 110.777 15.6621 111.445 16.5996C112.125 17.5254 112.465 18.5977 112.465 19.8164H106.541C106.541 19.3359 106.459 18.9258 106.295 18.5859C106.143 18.2461 105.891 17.9883 105.539 17.8125C105.188 17.625 104.719 17.5312 104.133 17.5312C103.723 17.5312 103.348 17.6074 103.008 17.7598C102.68 17.9121 102.416 18.123 102.217 18.3926C102.018 18.6621 101.918 18.9785 101.918 19.3418C101.918 19.5996 101.977 19.834 102.094 20.0449C102.223 20.2441 102.416 20.4316 102.674 20.6074C102.932 20.7715 103.26 20.9238 103.658 21.0645C104.057 21.1934 104.537 21.3105 105.1 21.416C106.377 21.6504 107.572 21.9844 108.686 22.418C109.799 22.8516 110.701 23.4668 111.393 24.2637C112.096 25.0605 112.447 26.1328 112.447 27.4805C112.447 28.3242 112.254 29.1035 111.867 29.8184C111.48 30.5215 110.924 31.1426 110.197 31.6816C109.471 32.209 108.598 32.6191 107.578 32.9121C106.559 33.2051 105.41 33.3516 104.133 33.3516C102.316 33.3516 100.781 33.0293 99.5273 32.3848C98.2734 31.7285 97.3242 30.9082 96.6797 29.9238C96.0469 28.9277 95.7305 27.9199 95.7305 26.9004H101.25C101.273 27.4863 101.414 27.9668 101.672 28.3418C101.941 28.7168 102.299 28.9922 102.744 29.168C103.189 29.3438 103.705 29.4316 104.291 29.4316C104.83 29.4316 105.275 29.3555 105.627 29.2031C105.99 29.0508 106.266 28.8457 106.453 28.5879C106.641 28.3184 106.734 28.0078 106.734 27.6562ZM125.191 27.6562C125.191 27.3281 125.08 27.0469 124.857 26.8125C124.646 26.5664 124.271 26.3438 123.732 26.1445C123.193 25.9336 122.438 25.7227 121.465 25.5117C120.539 25.3125 119.666 25.0488 118.846 24.7207C118.037 24.3926 117.328 23.9941 116.719 23.5254C116.109 23.0566 115.629 22.5 115.277 21.8555C114.938 21.2109 114.768 20.4727 114.768 19.6406C114.768 18.832 114.938 18.0703 115.277 17.3555C115.629 16.6289 116.139 15.9902 116.807 15.4395C117.486 14.877 118.312 14.4375 119.285 14.1211C120.258 13.793 121.365 13.6289 122.607 13.6289C124.318 13.6289 125.795 13.8926 127.037 14.4199C128.279 14.9355 129.234 15.6621 129.902 16.5996C130.582 17.5254 130.922 18.5977 130.922 19.8164H124.998C124.998 19.3359 124.916 18.9258 124.752 18.5859C124.6 18.2461 124.348 17.9883 123.996 17.8125C123.645 17.625 123.176 17.5312 122.59 17.5312C122.18 17.5312 121.805 17.6074 121.465 17.7598C121.137 17.9121 120.873 18.123 120.674 18.3926C120.475 18.6621 120.375 18.9785 120.375 19.3418C120.375 19.5996 120.434 19.834 120.551 20.0449C120.68 20.2441 120.873 20.4316 121.131 20.6074C121.389 20.7715 121.717 20.9238 122.115 21.0645C122.514 21.1934 122.994 21.3105 123.557 21.416C124.834 21.6504 126.029 21.9844 127.143 22.418C128.256 22.8516 129.158 23.4668 129.85 24.2637C130.553 25.0605 130.904 26.1328 130.904 27.4805C130.904 28.3242 130.711 29.1035 130.324 29.8184C129.938 30.5215 129.381 31.1426 128.654 31.6816C127.928 32.209 127.055 32.6191 126.035 32.9121C125.016 33.2051 123.867 33.3516 122.59 33.3516C120.773 33.3516 119.238 33.0293 117.984 32.3848C116.73 31.7285 115.781 30.9082 115.137 29.9238C114.504 28.9277 114.188 27.9199 114.188 26.9004H119.707C119.73 27.4863 119.871 27.9668 120.129 28.3418C120.398 28.7168 120.756 28.9922 121.201 29.168C121.646 29.3438 122.162 29.4316 122.748 29.4316C123.287 29.4316 123.732 29.3555 124.084 29.2031C124.447 29.0508 124.723 28.8457 124.91 28.5879C125.098 28.3184 125.191 28.0078 125.191 27.6562ZM139.939 13.9805V33H133.998V13.9805H139.939ZM133.646 9.07617C133.646 8.23242 133.951 7.54102 134.561 7.00195C135.17 6.46289 135.961 6.19336 136.934 6.19336C137.906 6.19336 138.697 6.46289 139.307 7.00195C139.916 7.54102 140.221 8.23242 140.221 9.07617C140.221 9.91992 139.916 10.6113 139.307 11.1504C138.697 11.6895 137.906 11.959 136.934 11.959C135.961 11.959 135.17 11.6895 134.561 11.1504C133.951 10.6113 133.646 9.91992 133.646 9.07617ZM142.857 23.6836V23.3145C142.857 21.9199 143.057 20.6367 143.455 19.4648C143.854 18.2812 144.439 17.2559 145.213 16.3887C145.986 15.5215 146.941 14.8477 148.078 14.3672C149.215 13.875 150.527 13.6289 152.016 13.6289C153.516 13.6289 154.834 13.875 155.971 14.3672C157.119 14.8477 158.08 15.5215 158.854 16.3887C159.627 17.2559 160.213 18.2812 160.611 19.4648C161.01 20.6367 161.209 21.9199 161.209 23.3145V23.6836C161.209 25.0664 161.01 26.3496 160.611 27.5332C160.213 28.7051 159.627 29.7305 158.854 30.6094C158.08 31.4766 157.125 32.1504 155.988 32.6309C154.852 33.1113 153.539 33.3516 152.051 33.3516C150.562 33.3516 149.244 33.1113 148.096 32.6309C146.947 32.1504 145.986 31.4766 145.213 30.6094C144.439 29.7305 143.854 28.7051 143.455 27.5332C143.057 26.3496 142.857 25.0664 142.857 23.6836ZM148.781 23.3145V23.6836C148.781 24.3984 148.834 25.0664 148.939 25.6875C149.045 26.3086 149.221 26.8535 149.467 27.3223C149.713 27.7793 150.047 28.1367 150.469 28.3945C150.891 28.6523 151.418 28.7812 152.051 28.7812C152.672 28.7812 153.188 28.6523 153.598 28.3945C154.02 28.1367 154.354 27.7793 154.6 27.3223C154.846 26.8535 155.021 26.3086 155.127 25.6875C155.232 25.0664 155.285 24.3984 155.285 23.6836V23.3145C155.285 22.623 155.232 21.9727 155.127 21.3633C155.021 20.7422 154.846 20.1973 154.6 19.7285C154.354 19.248 154.02 18.873 153.598 18.6035C153.176 18.334 152.648 18.1992 152.016 18.1992C151.395 18.1992 150.873 18.334 150.451 18.6035C150.041 18.873 149.713 19.248 149.467 19.7285C149.221 20.1973 149.045 20.7422 148.939 21.3633C148.834 21.9727 148.781 22.623 148.781 23.3145ZM169.664 18.041V33H163.74V13.9805H169.295L169.664 18.041ZM168.961 22.8398L167.572 22.875C167.572 21.4219 167.748 20.127 168.1 18.9902C168.451 17.8418 168.949 16.8691 169.594 16.0723C170.238 15.2754 171.006 14.6719 171.896 14.2617C172.799 13.8398 173.801 13.6289 174.902 13.6289C175.781 13.6289 176.584 13.7578 177.311 14.0156C178.049 14.2734 178.682 14.6895 179.209 15.2637C179.748 15.8379 180.158 16.5996 180.439 17.5488C180.732 18.4863 180.879 19.6465 180.879 21.0293V33H174.92V21.0117C174.92 20.25 174.814 19.6699 174.604 19.2715C174.393 18.8613 174.088 18.5801 173.689 18.4277C173.291 18.2754 172.805 18.1992 172.23 18.1992C171.621 18.1992 171.105 18.3164 170.684 18.5508C170.262 18.7852 169.922 19.1133 169.664 19.5352C169.418 19.9453 169.236 20.4316 169.119 20.9941C169.014 21.5566 168.961 22.1719 168.961 22.8398ZM198.439 17.7246H201.322C202.061 17.7246 202.664 17.5957 203.133 17.3379C203.613 17.0684 203.971 16.6934 204.205 16.2129C204.439 15.7207 204.557 15.1406 204.557 14.4727C204.557 13.957 204.445 13.4824 204.223 13.0488C204.012 12.6152 203.684 12.2695 203.238 12.0117C202.793 11.7422 202.225 11.6074 201.533 11.6074C201.064 11.6074 200.607 11.707 200.162 11.9062C199.717 12.0938 199.348 12.3633 199.055 12.7148C198.773 13.0664 198.633 13.4941 198.633 13.998H192.691C192.691 12.5449 193.09 11.3027 193.887 10.2715C194.695 9.22852 195.756 8.43164 197.068 7.88086C198.393 7.31836 199.816 7.03711 201.34 7.03711C203.156 7.03711 204.75 7.31836 206.121 7.88086C207.492 8.43164 208.559 9.25195 209.32 10.3418C210.094 11.4199 210.48 12.7559 210.48 14.3496C210.48 15.2285 210.275 16.0547 209.865 16.8281C209.455 17.6016 208.881 18.2812 208.143 18.8672C207.404 19.4531 206.537 19.916 205.541 20.2559C204.557 20.584 203.479 20.748 202.307 20.748H198.439V17.7246ZM198.439 22.1367V19.1836H202.307C203.584 19.1836 204.75 19.3301 205.805 19.623C206.859 19.9043 207.768 20.3262 208.529 20.8887C209.291 21.4512 209.877 22.1484 210.287 22.9805C210.697 23.8008 210.902 24.7441 210.902 25.8105C210.902 27.0059 210.662 28.0723 210.182 29.0098C209.701 29.9473 209.027 30.7383 208.16 31.3828C207.293 32.0273 206.279 32.5195 205.119 32.8594C203.959 33.1875 202.699 33.3516 201.34 33.3516C200.273 33.3516 199.207 33.2109 198.141 32.9297C197.074 32.6367 196.102 32.1914 195.223 31.5938C194.344 30.9844 193.635 30.2109 193.096 29.2734C192.568 28.3242 192.305 27.1934 192.305 25.8809H198.246C198.246 26.4199 198.393 26.9121 198.686 27.3574C198.99 27.791 199.395 28.1367 199.898 28.3945C200.402 28.6523 200.947 28.7812 201.533 28.7812C202.26 28.7812 202.875 28.6465 203.379 28.377C203.895 28.0957 204.287 27.7207 204.557 27.252C204.826 26.7832 204.961 26.2617 204.961 25.6875C204.961 24.8203 204.814 24.1289 204.521 23.6133C204.24 23.0977 203.824 22.7227 203.273 22.4883C202.734 22.2539 202.084 22.1367 201.322 22.1367H198.439ZM222.609 33H216.932L216.967 28.2539H222.609C223.781 28.2539 224.771 27.9727 225.58 27.4102C226.4 26.8477 227.021 26.0098 227.443 24.8965C227.877 23.7715 228.094 22.3887 228.094 20.748V19.6406C228.094 18.4102 227.971 17.332 227.725 16.4062C227.49 15.4688 227.139 14.6895 226.67 14.0684C226.201 13.4355 225.615 12.9609 224.912 12.6445C224.221 12.3281 223.424 12.1699 222.521 12.1699H216.826V7.40625H222.521C224.256 7.40625 225.844 7.70508 227.285 8.30273C228.738 8.88867 229.992 9.73242 231.047 10.834C232.113 11.9238 232.934 13.2188 233.508 14.7188C234.094 16.207 234.387 17.8594 234.387 19.6758V20.748C234.387 22.5527 234.094 24.2051 233.508 25.7051C232.934 27.2051 232.119 28.5 231.064 29.5898C230.01 30.6797 228.762 31.5234 227.32 32.1211C225.891 32.707 224.32 33 222.609 33ZM220.465 7.40625V33H214.295V7.40625H220.465Z" fill="#1E1E1E"/>
</svg>
