<svg width="212" height="123" viewBox="0 0 212 123" fill="none" xmlns="http://www.w3.org/2000/svg">
<path d="M32.8107 88.629L21.1834 81.4915C19.2199 80.2862 16.7802 80.2863 14.8166 81.4915L3.1894 88.629C1.22207 89.8366 0 92.0886 0 94.5061V108.77C0 111.188 1.22207 113.44 3.18932 114.647L14.8166 121.785C16.7805 122.99 19.2201 122.99 21.1834 121.785L32.8106 114.647C34.7779 113.44 36 111.188 36 108.77V94.5061C36 92.0887 34.7779 89.8367 32.8107 88.629ZM32.9099 108.77C32.9099 110.015 32.2804 111.175 31.267 111.797L19.6397 118.935C18.6282 119.556 17.3717 119.556 16.3602 118.935L4.73292 111.797C3.71959 111.175 3.09013 110.015 3.09013 108.77V94.5061C3.09013 93.2609 3.71959 92.1009 4.733 91.4789L16.3602 84.3414C17.3718 83.7204 18.6287 83.7206 19.6398 84.3414L31.2671 91.4788C32.2804 92.1009 32.9099 93.2608 32.9099 94.5061V108.77Z" fill="#FFA114"/>
<path d="M76.8107 88.629L65.1834 81.4915C63.2199 80.2862 60.7802 80.2863 58.8166 81.4915L47.1894 88.629C45.2221 89.8366 44 92.0886 44 94.5061V108.77C44 111.188 45.2221 113.44 47.1893 114.647L58.8166 121.785C60.7805 122.99 63.2201 122.99 65.1834 121.785L76.8106 114.647C78.7779 113.44 80 111.188 80 108.77V94.5061C80 92.0887 78.7779 89.8367 76.8107 88.629ZM76.9099 108.77C76.9099 110.015 76.2804 111.175 75.267 111.797L63.6397 118.935C62.6282 119.556 61.3717 119.556 60.3602 118.935L48.7329 111.797C47.7196 111.175 47.0901 110.015 47.0901 108.77V94.5061C47.0901 93.2609 47.7196 92.1009 48.733 91.4789L60.3602 84.3414C61.3718 83.7204 62.6287 83.7206 63.6398 84.3414L75.2671 91.4788C76.2804 92.1009 76.9099 93.2608 76.9099 94.5061V108.77Z" fill="#FFA114"/>
<path d="M120.811 88.629L109.183 81.4915C107.22 80.2862 104.78 80.2863 102.817 81.4915L91.1894 88.629C89.2221 89.8366 88 92.0886 88 94.5061V108.77C88 111.188 89.2221 113.44 91.1893 114.647L102.817 121.785C104.78 122.99 107.22 122.99 109.183 121.785L120.811 114.647C122.778 113.44 124 111.188 124 108.77V94.5061C124 92.0887 122.778 89.8367 120.811 88.629ZM120.91 108.77C120.91 110.015 120.28 111.175 119.267 111.797L107.64 118.935C106.628 119.556 105.372 119.556 104.36 118.935L92.7329 111.797C91.7196 111.175 91.0901 110.015 91.0901 108.77V94.5061C91.0901 93.2609 91.7196 92.1009 92.733 91.4789L104.36 84.3414C105.372 83.7204 106.629 83.7206 107.64 84.3414L119.267 91.4788C120.28 92.1009 120.91 93.2608 120.91 94.5061V108.77Z" fill="#FFA114" fill-opacity="0.3"/>
<path d="M164.811 88.629L153.183 81.4915C151.22 80.2862 148.78 80.2863 146.817 81.4915L135.189 88.629C133.222 89.8366 132 92.0886 132 94.5061V108.77C132 111.188 133.222 113.44 135.189 114.647L146.817 121.785C148.78 122.99 151.22 122.99 153.183 121.785L164.811 114.647C166.778 113.44 168 111.188 168 108.77V94.5061C168 92.0887 166.778 89.8367 164.811 88.629ZM164.91 108.77C164.91 110.015 164.28 111.175 163.267 111.797L151.64 118.935C150.628 119.556 149.372 119.556 148.36 118.935L136.733 111.797C135.72 111.175 135.09 110.015 135.09 108.77V94.5061C135.09 93.2609 135.72 92.1009 136.733 91.4789L148.36 84.3414C149.372 83.7204 150.629 83.7206 151.64 84.3414L163.267 91.4788C164.28 92.1009 164.91 93.2608 164.91 94.5061V108.77Z" fill="#FFA114" fill-opacity="0.3"/>
<path d="M208.811 88.629L197.183 81.4915C195.22 80.2862 192.78 80.2863 190.817 81.4915L179.189 88.629C177.222 89.8366 176 92.0886 176 94.5061V108.77C176 111.188 177.222 113.44 179.189 114.647L190.817 121.785C192.78 122.99 195.22 122.99 197.183 121.785L208.811 114.647C210.778 113.44 212 111.188 212 108.77V94.5061C212 92.0887 210.778 89.8367 208.811 88.629ZM208.91 108.77C208.91 110.015 208.28 111.175 207.267 111.797L195.64 118.935C194.628 119.556 193.372 119.556 192.36 118.935L180.733 111.797C179.72 111.175 179.09 110.015 179.09 108.77V94.5061C179.09 93.2609 179.72 92.1009 180.733 91.4789L192.36 84.3414C193.372 83.7204 194.629 83.7206 195.64 84.3414L207.267 91.4788C208.28 92.1009 208.91 93.2608 208.91 94.5061V108.77Z" fill="#FFA114" fill-opacity="0.3"/>
<path d="M60.1641 24.3164H53.8008V19.5527H60.1641C61.0312 19.5527 61.7344 19.4062 62.2734 19.1133C62.8125 18.8203 63.2051 18.416 63.4512 17.9004C63.709 17.373 63.8379 16.7812 63.8379 16.125C63.8379 15.4219 63.709 14.7715 63.4512 14.1738C63.2051 13.5762 62.8125 13.0957 62.2734 12.7324C61.7344 12.3574 61.0312 12.1699 60.1641 12.1699H56.1211V33H49.9512V7.40625H60.1641C62.2148 7.40625 63.9785 7.78125 65.4551 8.53125C66.9434 9.28125 68.0859 10.3125 68.8828 11.625C69.6797 12.9258 70.0781 14.4141 70.0781 16.0898C70.0781 17.7422 69.6797 19.1836 68.8828 20.4141C68.0859 21.6445 66.9434 22.6055 65.4551 23.2969C63.9785 23.9766 62.2148 24.3164 60.1641 24.3164ZM79.2363 30.7676L84.1582 13.9805H90.5215L82.875 35.8301C82.7109 36.3105 82.4941 36.8262 82.2246 37.377C81.9551 37.9395 81.5859 38.4727 81.1172 38.9766C80.6484 39.4805 80.0449 39.8906 79.3066 40.207C78.5801 40.5234 77.6777 40.6816 76.5996 40.6816C76.0254 40.6816 75.6035 40.6523 75.334 40.5938C75.0762 40.5469 74.6777 40.459 74.1387 40.3301V36.0938C74.291 36.0938 74.4199 36.0938 74.5254 36.0938C74.6426 36.0938 74.7715 36.0938 74.9121 36.0938C75.5449 36.0938 76.0488 36.0293 76.4238 35.9004C76.8105 35.7715 77.1035 35.584 77.3027 35.3379C77.5137 35.0918 77.6777 34.793 77.7949 34.4414L79.2363 30.7676ZM77.9883 13.9805L81.7324 27.2871L82.3828 33.5625H78.4102L71.6426 13.9805H77.9883ZM102.088 13.9805V18.0938H90.627V13.9805H102.088ZM93.0352 9.25195H98.959V26.7949C98.959 27.2988 99.0176 27.6914 99.1348 27.9727C99.252 28.2422 99.4512 28.4355 99.7324 28.5527C100.025 28.6582 100.412 28.7109 100.893 28.7109C101.232 28.7109 101.514 28.7051 101.736 28.6934C101.959 28.6699 102.17 28.6406 102.369 28.6055V32.8418C101.865 33.0059 101.338 33.1289 100.787 33.2109C100.236 33.3047 99.6504 33.3516 99.0293 33.3516C97.7637 33.3516 96.6797 33.1523 95.7773 32.7539C94.8867 32.3555 94.207 31.7285 93.7383 30.873C93.2695 30.0176 93.0352 28.9043 93.0352 27.5332V9.25195ZM110.244 6V33H104.32V6H110.244ZM109.541 22.8398L108.152 22.875C108.152 21.5391 108.316 20.3086 108.645 19.1836C108.973 18.0586 109.441 17.0801 110.051 16.248C110.66 15.416 111.393 14.7715 112.248 14.3145C113.104 13.8574 114.053 13.6289 115.096 13.6289C116.033 13.6289 116.889 13.7637 117.662 14.0332C118.447 14.3027 119.121 14.7363 119.684 15.334C120.258 15.9316 120.697 16.7109 121.002 17.6719C121.318 18.6328 121.477 19.8047 121.477 21.1875V33H115.518V21.1523C115.518 20.3789 115.406 19.7812 115.184 19.3594C114.973 18.9258 114.668 18.627 114.27 18.4629C113.871 18.2871 113.385 18.1992 112.811 18.1992C112.119 18.1992 111.557 18.3164 111.123 18.5508C110.689 18.7852 110.355 19.1133 110.121 19.5352C109.898 19.9453 109.746 20.4316 109.664 20.9941C109.582 21.5566 109.541 22.1719 109.541 22.8398ZM124.025 23.6836V23.3145C124.025 21.9199 124.225 20.6367 124.623 19.4648C125.021 18.2812 125.607 17.2559 126.381 16.3887C127.154 15.5215 128.109 14.8477 129.246 14.3672C130.383 13.875 131.695 13.6289 133.184 13.6289C134.684 13.6289 136.002 13.875 137.139 14.3672C138.287 14.8477 139.248 15.5215 140.021 16.3887C140.795 17.2559 141.381 18.2812 141.779 19.4648C142.178 20.6367 142.377 21.9199 142.377 23.3145V23.6836C142.377 25.0664 142.178 26.3496 141.779 27.5332C141.381 28.7051 140.795 29.7305 140.021 30.6094C139.248 31.4766 138.293 32.1504 137.156 32.6309C136.02 33.1113 134.707 33.3516 133.219 33.3516C131.73 33.3516 130.412 33.1113 129.264 32.6309C128.115 32.1504 127.154 31.4766 126.381 30.6094C125.607 29.7305 125.021 28.7051 124.623 27.5332C124.225 26.3496 124.025 25.0664 124.025 23.6836ZM129.949 23.3145V23.6836C129.949 24.3984 130.002 25.0664 130.107 25.6875C130.213 26.3086 130.389 26.8535 130.635 27.3223C130.881 27.7793 131.215 28.1367 131.637 28.3945C132.059 28.6523 132.586 28.7812 133.219 28.7812C133.84 28.7812 134.355 28.6523 134.766 28.3945C135.188 28.1367 135.521 27.7793 135.768 27.3223C136.014 26.8535 136.189 26.3086 136.295 25.6875C136.4 25.0664 136.453 24.3984 136.453 23.6836V23.3145C136.453 22.623 136.4 21.9727 136.295 21.3633C136.189 20.7422 136.014 20.1973 135.768 19.7285C135.521 19.248 135.188 18.873 134.766 18.6035C134.344 18.334 133.816 18.1992 133.184 18.1992C132.562 18.1992 132.041 18.334 131.619 18.6035C131.209 18.873 130.881 19.248 130.635 19.7285C130.389 20.1973 130.213 20.7422 130.107 21.3633C130.002 21.9727 129.949 22.623 129.949 23.3145ZM150.832 18.041V33H144.908V13.9805H150.463L150.832 18.041ZM150.129 22.8398L148.74 22.875C148.74 21.4219 148.916 20.127 149.268 18.9902C149.619 17.8418 150.117 16.8691 150.762 16.0723C151.406 15.2754 152.174 14.6719 153.064 14.2617C153.967 13.8398 154.969 13.6289 156.07 13.6289C156.949 13.6289 157.752 13.7578 158.479 14.0156C159.217 14.2734 159.85 14.6895 160.377 15.2637C160.916 15.8379 161.326 16.5996 161.607 17.5488C161.9 18.4863 162.047 19.6465 162.047 21.0293V33H156.088V21.0117C156.088 20.25 155.982 19.6699 155.771 19.2715C155.561 18.8613 155.256 18.5801 154.857 18.4277C154.459 18.2754 153.973 18.1992 153.398 18.1992C152.789 18.1992 152.273 18.3164 151.852 18.5508C151.43 18.7852 151.09 19.1133 150.832 19.5352C150.586 19.9453 150.404 20.4316 150.287 20.9941C150.182 21.5566 150.129 22.1719 150.129 22.8398Z" fill="#1E1E1E"/>
</svg>
