<svg width="212" height="125" viewBox="0 0 212 125" fill="none" xmlns="http://www.w3.org/2000/svg">
<path d="M32.8107 90.6291L21.1834 83.4915C19.2199 82.2862 16.7802 82.2863 14.8166 83.4915L3.1894 90.6291C1.22207 91.8366 0 94.0886 0 96.5061V110.77C0 113.188 1.22207 115.44 3.18932 116.647L14.8166 123.785C16.7805 124.99 19.2201 124.99 21.1834 123.785L32.8106 116.647C34.7779 115.44 36 113.188 36 110.77V96.5061C36 94.0887 34.7779 91.8367 32.8107 90.6291ZM32.9099 110.77C32.9099 112.015 32.2804 113.175 31.267 113.797L19.6397 120.935C18.6282 121.556 17.3717 121.556 16.3602 120.935L4.73292 113.797C3.71959 113.175 3.09013 112.015 3.09013 110.77V96.5061C3.09013 95.2609 3.71959 94.1009 4.733 93.4789L16.3602 86.3414C17.3718 85.7204 18.6287 85.7206 19.6398 86.3414L31.2671 93.4789C32.2804 94.1009 32.9099 95.2608 32.9099 96.5061V110.77Z" fill="#FFA114"/>
<path d="M76.8107 90.6291L65.1834 83.4915C63.2199 82.2862 60.7802 82.2863 58.8166 83.4915L47.1894 90.6291C45.2221 91.8366 44 94.0886 44 96.5061V110.77C44 113.188 45.2221 115.44 47.1893 116.647L58.8166 123.785C60.7805 124.99 63.2201 124.99 65.1834 123.785L76.8106 116.647C78.7779 115.44 80 113.188 80 110.77V96.5061C80 94.0887 78.7779 91.8367 76.8107 90.6291ZM76.9099 110.77C76.9099 112.015 76.2804 113.175 75.267 113.797L63.6397 120.935C62.6282 121.556 61.3717 121.556 60.3602 120.935L48.7329 113.797C47.7196 113.175 47.0901 112.015 47.0901 110.77V96.5061C47.0901 95.2609 47.7196 94.1009 48.733 93.4789L60.3602 86.3414C61.3718 85.7204 62.6287 85.7206 63.6398 86.3414L75.2671 93.4789C76.2804 94.1009 76.9099 95.2608 76.9099 96.5061V110.77Z" fill="#FFA114"/>
<path d="M120.811 90.6291L109.183 83.4915C107.22 82.2862 104.78 82.2863 102.817 83.4915L91.1894 90.6291C89.2221 91.8366 88 94.0886 88 96.5061V110.77C88 113.188 89.2221 115.44 91.1893 116.647L102.817 123.785C104.78 124.99 107.22 124.99 109.183 123.785L120.811 116.647C122.778 115.44 124 113.188 124 110.77V96.5061C124 94.0887 122.778 91.8367 120.811 90.6291ZM120.91 110.77C120.91 112.015 120.28 113.175 119.267 113.797L107.64 120.935C106.628 121.556 105.372 121.556 104.36 120.935L92.7329 113.797C91.7196 113.175 91.0901 112.015 91.0901 110.77V96.5061C91.0901 95.2609 91.7196 94.1009 92.733 93.4789L104.36 86.3414C105.372 85.7204 106.629 85.7206 107.64 86.3414L119.267 93.4789C120.28 94.1009 120.91 95.2608 120.91 96.5061V110.77Z" fill="#FFA114" fill-opacity="0.3"/>
<path d="M164.811 90.6291L153.183 83.4915C151.22 82.2862 148.78 82.2863 146.817 83.4915L135.189 90.6291C133.222 91.8366 132 94.0886 132 96.5061V110.77C132 113.188 133.222 115.44 135.189 116.647L146.817 123.785C148.78 124.99 151.22 124.99 153.183 123.785L164.811 116.647C166.778 115.44 168 113.188 168 110.77V96.5061C168 94.0887 166.778 91.8367 164.811 90.6291ZM164.91 110.77C164.91 112.015 164.28 113.175 163.267 113.797L151.64 120.935C150.628 121.556 149.372 121.556 148.36 120.935L136.733 113.797C135.72 113.175 135.09 112.015 135.09 110.77V96.5061C135.09 95.2609 135.72 94.1009 136.733 93.4789L148.36 86.3414C149.372 85.7204 150.629 85.7206 151.64 86.3414L163.267 93.4789C164.28 94.1009 164.91 95.2608 164.91 96.5061V110.77Z" fill="#FFA114" fill-opacity="0.3"/>
<path d="M208.811 90.6291L197.183 83.4915C195.22 82.2862 192.78 82.2863 190.817 83.4915L179.189 90.6291C177.222 91.8366 176 94.0886 176 96.5061V110.77C176 113.188 177.222 115.44 179.189 116.647L190.817 123.785C192.78 124.99 195.22 124.99 197.183 123.785L208.811 116.647C210.778 115.44 212 113.188 212 110.77V96.5061C212 94.0887 210.778 91.8367 208.811 90.6291ZM208.91 110.77C208.91 112.015 208.28 113.175 207.267 113.797L195.64 120.935C194.628 121.556 193.372 121.556 192.36 120.935L180.733 113.797C179.72 113.175 179.09 112.015 179.09 110.77V96.5061C179.09 95.2609 179.72 94.1009 180.733 93.4789L192.36 86.3414C193.372 85.7204 194.629 85.7206 195.64 86.3414L207.267 93.4789C208.28 94.1009 208.91 95.2608 208.91 96.5061V110.77Z" fill="#FFA114" fill-opacity="0.3"/>
<path d="M25.9512 7.40625H36.0234C37.9922 7.40625 39.7031 7.69922 41.1562 8.28516C42.6094 8.87109 43.7285 9.73828 44.5137 10.8867C45.3105 12.0352 45.709 13.4531 45.709 15.1406C45.709 16.6055 45.4805 17.8301 45.0234 18.8145C44.5664 19.7988 43.9277 20.6133 43.1074 21.2578C42.2988 21.8906 41.3555 22.4121 40.2773 22.8223L38.2559 23.9648H29.8008L29.7656 19.2012H36.0234C36.8086 19.2012 37.459 19.0605 37.9746 18.7793C38.4902 18.498 38.877 18.0996 39.1348 17.584C39.4043 17.0566 39.5391 16.4297 39.5391 15.7031C39.5391 14.9648 39.4043 14.332 39.1348 13.8047C38.8652 13.2773 38.4668 12.873 37.9395 12.5918C37.4238 12.3105 36.7852 12.1699 36.0234 12.1699H32.1211V33H25.9512V7.40625ZM39.9609 33L34.3008 21.6797L40.8398 21.6445L46.5703 32.7363V33H39.9609ZM59.0332 28.2188V20.3789C59.0332 19.8398 58.957 19.377 58.8047 18.9902C58.6523 18.6035 58.4121 18.3047 58.084 18.0938C57.7559 17.8711 57.3164 17.7598 56.7656 17.7598C56.3203 17.7598 55.9395 17.8359 55.623 17.9883C55.3066 18.1406 55.0664 18.3691 54.9023 18.6738C54.7383 18.9785 54.6562 19.3652 54.6562 19.834H48.7324C48.7324 18.9551 48.9258 18.1406 49.3125 17.3906C49.7109 16.6289 50.2734 15.9668 51 15.4043C51.7383 14.8418 52.6172 14.4082 53.6367 14.1035C54.668 13.7871 55.8164 13.6289 57.082 13.6289C58.5938 13.6289 59.9414 13.8809 61.125 14.3848C62.3203 14.8887 63.2637 15.6445 63.9551 16.6523C64.6465 17.6484 64.9922 18.9023 64.9922 20.4141V28.2012C64.9922 29.4434 65.0625 30.3867 65.2031 31.0312C65.3438 31.6641 65.543 32.2207 65.8008 32.7012V33H59.8594C59.5781 32.4141 59.3672 31.6992 59.2266 30.8555C59.0977 30 59.0332 29.1211 59.0332 28.2188ZM59.7539 21.3809L59.7891 24.5449H57.1699C56.6191 24.5449 56.1504 24.6211 55.7637 24.7734C55.3887 24.9258 55.084 25.1367 54.8496 25.4062C54.627 25.6641 54.4629 25.957 54.3574 26.2852C54.2637 26.6133 54.2168 26.959 54.2168 27.3223C54.2168 27.6738 54.2988 27.9902 54.4629 28.2715C54.6387 28.541 54.873 28.752 55.166 28.9043C55.459 29.0566 55.7871 29.1328 56.1504 29.1328C56.8066 29.1328 57.3633 29.0098 57.8203 28.7637C58.2891 28.5059 58.6465 28.1953 58.8926 27.832C59.1387 27.4688 59.2617 27.1289 59.2617 26.8125L60.5625 29.2383C60.3281 29.707 60.0586 30.1816 59.7539 30.6621C59.4609 31.1426 59.0918 31.5879 58.6465 31.998C58.2129 32.3965 57.6797 32.7246 57.0469 32.9824C56.4141 33.2285 55.6465 33.3516 54.7441 33.3516C53.5723 33.3516 52.4941 33.1113 51.5098 32.6309C50.5371 32.1504 49.7578 31.4824 49.1719 30.627C48.5859 29.7598 48.293 28.7637 48.293 27.6387C48.293 26.6543 48.4688 25.7754 48.8203 25.002C49.1836 24.2285 49.7285 23.5723 50.4551 23.0332C51.1816 22.4941 52.1074 22.084 53.2324 21.8027C54.3574 21.5215 55.6816 21.3809 57.2051 21.3809H59.7539ZM78.2461 27.6562C78.2461 27.3281 78.1348 27.0469 77.9121 26.8125C77.7012 26.5664 77.3262 26.3438 76.7871 26.1445C76.248 25.9336 75.4922 25.7227 74.5195 25.5117C73.5938 25.3125 72.7207 25.0488 71.9004 24.7207C71.0918 24.3926 70.3828 23.9941 69.7734 23.5254C69.1641 23.0566 68.6836 22.5 68.332 21.8555C67.9922 21.2109 67.8223 20.4727 67.8223 19.6406C67.8223 18.832 67.9922 18.0703 68.332 17.3555C68.6836 16.6289 69.1934 15.9902 69.8613 15.4395C70.541 14.877 71.3672 14.4375 72.3398 14.1211C73.3125 13.793 74.4199 13.6289 75.6621 13.6289C77.373 13.6289 78.8496 13.8926 80.0918 14.4199C81.334 14.9355 82.2891 15.6621 82.957 16.5996C83.6367 17.5254 83.9766 18.5977 83.9766 19.8164H78.0527C78.0527 19.3359 77.9707 18.9258 77.8066 18.5859C77.6543 18.2461 77.4023 17.9883 77.0508 17.8125C76.6992 17.625 76.2305 17.5312 75.6445 17.5312C75.2344 17.5312 74.8594 17.6074 74.5195 17.7598C74.1914 17.9121 73.9277 18.123 73.7285 18.3926C73.5293 18.6621 73.4297 18.9785 73.4297 19.3418C73.4297 19.5996 73.4883 19.834 73.6055 20.0449C73.7344 20.2441 73.9277 20.4316 74.1855 20.6074C74.4434 20.7715 74.7715 20.9238 75.1699 21.0645C75.5684 21.1934 76.0488 21.3105 76.6113 21.416C77.8887 21.6504 79.084 21.9844 80.1973 22.418C81.3105 22.8516 82.2129 23.4668 82.9043 24.2637C83.6074 25.0605 83.959 26.1328 83.959 27.4805C83.959 28.3242 83.7656 29.1035 83.3789 29.8184C82.9922 30.5215 82.4355 31.1426 81.709 31.6816C80.9824 32.209 80.1094 32.6191 79.0898 32.9121C78.0703 33.2051 76.9219 33.3516 75.6445 33.3516C73.8281 33.3516 72.293 33.0293 71.0391 32.3848C69.7852 31.7285 68.8359 30.9082 68.1914 29.9238C67.5586 28.9277 67.2422 27.9199 67.2422 26.9004H72.7617C72.7852 27.4863 72.9258 27.9668 73.1836 28.3418C73.4531 28.7168 73.8105 28.9922 74.2559 29.168C74.7012 29.3438 75.2168 29.4316 75.8027 29.4316C76.3418 29.4316 76.7871 29.3555 77.1387 29.2031C77.502 29.0508 77.7773 28.8457 77.9648 28.5879C78.1523 28.3184 78.2461 28.0078 78.2461 27.6562ZM92.7129 17.6367V40.3125H86.7891V13.9805H92.3086L92.7129 17.6367ZM104.385 23.2617V23.6309C104.385 25.0137 104.227 26.2969 103.91 27.4805C103.594 28.6641 103.125 29.6953 102.504 30.5742C101.883 31.4531 101.109 32.1387 100.184 32.6309C99.2695 33.1113 98.209 33.3516 97.002 33.3516C95.8652 33.3516 94.8867 33.0996 94.0664 32.5957C93.2461 32.0918 92.5605 31.3945 92.0098 30.5039C91.459 29.6133 91.0137 28.5938 90.6738 27.4453C90.334 26.2969 90.0645 25.084 89.8652 23.8066V23.332C90.0645 21.9609 90.334 20.6895 90.6738 19.5176C91.0137 18.334 91.459 17.3027 92.0098 16.4238C92.5605 15.5449 93.2402 14.8594 94.0488 14.3672C94.8691 13.875 95.8477 13.6289 96.9844 13.6289C98.1914 13.6289 99.252 13.8574 100.166 14.3145C101.092 14.7715 101.865 15.4277 102.486 16.2832C103.119 17.127 103.594 18.1406 103.91 19.3242C104.227 20.5078 104.385 21.8203 104.385 23.2617ZM98.4609 23.6309V23.2617C98.4609 22.5234 98.4082 21.8496 98.3027 21.2402C98.1973 20.6191 98.0273 20.0801 97.793 19.623C97.5703 19.166 97.2715 18.8145 96.8965 18.5684C96.5215 18.3223 96.0586 18.1992 95.5078 18.1992C94.875 18.1992 94.3418 18.2988 93.9082 18.498C93.4863 18.6855 93.1465 18.9785 92.8887 19.377C92.6426 19.7637 92.4668 20.25 92.3613 20.8359C92.2676 21.4102 92.2266 22.084 92.2383 22.8574V24.2988C92.2148 25.1895 92.3027 25.9746 92.502 26.6543C92.7012 27.3223 93.0469 27.8438 93.5391 28.2188C94.0312 28.5938 94.6992 28.7812 95.543 28.7812C96.1055 28.7812 96.5742 28.6523 96.9492 28.3945C97.3242 28.125 97.623 27.7559 97.8457 27.2871C98.0684 26.8066 98.2266 26.2559 98.3203 25.6348C98.4141 25.0137 98.4609 24.3457 98.4609 23.6309ZM107.074 6H112.998V28.3242L112.383 33H107.074V6ZM124.67 23.2793V23.6484C124.67 25.0898 124.523 26.4023 124.23 27.5859C123.938 28.7695 123.486 29.7949 122.877 30.6621C122.268 31.5176 121.5 32.1797 120.574 32.6484C119.648 33.1172 118.553 33.3516 117.287 33.3516C116.139 33.3516 115.154 33.1055 114.334 32.6133C113.514 32.1094 112.828 31.418 112.277 30.5391C111.727 29.6484 111.281 28.623 110.941 27.4629C110.602 26.291 110.332 25.0371 110.133 23.7012V23.2617C110.332 21.9375 110.602 20.6953 110.941 19.5352C111.281 18.3633 111.727 17.3379 112.277 16.459C112.828 15.5684 113.508 14.877 114.316 14.3848C115.137 13.8809 116.115 13.6289 117.252 13.6289C118.529 13.6289 119.631 13.8691 120.557 14.3496C121.494 14.8301 122.268 15.5039 122.877 16.3711C123.486 17.2383 123.938 18.2578 124.23 19.4297C124.523 20.6016 124.67 21.8848 124.67 23.2793ZM118.746 23.6484V23.2793C118.746 22.5879 118.705 21.9375 118.623 21.3281C118.541 20.7188 118.395 20.1797 118.184 19.7109C117.973 19.2422 117.674 18.873 117.287 18.6035C116.9 18.334 116.396 18.1992 115.775 18.1992C115.143 18.1992 114.609 18.3047 114.176 18.5156C113.754 18.7266 113.414 19.0312 113.156 19.4297C112.91 19.8164 112.734 20.2969 112.629 20.8711C112.523 21.4336 112.477 22.0723 112.488 22.7871V24.1758C112.465 25.1484 112.553 25.9805 112.752 26.6719C112.951 27.3633 113.297 27.8906 113.789 28.2539C114.281 28.6172 114.955 28.7988 115.811 28.7988C116.443 28.7988 116.953 28.6758 117.34 28.4297C117.738 28.1836 118.037 27.832 118.236 27.375C118.436 26.918 118.57 26.373 118.641 25.7402C118.711 25.1074 118.746 24.4102 118.746 23.6484ZM136.518 33.3516C134.971 33.3516 133.588 33.1113 132.369 32.6309C131.15 32.1387 130.119 31.4648 129.275 30.6094C128.443 29.7539 127.805 28.7695 127.359 27.6562C126.926 26.543 126.709 25.3652 126.709 24.123V23.4551C126.709 22.0605 126.902 20.7715 127.289 19.5879C127.676 18.3926 128.25 17.3496 129.012 16.459C129.773 15.5684 130.729 14.877 131.877 14.3848C133.025 13.8809 134.361 13.6289 135.885 13.6289C137.232 13.6289 138.439 13.8457 139.506 14.2793C140.572 14.7129 141.475 15.334 142.213 16.1426C142.963 16.9512 143.531 17.9297 143.918 19.0781C144.316 20.2266 144.516 21.5156 144.516 22.9453V25.3535H128.977V21.6445H138.732V21.1875C138.744 20.5547 138.633 20.0156 138.398 19.5703C138.176 19.125 137.848 18.7852 137.414 18.5508C136.98 18.3164 136.453 18.1992 135.832 18.1992C135.188 18.1992 134.654 18.3398 134.232 18.6211C133.822 18.9023 133.5 19.2891 133.266 19.7812C133.043 20.2617 132.885 20.8184 132.791 21.4512C132.697 22.084 132.65 22.752 132.65 23.4551V24.123C132.65 24.8262 132.744 25.4648 132.932 26.0391C133.131 26.6133 133.412 27.1055 133.775 27.5156C134.15 27.9141 134.596 28.2246 135.111 28.4473C135.639 28.6699 136.236 28.7812 136.904 28.7812C137.713 28.7812 138.51 28.6289 139.295 28.3242C140.08 28.0195 140.754 27.5156 141.316 26.8125L144.006 30.0117C143.619 30.5625 143.068 31.0957 142.354 31.6113C141.65 32.127 140.807 32.5488 139.822 32.877C138.838 33.1934 137.736 33.3516 136.518 33.3516ZM152.9 18.6914V33H146.977V13.9805H152.514L152.9 18.6914ZM158.525 13.8398L158.42 19.3418C158.186 19.3184 157.869 19.2891 157.471 19.2539C157.072 19.2188 156.738 19.2012 156.469 19.2012C155.777 19.2012 155.18 19.2832 154.676 19.4473C154.184 19.5996 153.773 19.834 153.445 20.1504C153.129 20.4551 152.895 20.8418 152.742 21.3105C152.602 21.7793 152.537 22.3242 152.549 22.9453L151.477 22.2422C151.477 20.9648 151.6 19.8047 151.846 18.7617C152.104 17.707 152.467 16.7988 152.936 16.0371C153.404 15.2637 153.973 14.6719 154.641 14.2617C155.309 13.8398 156.059 13.6289 156.891 13.6289C157.184 13.6289 157.471 13.6465 157.752 13.6816C158.045 13.7168 158.303 13.7695 158.525 13.8398ZM166.541 18.6914V33H160.617V13.9805H166.154L166.541 18.6914ZM172.166 13.8398L172.061 19.3418C171.826 19.3184 171.51 19.2891 171.111 19.2539C170.713 19.2188 170.379 19.2012 170.109 19.2012C169.418 19.2012 168.82 19.2832 168.316 19.4473C167.824 19.5996 167.414 19.834 167.086 20.1504C166.77 20.4551 166.535 20.8418 166.383 21.3105C166.242 21.7793 166.178 22.3242 166.189 22.9453L165.117 22.2422C165.117 20.9648 165.24 19.8047 165.486 18.7617C165.744 17.707 166.107 16.7988 166.576 16.0371C167.045 15.2637 167.613 14.6719 168.281 14.2617C168.949 13.8398 169.699 13.6289 170.531 13.6289C170.824 13.6289 171.111 13.6465 171.393 13.6816C171.686 13.7168 171.943 13.7695 172.166 13.8398ZM180.357 30.7676L185.279 13.9805H191.643L183.996 35.8301C183.832 36.3105 183.615 36.8262 183.346 37.377C183.076 37.9395 182.707 38.4727 182.238 38.9766C181.77 39.4805 181.166 39.8906 180.428 40.207C179.701 40.5234 178.799 40.6816 177.721 40.6816C177.146 40.6816 176.725 40.6523 176.455 40.5938C176.197 40.5469 175.799 40.459 175.26 40.3301V36.0938C175.412 36.0938 175.541 36.0938 175.646 36.0938C175.764 36.0938 175.893 36.0938 176.033 36.0938C176.666 36.0938 177.17 36.0293 177.545 35.9004C177.932 35.7715 178.225 35.584 178.424 35.3379C178.635 35.0918 178.799 34.793 178.916 34.4414L180.357 30.7676ZM179.109 13.9805L182.854 27.2871L183.504 33.5625H179.531L172.764 13.9805H179.109Z" fill="#1E1E1E"/>
</svg>
