<svg width="212" height="125" viewBox="0 0 212 125" fill="none" xmlns="http://www.w3.org/2000/svg">
<path d="M32.8107 90.6291L21.1834 83.4915C19.2199 82.2862 16.7802 82.2863 14.8166 83.4915L3.1894 90.6291C1.22207 91.8366 0 94.0886 0 96.5061V110.77C0 113.188 1.22207 115.44 3.18932 116.647L14.8166 123.785C16.7805 124.99 19.2201 124.99 21.1834 123.785L32.8106 116.647C34.7779 115.44 36 113.188 36 110.77V96.5061C36 94.0887 34.7779 91.8367 32.8107 90.6291ZM32.9099 110.77C32.9099 112.015 32.2804 113.175 31.267 113.797L19.6397 120.935C18.6282 121.556 17.3717 121.556 16.3602 120.935L4.73292 113.797C3.71959 113.175 3.09013 112.015 3.09013 110.77V96.5061C3.09013 95.2609 3.71959 94.1009 4.733 93.4789L16.3602 86.3414C17.3718 85.7204 18.6287 85.7206 19.6398 86.3414L31.2671 93.4789C32.2804 94.1009 32.9099 95.2608 32.9099 96.5061V110.77Z" fill="#FFA114"/>
<path d="M76.8107 90.6291L65.1834 83.4915C63.2199 82.2862 60.7802 82.2863 58.8166 83.4915L47.1894 90.6291C45.2221 91.8366 44 94.0886 44 96.5061V110.77C44 113.188 45.2221 115.44 47.1893 116.647L58.8166 123.785C60.7805 124.99 63.2201 124.99 65.1834 123.785L76.8106 116.647C78.7779 115.44 80 113.188 80 110.77V96.5061C80 94.0887 78.7779 91.8367 76.8107 90.6291ZM76.9099 110.77C76.9099 112.015 76.2804 113.175 75.267 113.797L63.6397 120.935C62.6282 121.556 61.3717 121.556 60.3602 120.935L48.7329 113.797C47.7196 113.175 47.0901 112.015 47.0901 110.77V96.5061C47.0901 95.2609 47.7196 94.1009 48.733 93.4789L60.3602 86.3414C61.3718 85.7204 62.6287 85.7206 63.6398 86.3414L75.2671 93.4789C76.2804 94.1009 76.9099 95.2608 76.9099 96.5061V110.77Z" fill="#FFA114"/>
<path d="M120.811 90.6291L109.183 83.4915C107.22 82.2862 104.78 82.2863 102.817 83.4915L91.1894 90.6291C89.2221 91.8366 88 94.0886 88 96.5061V110.77C88 113.188 89.2221 115.44 91.1893 116.647L102.817 123.785C104.78 124.99 107.22 124.99 109.183 123.785L120.811 116.647C122.778 115.44 124 113.188 124 110.77V96.5061C124 94.0887 122.778 91.8367 120.811 90.6291ZM120.91 110.77C120.91 112.015 120.28 113.175 119.267 113.797L107.64 120.935C106.628 121.556 105.372 121.556 104.36 120.935L92.7329 113.797C91.7196 113.175 91.0901 112.015 91.0901 110.77V96.5061C91.0901 95.2609 91.7196 94.1009 92.733 93.4789L104.36 86.3414C105.372 85.7204 106.629 85.7206 107.64 86.3414L119.267 93.4789C120.28 94.1009 120.91 95.2608 120.91 96.5061V110.77Z" fill="#FFA114"/>
<path d="M164.811 90.6291L153.183 83.4915C151.22 82.2862 148.78 82.2863 146.817 83.4915L135.189 90.6291C133.222 91.8366 132 94.0886 132 96.5061V110.77C132 113.188 133.222 115.44 135.189 116.647L146.817 123.785C148.78 124.99 151.22 124.99 153.183 123.785L164.811 116.647C166.778 115.44 168 113.188 168 110.77V96.5061C168 94.0887 166.778 91.8367 164.811 90.6291ZM164.91 110.77C164.91 112.015 164.28 113.175 163.267 113.797L151.64 120.935C150.628 121.556 149.372 121.556 148.36 120.935L136.733 113.797C135.72 113.175 135.09 112.015 135.09 110.77V96.5061C135.09 95.2609 135.72 94.1009 136.733 93.4789L148.36 86.3414C149.372 85.7204 150.629 85.7206 151.64 86.3414L163.267 93.4789C164.28 94.1009 164.91 95.2608 164.91 96.5061V110.77Z" fill="#FFA114" fill-opacity="0.3"/>
<path d="M208.811 90.6291L197.183 83.4915C195.22 82.2862 192.78 82.2863 190.817 83.4915L179.189 90.6291C177.222 91.8366 176 94.0886 176 96.5061V110.77C176 113.188 177.222 115.44 179.189 116.647L190.817 123.785C192.78 124.99 195.22 124.99 197.183 123.785L208.811 116.647C210.778 115.44 212 113.188 212 110.77V96.5061C212 94.0887 210.778 91.8367 208.811 90.6291ZM208.91 110.77C208.91 112.015 208.28 113.175 207.267 113.797L195.64 120.935C194.628 121.556 193.372 121.556 192.36 120.935L180.733 113.797C179.72 113.175 179.09 112.015 179.09 110.77V96.5061C179.09 95.2609 179.72 94.1009 180.733 93.4789L192.36 86.3414C193.372 85.7204 194.629 85.7206 195.64 86.3414L207.267 93.4789C208.28 94.1009 208.91 95.2608 208.91 96.5061V110.77Z" fill="#FFA114" fill-opacity="0.3"/>
<path d="M43.1348 26.1973C43.1348 25.7988 43.0762 25.4414 42.959 25.125C42.8418 24.7969 42.625 24.4922 42.3086 24.2109C41.9922 23.9297 41.5352 23.6484 40.9375 23.3672C40.3516 23.0742 39.5781 22.7695 38.6172 22.4531C37.4922 22.0781 36.4082 21.6562 35.3652 21.1875C34.3223 20.707 33.3906 20.1504 32.5703 19.5176C31.75 18.873 31.0996 18.123 30.6191 17.2676C30.1387 16.4004 29.8984 15.3926 29.8984 14.2441C29.8984 13.1426 30.1445 12.1523 30.6367 11.2734C31.1289 10.3828 31.8145 9.62695 32.6934 9.00586C33.584 8.37305 34.627 7.89258 35.8223 7.56445C37.0176 7.22461 38.3242 7.05469 39.7422 7.05469C41.6172 7.05469 43.2695 7.38281 44.6992 8.03906C46.1406 8.68359 47.2656 9.60352 48.0742 10.7988C48.8945 11.9824 49.3047 13.3828 49.3047 15H43.1699C43.1699 14.3555 43.0352 13.7871 42.7656 13.2949C42.5078 12.8027 42.1152 12.416 41.5879 12.1348C41.0605 11.8535 40.3984 11.7129 39.6016 11.7129C38.8281 11.7129 38.1777 11.8301 37.6504 12.0645C37.123 12.2988 36.7246 12.6152 36.4551 13.0137C36.1855 13.4004 36.0508 13.8281 36.0508 14.2969C36.0508 14.6836 36.1562 15.0352 36.3672 15.3516C36.5898 15.6562 36.9004 15.9434 37.2988 16.2129C37.709 16.4824 38.2012 16.7402 38.7754 16.9863C39.3613 17.2324 40.0176 17.4727 40.7441 17.707C42.1035 18.1406 43.3105 18.627 44.3652 19.166C45.4316 19.6934 46.3281 20.2969 47.0547 20.9766C47.793 21.6445 48.3496 22.4062 48.7246 23.2617C49.1113 24.1172 49.3047 25.084 49.3047 26.1621C49.3047 27.3105 49.082 28.3301 48.6367 29.2207C48.1914 30.1113 47.5527 30.8672 46.7207 31.4883C45.8887 32.0977 44.8926 32.5605 43.7324 32.877C42.5723 33.1934 41.2773 33.3516 39.8477 33.3516C38.5352 33.3516 37.2402 33.1875 35.9629 32.8594C34.6973 32.5195 33.5488 32.0039 32.5176 31.3125C31.4863 30.6094 30.6602 29.7129 30.0391 28.623C29.4297 27.5215 29.125 26.2148 29.125 24.7031H35.3125C35.3125 25.4531 35.4121 26.0859 35.6113 26.6016C35.8105 27.1172 36.1035 27.5332 36.4902 27.8496C36.877 28.1543 37.3516 28.377 37.9141 28.5176C38.4766 28.6465 39.1211 28.7109 39.8477 28.7109C40.6328 28.7109 41.2656 28.5996 41.7461 28.377C42.2266 28.1426 42.5781 27.8379 42.8008 27.4629C43.0234 27.0762 43.1348 26.6543 43.1348 26.1973ZM57.127 7.40625L61.8379 18.5156L66.5664 7.40625H73.2109L64.9844 23.8066V33H58.709V23.8066L50.4648 7.40625H57.127ZM87.9941 26.1973C87.9941 25.7988 87.9355 25.4414 87.8184 25.125C87.7012 24.7969 87.4844 24.4922 87.168 24.2109C86.8516 23.9297 86.3945 23.6484 85.7969 23.3672C85.2109 23.0742 84.4375 22.7695 83.4766 22.4531C82.3516 22.0781 81.2676 21.6562 80.2246 21.1875C79.1816 20.707 78.25 20.1504 77.4297 19.5176C76.6094 18.873 75.959 18.123 75.4785 17.2676C74.998 16.4004 74.7578 15.3926 74.7578 14.2441C74.7578 13.1426 75.0039 12.1523 75.4961 11.2734C75.9883 10.3828 76.6738 9.62695 77.5527 9.00586C78.4434 8.37305 79.4863 7.89258 80.6816 7.56445C81.877 7.22461 83.1836 7.05469 84.6016 7.05469C86.4766 7.05469 88.1289 7.38281 89.5586 8.03906C91 8.68359 92.125 9.60352 92.9336 10.7988C93.7539 11.9824 94.1641 13.3828 94.1641 15H88.0293C88.0293 14.3555 87.8945 13.7871 87.625 13.2949C87.3672 12.8027 86.9746 12.416 86.4473 12.1348C85.9199 11.8535 85.2578 11.7129 84.4609 11.7129C83.6875 11.7129 83.0371 11.8301 82.5098 12.0645C81.9824 12.2988 81.584 12.6152 81.3145 13.0137C81.0449 13.4004 80.9102 13.8281 80.9102 14.2969C80.9102 14.6836 81.0156 15.0352 81.2266 15.3516C81.4492 15.6562 81.7598 15.9434 82.1582 16.2129C82.5684 16.4824 83.0605 16.7402 83.6348 16.9863C84.2207 17.2324 84.877 17.4727 85.6035 17.707C86.9629 18.1406 88.1699 18.627 89.2246 19.166C90.291 19.6934 91.1875 20.2969 91.9141 20.9766C92.6523 21.6445 93.209 22.4062 93.584 23.2617C93.9707 24.1172 94.1641 25.084 94.1641 26.1621C94.1641 27.3105 93.9414 28.3301 93.4961 29.2207C93.0508 30.1113 92.4121 30.8672 91.5801 31.4883C90.748 32.0977 89.752 32.5605 88.5918 32.877C87.4316 33.1934 86.1367 33.3516 84.707 33.3516C83.3945 33.3516 82.0996 33.1875 80.8223 32.8594C79.5566 32.5195 78.4082 32.0039 77.377 31.3125C76.3457 30.6094 75.5195 29.7129 74.8984 28.623C74.2891 27.5215 73.9844 26.2148 73.9844 24.7031H80.1719C80.1719 25.4531 80.2715 26.0859 80.4707 26.6016C80.6699 27.1172 80.9629 27.5332 81.3496 27.8496C81.7363 28.1543 82.2109 28.377 82.7734 28.5176C83.3359 28.6465 83.9805 28.7109 84.707 28.7109C85.4922 28.7109 86.125 28.5996 86.6055 28.377C87.0859 28.1426 87.4375 27.8379 87.6602 27.4629C87.8828 27.0762 87.9941 26.6543 87.9941 26.1973ZM100.404 7.40625H105.432L111.145 25.2129L116.857 7.40625H121.885L113.184 33H109.105L100.404 7.40625ZM97.3457 7.40625H102.549L103.516 27.0234V33H97.3457V7.40625ZM119.74 7.40625H124.961V33H118.773V27.0234L119.74 7.40625ZM145.826 28.2539V33H132.889V28.2539H145.826ZM135.086 7.40625V33H128.916V7.40625H135.086Z" fill="#1E1E1E"/>
</svg>
