<svg width="212" height="125" viewBox="0 0 212 125" fill="none" xmlns="http://www.w3.org/2000/svg">
<path d="M32.8107 90.629L21.1834 83.4915C19.2199 82.2862 16.7802 82.2863 14.8166 83.4915L3.1894 90.629C1.22207 91.8366 0 94.0886 0 96.5061V110.77C0 113.188 1.22207 115.44 3.18932 116.647L14.8166 123.785C16.7805 124.99 19.2201 124.99 21.1834 123.785L32.8106 116.647C34.7779 115.44 36 113.188 36 110.77V96.5061C36 94.0887 34.7779 91.8367 32.8107 90.629ZM32.9099 110.77C32.9099 112.015 32.2804 113.175 31.267 113.797L19.6397 120.935C18.6282 121.556 17.3717 121.556 16.3602 120.935L4.73292 113.797C3.71959 113.175 3.09013 112.015 3.09013 110.77V96.5061C3.09013 95.2609 3.71959 94.1009 4.733 93.4789L16.3602 86.3414C17.3718 85.7204 18.6287 85.7206 19.6398 86.3414L31.2671 93.4788C32.2804 94.1009 32.9099 95.2608 32.9099 96.5061V110.77Z" fill="#FFA114"/>
<path d="M76.8107 90.629L65.1834 83.4915C63.2199 82.2862 60.7802 82.2863 58.8166 83.4915L47.1894 90.629C45.2221 91.8366 44 94.0886 44 96.5061V110.77C44 113.188 45.2221 115.44 47.1893 116.647L58.8166 123.785C60.7805 124.99 63.2201 124.99 65.1834 123.785L76.8106 116.647C78.7779 115.44 80 113.188 80 110.77V96.5061C80 94.0887 78.7779 91.8367 76.8107 90.629ZM76.9099 110.77C76.9099 112.015 76.2804 113.175 75.267 113.797L63.6397 120.935C62.6282 121.556 61.3717 121.556 60.3602 120.935L48.7329 113.797C47.7196 113.175 47.0901 112.015 47.0901 110.77V96.5061C47.0901 95.2609 47.7196 94.1009 48.733 93.4789L60.3602 86.3414C61.3718 85.7204 62.6287 85.7206 63.6398 86.3414L75.2671 93.4788C76.2804 94.1009 76.9099 95.2608 76.9099 96.5061V110.77Z" fill="#FFA114"/>
<path d="M120.811 90.629L109.183 83.4915C107.22 82.2862 104.78 82.2863 102.817 83.4915L91.1894 90.629C89.2221 91.8366 88 94.0886 88 96.5061V110.77C88 113.188 89.2221 115.44 91.1893 116.647L102.817 123.785C104.78 124.99 107.22 124.99 109.183 123.785L120.811 116.647C122.778 115.44 124 113.188 124 110.77V96.5061C124 94.0887 122.778 91.8367 120.811 90.629ZM120.91 110.77C120.91 112.015 120.28 113.175 119.267 113.797L107.64 120.935C106.628 121.556 105.372 121.556 104.36 120.935L92.7329 113.797C91.7196 113.175 91.0901 112.015 91.0901 110.77V96.5061C91.0901 95.2609 91.7196 94.1009 92.733 93.4789L104.36 86.3414C105.372 85.7204 106.629 85.7206 107.64 86.3414L119.267 93.4788C120.28 94.1009 120.91 95.2608 120.91 96.5061V110.77Z" fill="#FFA114"/>
<path d="M164.811 90.629L153.183 83.4915C151.22 82.2862 148.78 82.2863 146.817 83.4915L135.189 90.629C133.222 91.8366 132 94.0886 132 96.5061V110.77C132 113.188 133.222 115.44 135.189 116.647L146.817 123.785C148.78 124.99 151.22 124.99 153.183 123.785L164.811 116.647C166.778 115.44 168 113.188 168 110.77V96.5061C168 94.0887 166.778 91.8367 164.811 90.629ZM164.91 110.77C164.91 112.015 164.28 113.175 163.267 113.797L151.64 120.935C150.628 121.556 149.372 121.556 148.36 120.935L136.733 113.797C135.72 113.175 135.09 112.015 135.09 110.77V96.5061C135.09 95.2609 135.72 94.1009 136.733 93.4789L148.36 86.3414C149.372 85.7204 150.629 85.7206 151.64 86.3414L163.267 93.4788C164.28 94.1009 164.91 95.2608 164.91 96.5061V110.77Z" fill="#FFA114" fill-opacity="0.3"/>
<path d="M208.811 90.629L197.183 83.4915C195.22 82.2862 192.78 82.2863 190.817 83.4915L179.189 90.629C177.222 91.8366 176 94.0886 176 96.5061V110.77C176 113.188 177.222 115.44 179.189 116.647L190.817 123.785C192.78 124.99 195.22 124.99 197.183 123.785L208.811 116.647C210.778 115.44 212 113.188 212 110.77V96.5061C212 94.0887 210.778 91.8367 208.811 90.629ZM208.91 110.77C208.91 112.015 208.28 113.175 207.267 113.797L195.64 120.935C194.628 121.556 193.372 121.556 192.36 120.935L180.733 113.797C179.72 113.175 179.09 112.015 179.09 110.77V96.5061C179.09 95.2609 179.72 94.1009 180.733 93.4789L192.36 86.3414C193.372 85.7204 194.629 85.7206 195.64 86.3414L207.267 93.4788C208.28 94.1009 208.91 95.2608 208.91 96.5061V110.77Z" fill="#FFA114" fill-opacity="0.3"/>
<path d="M65.8379 7.40625H72.0078V24.123C72.0078 26.1152 71.5918 27.8027 70.7598 29.1855C69.9277 30.5566 68.7617 31.5938 67.2617 32.2969C65.7617 33 63.998 33.3516 61.9707 33.3516C59.9668 33.3516 58.2031 33 56.6797 32.2969C55.168 31.5938 53.9844 30.5566 53.1289 29.1855C52.2852 27.8027 51.8633 26.1152 51.8633 24.123V7.40625H58.0508V24.123C58.0508 25.1777 58.2031 26.0391 58.5078 26.707C58.8125 27.3633 59.2578 27.8438 59.8438 28.1484C60.4297 28.4531 61.1387 28.6055 61.9707 28.6055C62.8145 28.6055 63.5234 28.4531 64.0977 28.1484C64.6719 27.8438 65.1055 27.3633 65.3984 26.707C65.6914 26.0391 65.8379 25.1777 65.8379 24.123V7.40625ZM81.4297 18.041V33H75.5059V13.9805H81.0605L81.4297 18.041ZM80.7266 22.8398L79.3379 22.875C79.3379 21.4219 79.5137 20.127 79.8652 18.9902C80.2168 17.8418 80.7148 16.8691 81.3594 16.0723C82.0039 15.2754 82.7715 14.6719 83.6621 14.2617C84.5645 13.8398 85.5664 13.6289 86.668 13.6289C87.5469 13.6289 88.3496 13.7578 89.0762 14.0156C89.8145 14.2734 90.4473 14.6895 90.9746 15.2637C91.5137 15.8379 91.9238 16.5996 92.2051 17.5488C92.498 18.4863 92.6445 19.6465 92.6445 21.0293V33H86.6855V21.0117C86.6855 20.25 86.5801 19.6699 86.3691 19.2715C86.1582 18.8613 85.8535 18.5801 85.4551 18.4277C85.0566 18.2754 84.5703 18.1992 83.9961 18.1992C83.3867 18.1992 82.8711 18.3164 82.4492 18.5508C82.0273 18.7852 81.6875 19.1133 81.4297 19.5352C81.1836 19.9453 81.002 20.4316 80.8848 20.9941C80.7793 21.5566 80.7266 22.1719 80.7266 22.8398ZM102.189 13.9805V33H96.248V13.9805H102.189ZM95.8965 9.07617C95.8965 8.23242 96.2012 7.54102 96.8105 7.00195C97.4199 6.46289 98.2109 6.19336 99.1836 6.19336C100.156 6.19336 100.947 6.46289 101.557 7.00195C102.166 7.54102 102.471 8.23242 102.471 9.07617C102.471 9.91992 102.166 10.6113 101.557 11.1504C100.947 11.6895 100.156 11.959 99.1836 11.959C98.2109 11.959 97.4199 11.6895 96.8105 11.1504C96.2012 10.6113 95.8965 9.91992 95.8965 9.07617ZM111.822 17.6367V40.3125H105.898V13.9805H111.418L111.822 17.6367ZM123.494 23.2617V23.6309C123.494 25.0137 123.336 26.2969 123.02 27.4805C122.703 28.6641 122.234 29.6953 121.613 30.5742C120.992 31.4531 120.219 32.1387 119.293 32.6309C118.379 33.1113 117.318 33.3516 116.111 33.3516C114.975 33.3516 113.996 33.0996 113.176 32.5957C112.355 32.0918 111.67 31.3945 111.119 30.5039C110.568 29.6133 110.123 28.5938 109.783 27.4453C109.443 26.2969 109.174 25.084 108.975 23.8066V23.332C109.174 21.9609 109.443 20.6895 109.783 19.5176C110.123 18.334 110.568 17.3027 111.119 16.4238C111.67 15.5449 112.35 14.8594 113.158 14.3672C113.979 13.875 114.957 13.6289 116.094 13.6289C117.301 13.6289 118.361 13.8574 119.275 14.3145C120.201 14.7715 120.975 15.4277 121.596 16.2832C122.229 17.127 122.703 18.1406 123.02 19.3242C123.336 20.5078 123.494 21.8203 123.494 23.2617ZM117.57 23.6309V23.2617C117.57 22.5234 117.518 21.8496 117.412 21.2402C117.307 20.6191 117.137 20.0801 116.902 19.623C116.68 19.166 116.381 18.8145 116.006 18.5684C115.631 18.3223 115.168 18.1992 114.617 18.1992C113.984 18.1992 113.451 18.2988 113.018 18.498C112.596 18.6855 112.256 18.9785 111.998 19.377C111.752 19.7637 111.576 20.25 111.471 20.8359C111.377 21.4102 111.336 22.084 111.348 22.8574V24.2988C111.324 25.1895 111.412 25.9746 111.611 26.6543C111.811 27.3223 112.156 27.8438 112.648 28.2188C113.141 28.5938 113.809 28.7812 114.652 28.7812C115.215 28.7812 115.684 28.6523 116.059 28.3945C116.434 28.125 116.732 27.7559 116.955 27.2871C117.178 26.8066 117.336 26.2559 117.43 25.6348C117.523 25.0137 117.57 24.3457 117.57 23.6309ZM132.389 6V33H126.447V6H132.389ZM135.307 23.6836V23.3145C135.307 21.9199 135.506 20.6367 135.904 19.4648C136.303 18.2812 136.889 17.2559 137.662 16.3887C138.436 15.5215 139.391 14.8477 140.527 14.3672C141.664 13.875 142.977 13.6289 144.465 13.6289C145.965 13.6289 147.283 13.875 148.42 14.3672C149.568 14.8477 150.529 15.5215 151.303 16.3887C152.076 17.2559 152.662 18.2812 153.061 19.4648C153.459 20.6367 153.658 21.9199 153.658 23.3145V23.6836C153.658 25.0664 153.459 26.3496 153.061 27.5332C152.662 28.7051 152.076 29.7305 151.303 30.6094C150.529 31.4766 149.574 32.1504 148.438 32.6309C147.301 33.1113 145.988 33.3516 144.5 33.3516C143.012 33.3516 141.693 33.1113 140.545 32.6309C139.396 32.1504 138.436 31.4766 137.662 30.6094C136.889 29.7305 136.303 28.7051 135.904 27.5332C135.506 26.3496 135.307 25.0664 135.307 23.6836ZM141.23 23.3145V23.6836C141.23 24.3984 141.283 25.0664 141.389 25.6875C141.494 26.3086 141.67 26.8535 141.916 27.3223C142.162 27.7793 142.496 28.1367 142.918 28.3945C143.34 28.6523 143.867 28.7812 144.5 28.7812C145.121 28.7812 145.637 28.6523 146.047 28.3945C146.469 28.1367 146.803 27.7793 147.049 27.3223C147.295 26.8535 147.471 26.3086 147.576 25.6875C147.682 25.0664 147.734 24.3984 147.734 23.6836V23.3145C147.734 22.623 147.682 21.9727 147.576 21.3633C147.471 20.7422 147.295 20.1973 147.049 19.7285C146.803 19.248 146.469 18.873 146.047 18.6035C145.625 18.334 145.098 18.1992 144.465 18.1992C143.844 18.1992 143.322 18.334 142.9 18.6035C142.49 18.873 142.162 19.248 141.916 19.7285C141.67 20.1973 141.494 20.7422 141.389 21.3633C141.283 21.9727 141.23 22.623 141.23 23.3145ZM166.314 13.9805V18.0938H154.854V13.9805H166.314ZM157.262 9.25195H163.186V26.7949C163.186 27.2988 163.244 27.6914 163.361 27.9727C163.479 28.2422 163.678 28.4355 163.959 28.5527C164.252 28.6582 164.639 28.7109 165.119 28.7109C165.459 28.7109 165.74 28.7051 165.963 28.6934C166.186 28.6699 166.396 28.6406 166.596 28.6055V32.8418C166.092 33.0059 165.564 33.1289 165.014 33.2109C164.463 33.3047 163.877 33.3516 163.256 33.3516C161.99 33.3516 160.906 33.1523 160.004 32.7539C159.113 32.3555 158.434 31.7285 157.965 30.873C157.496 30.0176 157.262 28.9043 157.262 27.5332V9.25195Z" fill="#1E1E1E"/>
</svg>
