<svg width="53" height="862" viewBox="0 0 53 862" fill="none" xmlns="http://www.w3.org/2000/svg">
<g clip-path="url(#clip0_118_12)">
<path d="M44.7035 0.39917C36.746 21.7167 27.3226 53.5959 25.3682 92.865C22.5362 149.611 37.3343 180.854 44.7035 220.565C61.4461 310.776 17.7298 325.567 11.1285 445.133C5.35482 549.714 37.2645 565.907 36.5665 685.116C36.1277 759.814 23.1943 820.886 12.1456 861.256" stroke="#F69F21" stroke-width="2" stroke-miterlimit="10"/>
<path d="M12.1456 861.256L0.947266 822.731" stroke="#F69F21" stroke-width="2" stroke-miterlimit="10"/>
<path d="M12.1455 861.256L38.0921 831.534" stroke="#F69F21" stroke-width="2" stroke-miterlimit="10"/>
<path d="M31.0721 59.9285C35.3788 59.9285 38.87 56.1514 38.87 51.4922C38.87 46.8329 35.3788 43.0558 31.0721 43.0558C26.7654 43.0558 23.2742 46.8329 23.2742 51.4922C23.2742 56.1514 26.7654 59.9285 31.0721 59.9285Z" fill="#878787" stroke="#F69F21" stroke-miterlimit="10"/>
<path d="M44.7035 229.012C49.0101 229.012 52.5014 225.235 52.5014 220.576C52.5014 215.917 49.0101 212.139 44.7035 212.139C40.3968 212.139 36.9055 215.917 36.9055 220.576C36.9055 225.235 40.3968 229.012 44.7035 229.012Z" fill="#706F6F" stroke="#F69F21" stroke-miterlimit="10"/>
<path d="M25.3494 365.141C29.6561 365.141 33.1474 361.364 33.1474 356.705C33.1474 352.046 29.6561 348.269 25.3494 348.269C21.0428 348.269 17.5515 352.046 17.5515 356.705C17.5515 361.364 21.0428 365.141 25.3494 365.141Z" fill="#706F6F" stroke="#F69F21" stroke-miterlimit="10"/>
<path d="M31.0721 608.596C35.3788 608.596 38.87 604.819 38.87 600.159C38.87 595.5 35.3788 591.723 31.0721 591.723C26.7654 591.723 23.2742 595.5 23.2742 600.159C23.2742 604.819 26.7654 608.596 31.0721 608.596Z" fill="#706F6F" stroke="#F69F21" stroke-miterlimit="10"/>
<path d="M29.4666 798.274C33.7733 798.274 37.2646 794.497 37.2646 789.838C37.2646 785.178 33.7733 781.401 29.4666 781.401C25.16 781.401 21.6687 785.178 21.6687 789.838C21.6687 794.497 25.16 798.274 29.4666 798.274Z" fill="#706F6F" stroke="#F69F21" stroke-miterlimit="10"/>
<path d="M12.4305 444.335C16.7372 444.335 20.2284 440.558 20.2284 435.899C20.2284 431.239 16.7372 427.462 12.4305 427.462C8.12382 427.462 4.63257 431.239 4.63257 435.899C4.63257 440.558 8.12382 444.335 12.4305 444.335Z" fill="#706F6F" stroke="#F69F21" stroke-miterlimit="10"/>
</g>
<defs>
<clipPath id="clip0_118_12">
<rect width="53" height="862" fill="white"/>
</clipPath>
</defs>
</svg>
